<?xml version="1.0" encoding="utf-8" standalone="no"?>
<!DOCTYPE svg PUBLIC "-//W3C//DTD SVG 1.1//EN"
  "http://www.w3.org/Graphics/SVG/1.1/DTD/svg11.dtd">
<svg xmlns:xlink="http://www.w3.org/1999/xlink" width="705.652031pt" height="417.501092pt" viewBox="0 0 705.652031 417.501092" xmlns="http://www.w3.org/2000/svg" version="1.1">
 <metadata>
  <rdf:RDF xmlns:dc="http://purl.org/dc/elements/1.1/" xmlns:cc="http://creativecommons.org/ns#" xmlns:rdf="http://www.w3.org/1999/02/22-rdf-syntax-ns#">
   <cc:Work>
    <dc:type rdf:resource="http://purl.org/dc/dcmitype/StillImage"/>
    <dc:date>2026-01-27T15:57:06.787963</dc:date>
    <dc:format>image/svg+xml</dc:format>
    <dc:creator>
     <cc:Agent>
      <dc:title>Matplotlib v3.10.8, https://matplotlib.org/</dc:title>
     </cc:Agent>
    </dc:creator>
   </cc:Work>
  </rdf:RDF>
 </metadata>
 <defs>
  <style type="text/css">*{stroke-linejoin: round; stroke-linecap: butt}</style>
 </defs>
 <g id="figure_1">
  <g id="patch_1">
   <path d="M 0 417.501092 
L 705.652031 417.501092 
L 705.652031 0 
L 0 0 
z
" style="fill: #ffffff"/>
  </g>
  <g id="axes_1">
   <g id="patch_2">
    <path d="M 105.107031 385.643748 
L 702.052031 385.643748 
L 702.052031 17.936905 
L 105.107031 17.936905 
z
" style="fill: #ffffff"/>
   </g>
   <g id="patch_3">
    <path d="M 403.579531 368.9298 
L 170.155139 368.9298 
L 170.155139 346.266821 
L 403.579531 346.266821 
z
" clip-path="url(#p83369a5cc7)" style="fill: #2e86ab; opacity: 0.8; stroke: #000000; stroke-width: 0.5; stroke-linejoin: miter"/>
   </g>
   <g id="patch_4">
    <path d="M 403.579531 340.601076 
L 538.743866 340.601076 
L 538.743866 317.938096 
L 403.579531 317.938096 
z
" clip-path="url(#p83369a5cc7)" style="fill: #a23b72; opacity: 0.8; stroke: #000000; stroke-width: 0.5; stroke-linejoin: miter"/>
   </g>
   <g id="patch_5">
    <path d="M 403.579531 312.272351 
L 231.833781 312.272351 
L 231.833781 289.609372 
L 403.579531 289.609372 
z
" clip-path="url(#p83369a5cc7)" style="fill: #2e86ab; opacity: 0.8; stroke: #000000; stroke-width: 0.5; stroke-linejoin: miter"/>
   </g>
   <g id="patch_6">
    <path d="M 403.579531 283.943627 
L 561.766191 283.943627 
L 561.766191 261.280648 
L 403.579531 261.280648 
z
" clip-path="url(#p83369a5cc7)" style="fill: #a23b72; opacity: 0.8; stroke: #000000; stroke-width: 0.5; stroke-linejoin: miter"/>
   </g>
   <g id="patch_7">
    <path d="M 403.579531 255.614903 
L 276.307183 255.614903 
L 276.307183 232.951923 
L 403.579531 232.951923 
z
" clip-path="url(#p83369a5cc7)" style="fill: #2e86ab; opacity: 0.8; stroke: #000000; stroke-width: 0.5; stroke-linejoin: miter"/>
   </g>
   <g id="patch_8">
    <path d="M 403.579531 227.286178 
L 533.638935 227.286178 
L 533.638935 204.623199 
L 403.579531 204.623199 
z
" clip-path="url(#p83369a5cc7)" style="fill: #a23b72; opacity: 0.8; stroke: #000000; stroke-width: 0.5; stroke-linejoin: miter"/>
   </g>
   <g id="patch_9">
    <path d="M 403.579531 198.957454 
L 208.093351 198.957454 
L 208.093351 176.294474 
L 403.579531 176.294474 
z
" clip-path="url(#p83369a5cc7)" style="fill: #2e86ab; opacity: 0.8; stroke: #000000; stroke-width: 0.5; stroke-linejoin: miter"/>
   </g>
   <g id="patch_10">
    <path d="M 403.579531 170.628729 
L 526.972595 170.628729 
L 526.972595 147.96575 
L 403.579531 147.96575 
z
" clip-path="url(#p83369a5cc7)" style="fill: #a23b72; opacity: 0.8; stroke: #000000; stroke-width: 0.5; stroke-linejoin: miter"/>
   </g>
   <g id="patch_11">
    <path d="M 403.579531 142.300005 
L 256.404286 142.300005 
L 256.404286 119.637025 
L 403.579531 119.637025 
z
" clip-path="url(#p83369a5cc7)" style="fill: #2e86ab; opacity: 0.8; stroke: #000000; stroke-width: 0.5; stroke-linejoin: miter"/>
   </g>
   <g id="patch_12">
    <path d="M 403.579531 113.97128 
L 541.421672 113.97128 
L 541.421672 91.308301 
L 403.579531 91.308301 
z
" clip-path="url(#p83369a5cc7)" style="fill: #a23b72; opacity: 0.8; stroke: #000000; stroke-width: 0.5; stroke-linejoin: miter"/>
   </g>
   <g id="patch_13">
    <path d="M 403.579531 85.642556 
L 219.804433 85.642556 
L 219.804433 62.979576 
L 403.579531 62.979576 
z
" clip-path="url(#p83369a5cc7)" style="fill: #2e86ab; opacity: 0.8; stroke: #000000; stroke-width: 0.5; stroke-linejoin: miter"/>
   </g>
   <g id="patch_14">
    <path d="M 403.579531 57.313832 
L 522.784333 57.313832 
L 522.784333 34.650852 
L 403.579531 34.650852 
z
" clip-path="url(#p83369a5cc7)" style="fill: #a23b72; opacity: 0.8; stroke: #000000; stroke-width: 0.5; stroke-linejoin: miter"/>
   </g>
   <g id="matplotlib.axis_1">
    <g id="xtick_1">
     <g id="line2d_1">
      <path d="M 164.801531 385.643748 
L 164.801531 17.936905 
" clip-path="url(#p83369a5cc7)" style="fill: none; stroke: #b0b0b0; stroke-opacity: 0.3; stroke-width: 0.5; stroke-linecap: square"/>
     </g>
     <g id="line2d_2">
      <defs>
       <path id="mefa5690a09" d="M 0 0 
L 0 3.5 
" style="stroke: #000000; stroke-width: 0.8"/>
      </defs>
      <g>
       <use xlink:href="#mefa5690a09" x="164.801531" y="385.643748" style="stroke: #000000; stroke-width: 0.8"/>
      </g>
     </g>
     <g id="text_1">
      <!-- −2 -->
      <g transform="translate(160.013953 398.893123) scale(0.09 -0.09)">
       <defs>
        <path id="TimesNewRomanPSMT-2212" d="M 3484 2000 
L 116 2000 
L 116 2256 
L 3484 2256 
L 3484 2000 
z
" transform="scale(0.015625)"/>
        <path id="TimesNewRomanPSMT-32" d="M 2934 816 
L 2638 0 
L 138 0 
L 138 116 
Q 1241 1122 1691 1759 
Q 2141 2397 2141 2925 
Q 2141 3328 1894 3587 
Q 1647 3847 1303 3847 
Q 991 3847 742 3664 
Q 494 3481 375 3128 
L 259 3128 
Q 338 3706 661 4015 
Q 984 4325 1469 4325 
Q 1984 4325 2329 3994 
Q 2675 3663 2675 3213 
Q 2675 2891 2525 2569 
Q 2294 2063 1775 1497 
Q 997 647 803 472 
L 1909 472 
Q 2247 472 2383 497 
Q 2519 522 2628 598 
Q 2738 675 2819 816 
L 2934 816 
z
" transform="scale(0.015625)"/>
       </defs>
       <use xlink:href="#TimesNewRomanPSMT-2212"/>
       <use xlink:href="#TimesNewRomanPSMT-32" transform="translate(56.396484 0)"/>
      </g>
     </g>
    </g>
    <g id="xtick_2">
     <g id="line2d_3">
      <path d="M 284.190531 385.643748 
L 284.190531 17.936905 
" clip-path="url(#p83369a5cc7)" style="fill: none; stroke: #b0b0b0; stroke-opacity: 0.3; stroke-width: 0.5; stroke-linecap: square"/>
     </g>
     <g id="line2d_4">
      <g>
       <use xlink:href="#mefa5690a09" x="284.190531" y="385.643748" style="stroke: #000000; stroke-width: 0.8"/>
      </g>
     </g>
     <g id="text_2">
      <!-- −1 -->
      <g transform="translate(279.402953 398.893123) scale(0.09 -0.09)">
       <defs>
        <path id="TimesNewRomanPSMT-31" d="M 750 3822 
L 1781 4325 
L 1884 4325 
L 1884 747 
Q 1884 391 1914 303 
Q 1944 216 2037 169 
Q 2131 122 2419 116 
L 2419 0 
L 825 0 
L 825 116 
Q 1125 122 1212 167 
Q 1300 213 1334 289 
Q 1369 366 1369 747 
L 1369 3034 
Q 1369 3497 1338 3628 
Q 1316 3728 1258 3775 
Q 1200 3822 1119 3822 
Q 1003 3822 797 3725 
L 750 3822 
z
" transform="scale(0.015625)"/>
       </defs>
       <use xlink:href="#TimesNewRomanPSMT-2212"/>
       <use xlink:href="#TimesNewRomanPSMT-31" transform="translate(56.396484 0)"/>
      </g>
     </g>
    </g>
    <g id="xtick_3">
     <g id="line2d_5">
      <path d="M 403.579531 385.643748 
L 403.579531 17.936905 
" clip-path="url(#p83369a5cc7)" style="fill: none; stroke: #b0b0b0; stroke-opacity: 0.3; stroke-width: 0.5; stroke-linecap: square"/>
     </g>
     <g id="line2d_6">
      <g>
       <use xlink:href="#mefa5690a09" x="403.579531" y="385.643748" style="stroke: #000000; stroke-width: 0.8"/>
      </g>
     </g>
     <g id="text_3">
      <!-- 0 -->
      <g transform="translate(401.329531 398.893123) scale(0.09 -0.09)">
       <defs>
        <path id="TimesNewRomanPSMT-30" d="M 231 2094 
Q 231 2819 450 3342 
Q 669 3866 1031 4122 
Q 1313 4325 1613 4325 
Q 2100 4325 2488 3828 
Q 2972 3213 2972 2159 
Q 2972 1422 2759 906 
Q 2547 391 2217 158 
Q 1888 -75 1581 -75 
Q 975 -75 572 641 
Q 231 1244 231 2094 
z
M 844 2016 
Q 844 1141 1059 588 
Q 1238 122 1591 122 
Q 1759 122 1940 273 
Q 2122 425 2216 781 
Q 2359 1319 2359 2297 
Q 2359 3022 2209 3506 
Q 2097 3866 1919 4016 
Q 1791 4119 1609 4119 
Q 1397 4119 1231 3928 
Q 1006 3669 925 3112 
Q 844 2556 844 2016 
z
" transform="scale(0.015625)"/>
       </defs>
       <use xlink:href="#TimesNewRomanPSMT-30"/>
      </g>
     </g>
    </g>
    <g id="xtick_4">
     <g id="line2d_7">
      <path d="M 522.968531 385.643748 
L 522.968531 17.936905 
" clip-path="url(#p83369a5cc7)" style="fill: none; stroke: #b0b0b0; stroke-opacity: 0.3; stroke-width: 0.5; stroke-linecap: square"/>
     </g>
     <g id="line2d_8">
      <g>
       <use xlink:href="#mefa5690a09" x="522.968531" y="385.643748" style="stroke: #000000; stroke-width: 0.8"/>
      </g>
     </g>
     <g id="text_4">
      <!-- 1 -->
      <g transform="translate(520.718531 398.893123) scale(0.09 -0.09)">
       <use xlink:href="#TimesNewRomanPSMT-31"/>
      </g>
     </g>
    </g>
    <g id="xtick_5">
     <g id="line2d_9">
      <path d="M 642.357531 385.643748 
L 642.357531 17.936905 
" clip-path="url(#p83369a5cc7)" style="fill: none; stroke: #b0b0b0; stroke-opacity: 0.3; stroke-width: 0.5; stroke-linecap: square"/>
     </g>
     <g id="line2d_10">
      <g>
       <use xlink:href="#mefa5690a09" x="642.357531" y="385.643748" style="stroke: #000000; stroke-width: 0.8"/>
      </g>
     </g>
     <g id="text_5">
      <!-- 2 -->
      <g transform="translate(640.107531 398.893123) scale(0.09 -0.09)">
       <use xlink:href="#TimesNewRomanPSMT-32"/>
      </g>
     </g>
    </g>
    <g id="text_6">
     <!-- Cohen's d Effect Size -->
     <g transform="translate(360.695156 411.762029) scale(0.1 -0.1)">
      <defs>
       <path id="TimesNewRomanPSMT-43" d="M 3853 4334 
L 3950 2894 
L 3853 2894 
Q 3659 3541 3300 3825 
Q 2941 4109 2438 4109 
Q 2016 4109 1675 3895 
Q 1334 3681 1139 3212 
Q 944 2744 944 2047 
Q 944 1472 1128 1050 
Q 1313 628 1683 403 
Q 2053 178 2528 178 
Q 2941 178 3256 354 
Q 3572 531 3950 1056 
L 4047 994 
Q 3728 428 3303 165 
Q 2878 -97 2294 -97 
Q 1241 -97 663 684 
Q 231 1266 231 2053 
Q 231 2688 515 3219 
Q 800 3750 1298 4042 
Q 1797 4334 2388 4334 
Q 2847 4334 3294 4109 
Q 3425 4041 3481 4041 
Q 3566 4041 3628 4100 
Q 3709 4184 3744 4334 
L 3853 4334 
z
" transform="scale(0.015625)"/>
       <path id="TimesNewRomanPSMT-6f" d="M 1600 2947 
Q 2250 2947 2644 2453 
Q 2978 2031 2978 1484 
Q 2978 1100 2793 706 
Q 2609 313 2286 112 
Q 1963 -88 1566 -88 
Q 919 -88 538 428 
Q 216 863 216 1403 
Q 216 1797 411 2186 
Q 606 2575 925 2761 
Q 1244 2947 1600 2947 
z
M 1503 2744 
Q 1338 2744 1170 2645 
Q 1003 2547 900 2300 
Q 797 2053 797 1666 
Q 797 1041 1045 587 
Q 1294 134 1700 134 
Q 2003 134 2200 384 
Q 2397 634 2397 1244 
Q 2397 2006 2069 2444 
Q 1847 2744 1503 2744 
z
" transform="scale(0.015625)"/>
       <path id="TimesNewRomanPSMT-68" d="M 1041 4444 
L 1041 2350 
Q 1388 2731 1591 2839 
Q 1794 2947 1997 2947 
Q 2241 2947 2416 2812 
Q 2591 2678 2675 2391 
Q 2734 2191 2734 1659 
L 2734 647 
Q 2734 375 2778 275 
Q 2809 200 2884 156 
Q 2959 113 3159 113 
L 3159 0 
L 1753 0 
L 1753 113 
L 1819 113 
Q 2019 113 2097 173 
Q 2175 234 2206 353 
Q 2216 403 2216 647 
L 2216 1659 
Q 2216 2128 2167 2275 
Q 2119 2422 2012 2495 
Q 1906 2569 1756 2569 
Q 1603 2569 1437 2487 
Q 1272 2406 1041 2159 
L 1041 647 
Q 1041 353 1073 281 
Q 1106 209 1195 161 
Q 1284 113 1503 113 
L 1503 0 
L 84 0 
L 84 113 
Q 275 113 384 172 
Q 447 203 484 290 
Q 522 378 522 647 
L 522 3238 
Q 522 3728 498 3840 
Q 475 3953 426 3993 
Q 378 4034 297 4034 
Q 231 4034 84 3984 
L 41 4094 
L 897 4444 
L 1041 4444 
z
" transform="scale(0.015625)"/>
       <path id="TimesNewRomanPSMT-65" d="M 681 1784 
Q 678 1147 991 784 
Q 1303 422 1725 422 
Q 2006 422 2214 576 
Q 2422 731 2563 1106 
L 2659 1044 
Q 2594 616 2278 264 
Q 1963 -88 1488 -88 
Q 972 -88 605 314 
Q 238 716 238 1394 
Q 238 2128 614 2539 
Q 991 2950 1559 2950 
Q 2041 2950 2350 2633 
Q 2659 2316 2659 1784 
L 681 1784 
z
M 681 1966 
L 2006 1966 
Q 1991 2241 1941 2353 
Q 1863 2528 1708 2628 
Q 1553 2728 1384 2728 
Q 1125 2728 920 2526 
Q 716 2325 681 1966 
z
" transform="scale(0.015625)"/>
       <path id="TimesNewRomanPSMT-6e" d="M 1034 2341 
Q 1538 2947 1994 2947 
Q 2228 2947 2397 2830 
Q 2566 2713 2666 2444 
Q 2734 2256 2734 1869 
L 2734 647 
Q 2734 375 2778 278 
Q 2813 200 2889 156 
Q 2966 113 3172 113 
L 3172 0 
L 1756 0 
L 1756 113 
L 1816 113 
Q 2016 113 2095 173 
Q 2175 234 2206 353 
Q 2219 400 2219 647 
L 2219 1819 
Q 2219 2209 2117 2386 
Q 2016 2563 1775 2563 
Q 1403 2563 1034 2156 
L 1034 647 
Q 1034 356 1069 288 
Q 1113 197 1189 155 
Q 1266 113 1500 113 
L 1500 0 
L 84 0 
L 84 113 
L 147 113 
Q 366 113 442 223 
Q 519 334 519 647 
L 519 1709 
Q 519 2225 495 2337 
Q 472 2450 423 2490 
Q 375 2531 294 2531 
Q 206 2531 84 2484 
L 38 2597 
L 900 2947 
L 1034 2947 
L 1034 2341 
z
" transform="scale(0.015625)"/>
       <path id="TimesNewRomanPSMT-27" d="M 494 2509 
L 325 3434 
Q 253 3819 253 3953 
Q 253 4153 334 4243 
Q 416 4334 556 4334 
Q 697 4334 789 4242 
Q 881 4150 881 4000 
Q 881 3884 800 3431 
L 631 2509 
L 494 2509 
z
" transform="scale(0.015625)"/>
       <path id="TimesNewRomanPSMT-73" d="M 2050 2947 
L 2050 1972 
L 1947 1972 
Q 1828 2431 1642 2597 
Q 1456 2763 1169 2763 
Q 950 2763 815 2647 
Q 681 2531 681 2391 
Q 681 2216 781 2091 
Q 878 1963 1175 1819 
L 1631 1597 
Q 2266 1288 2266 781 
Q 2266 391 1970 151 
Q 1675 -88 1309 -88 
Q 1047 -88 709 6 
Q 606 38 541 38 
Q 469 38 428 -44 
L 325 -44 
L 325 978 
L 428 978 
Q 516 541 762 319 
Q 1009 97 1316 97 
Q 1531 97 1667 223 
Q 1803 350 1803 528 
Q 1803 744 1651 891 
Q 1500 1038 1047 1263 
Q 594 1488 453 1669 
Q 313 1847 313 2119 
Q 313 2472 555 2709 
Q 797 2947 1181 2947 
Q 1350 2947 1591 2875 
Q 1750 2828 1803 2828 
Q 1853 2828 1881 2850 
Q 1909 2872 1947 2947 
L 2050 2947 
z
" transform="scale(0.015625)"/>
       <path id="TimesNewRomanPSMT-20" transform="scale(0.015625)"/>
       <path id="TimesNewRomanPSMT-64" d="M 2222 322 
Q 2013 103 1813 7 
Q 1613 -88 1381 -88 
Q 913 -88 563 304 
Q 213 697 213 1313 
Q 213 1928 600 2439 
Q 988 2950 1597 2950 
Q 1975 2950 2222 2709 
L 2222 3238 
Q 2222 3728 2198 3840 
Q 2175 3953 2125 3993 
Q 2075 4034 2000 4034 
Q 1919 4034 1784 3984 
L 1744 4094 
L 2597 4444 
L 2738 4444 
L 2738 1134 
Q 2738 631 2761 520 
Q 2784 409 2836 365 
Q 2888 322 2956 322 
Q 3041 322 3181 375 
L 3216 266 
L 2366 -88 
L 2222 -88 
L 2222 322 
z
M 2222 541 
L 2222 2016 
Q 2203 2228 2109 2403 
Q 2016 2578 1861 2667 
Q 1706 2756 1559 2756 
Q 1284 2756 1069 2509 
Q 784 2184 784 1559 
Q 784 928 1059 592 
Q 1334 256 1672 256 
Q 1956 256 2222 541 
z
" transform="scale(0.015625)"/>
       <path id="TimesNewRomanPSMT-45" d="M 1338 4006 
L 1338 2331 
L 2269 2331 
Q 2631 2331 2753 2441 
Q 2916 2584 2934 2947 
L 3050 2947 
L 3050 1472 
L 2934 1472 
Q 2891 1781 2847 1869 
Q 2791 1978 2662 2040 
Q 2534 2103 2269 2103 
L 1338 2103 
L 1338 706 
Q 1338 425 1363 364 
Q 1388 303 1450 267 
Q 1513 231 1688 231 
L 2406 231 
Q 2766 231 2928 281 
Q 3091 331 3241 478 
Q 3434 672 3638 1063 
L 3763 1063 
L 3397 0 
L 131 0 
L 131 116 
L 281 116 
Q 431 116 566 188 
Q 666 238 702 338 
Q 738 438 738 747 
L 738 3500 
Q 738 3903 656 3997 
Q 544 4122 281 4122 
L 131 4122 
L 131 4238 
L 3397 4238 
L 3444 3309 
L 3322 3309 
Q 3256 3644 3176 3769 
Q 3097 3894 2941 3959 
Q 2816 4006 2500 4006 
L 1338 4006 
z
" transform="scale(0.015625)"/>
       <path id="TimesNewRomanPSMT-66" d="M 1319 2638 
L 1319 756 
Q 1319 356 1406 250 
Q 1522 113 1716 113 
L 1975 113 
L 1975 0 
L 266 0 
L 266 113 
L 394 113 
Q 519 113 622 175 
Q 725 238 764 344 
Q 803 450 803 756 
L 803 2638 
L 247 2638 
L 247 2863 
L 803 2863 
L 803 3050 
Q 803 3478 940 3775 
Q 1078 4072 1361 4255 
Q 1644 4438 1997 4438 
Q 2325 4438 2600 4225 
Q 2781 4084 2781 3909 
Q 2781 3816 2700 3733 
Q 2619 3650 2525 3650 
Q 2453 3650 2373 3701 
Q 2294 3753 2178 3923 
Q 2063 4094 1966 4153 
Q 1869 4213 1750 4213 
Q 1606 4213 1506 4136 
Q 1406 4059 1362 3898 
Q 1319 3738 1319 3069 
L 1319 2863 
L 2056 2863 
L 2056 2638 
L 1319 2638 
z
" transform="scale(0.015625)"/>
       <path id="TimesNewRomanPSMT-63" d="M 2631 1088 
Q 2516 522 2178 217 
Q 1841 -88 1431 -88 
Q 944 -88 581 321 
Q 219 731 219 1428 
Q 219 2103 620 2525 
Q 1022 2947 1584 2947 
Q 2006 2947 2278 2723 
Q 2550 2500 2550 2259 
Q 2550 2141 2473 2067 
Q 2397 1994 2259 1994 
Q 2075 1994 1981 2113 
Q 1928 2178 1911 2362 
Q 1894 2547 1784 2644 
Q 1675 2738 1481 2738 
Q 1169 2738 978 2506 
Q 725 2200 725 1697 
Q 725 1184 976 792 
Q 1228 400 1656 400 
Q 1963 400 2206 609 
Q 2378 753 2541 1131 
L 2631 1088 
z
" transform="scale(0.015625)"/>
       <path id="TimesNewRomanPSMT-74" d="M 1031 3803 
L 1031 2863 
L 1700 2863 
L 1700 2644 
L 1031 2644 
L 1031 788 
Q 1031 509 1111 412 
Q 1191 316 1316 316 
Q 1419 316 1516 380 
Q 1613 444 1666 569 
L 1788 569 
Q 1678 263 1478 108 
Q 1278 -47 1066 -47 
Q 922 -47 784 33 
Q 647 113 581 261 
Q 516 409 516 719 
L 516 2644 
L 63 2644 
L 63 2747 
Q 234 2816 414 2980 
Q 594 3144 734 3369 
Q 806 3488 934 3803 
L 1031 3803 
z
" transform="scale(0.015625)"/>
       <path id="TimesNewRomanPSMT-53" d="M 2934 4334 
L 2934 2869 
L 2819 2869 
Q 2763 3291 2617 3541 
Q 2472 3791 2203 3937 
Q 1934 4084 1647 4084 
Q 1322 4084 1109 3886 
Q 897 3688 897 3434 
Q 897 3241 1031 3081 
Q 1225 2847 1953 2456 
Q 2547 2138 2764 1967 
Q 2981 1797 3098 1565 
Q 3216 1334 3216 1081 
Q 3216 600 2842 251 
Q 2469 -97 1881 -97 
Q 1697 -97 1534 -69 
Q 1438 -53 1133 45 
Q 828 144 747 144 
Q 669 144 623 97 
Q 578 50 556 -97 
L 441 -97 
L 441 1356 
L 556 1356 
Q 638 900 775 673 
Q 913 447 1195 297 
Q 1478 147 1816 147 
Q 2206 147 2432 353 
Q 2659 559 2659 841 
Q 2659 997 2573 1156 
Q 2488 1316 2306 1453 
Q 2184 1547 1640 1851 
Q 1097 2156 867 2337 
Q 638 2519 519 2737 
Q 400 2956 400 3219 
Q 400 3675 750 4004 
Q 1100 4334 1641 4334 
Q 1978 4334 2356 4169 
Q 2531 4091 2603 4091 
Q 2684 4091 2736 4139 
Q 2788 4188 2819 4334 
L 2934 4334 
z
" transform="scale(0.015625)"/>
       <path id="TimesNewRomanPSMT-69" d="M 928 4444 
Q 1059 4444 1151 4351 
Q 1244 4259 1244 4128 
Q 1244 3997 1151 3903 
Q 1059 3809 928 3809 
Q 797 3809 703 3903 
Q 609 3997 609 4128 
Q 609 4259 701 4351 
Q 794 4444 928 4444 
z
M 1188 2947 
L 1188 647 
Q 1188 378 1227 289 
Q 1266 200 1342 156 
Q 1419 113 1622 113 
L 1622 0 
L 231 0 
L 231 113 
Q 441 113 512 153 
Q 584 194 626 287 
Q 669 381 669 647 
L 669 1750 
Q 669 2216 641 2353 
Q 619 2453 572 2492 
Q 525 2531 444 2531 
Q 356 2531 231 2484 
L 188 2597 
L 1050 2947 
L 1188 2947 
z
" transform="scale(0.015625)"/>
       <path id="TimesNewRomanPSMT-7a" d="M 2688 878 
L 2653 0 
L 128 0 
L 128 113 
L 2028 2644 
L 1091 2644 
Q 788 2644 694 2605 
Q 600 2566 541 2456 
Q 456 2300 444 2069 
L 319 2069 
L 338 2863 
L 2738 2863 
L 2738 2747 
L 819 209 
L 1863 209 
Q 2191 209 2308 264 
Q 2425 319 2497 456 
Q 2547 556 2581 878 
L 2688 878 
z
" transform="scale(0.015625)"/>
      </defs>
      <use xlink:href="#TimesNewRomanPSMT-43"/>
      <use xlink:href="#TimesNewRomanPSMT-6f" transform="translate(66.699219 0)"/>
      <use xlink:href="#TimesNewRomanPSMT-68" transform="translate(116.699219 0)"/>
      <use xlink:href="#TimesNewRomanPSMT-65" transform="translate(166.699219 0)"/>
      <use xlink:href="#TimesNewRomanPSMT-6e" transform="translate(211.083984 0)"/>
      <use xlink:href="#TimesNewRomanPSMT-27" transform="translate(261.083984 0)"/>
      <use xlink:href="#TimesNewRomanPSMT-73" transform="translate(279.101562 0)"/>
      <use xlink:href="#TimesNewRomanPSMT-20" transform="translate(318.017578 0)"/>
      <use xlink:href="#TimesNewRomanPSMT-64" transform="translate(343.017578 0)"/>
      <use xlink:href="#TimesNewRomanPSMT-20" transform="translate(393.017578 0)"/>
      <use xlink:href="#TimesNewRomanPSMT-45" transform="translate(418.017578 0)"/>
      <use xlink:href="#TimesNewRomanPSMT-66" transform="translate(479.101562 0)"/>
      <use xlink:href="#TimesNewRomanPSMT-66" transform="translate(510.652344 0)"/>
      <use xlink:href="#TimesNewRomanPSMT-65" transform="translate(543.953125 0)"/>
      <use xlink:href="#TimesNewRomanPSMT-63" transform="translate(588.337891 0)"/>
      <use xlink:href="#TimesNewRomanPSMT-74" transform="translate(632.722656 0)"/>
      <use xlink:href="#TimesNewRomanPSMT-20" transform="translate(660.505859 0)"/>
      <use xlink:href="#TimesNewRomanPSMT-53" transform="translate(685.505859 0)"/>
      <use xlink:href="#TimesNewRomanPSMT-69" transform="translate(741.121094 0)"/>
      <use xlink:href="#TimesNewRomanPSMT-7a" transform="translate(768.904297 0)"/>
      <use xlink:href="#TimesNewRomanPSMT-65" transform="translate(813.289062 0)"/>
     </g>
    </g>
   </g>
   <g id="matplotlib.axis_2">
    <g id="ytick_1">
     <g id="line2d_11">
      <path d="M 105.107031 357.598311 
L 702.052031 357.598311 
" clip-path="url(#p83369a5cc7)" style="fill: none; stroke: #b0b0b0; stroke-opacity: 0.3; stroke-width: 0.5; stroke-linecap: square"/>
     </g>
     <g id="line2d_12">
      <defs>
       <path id="md1c697b4cf" d="M 0 0 
L -3.5 0 
" style="stroke: #000000; stroke-width: 0.8"/>
      </defs>
      <g>
       <use xlink:href="#md1c697b4cf" x="105.107031" y="357.598311" style="stroke: #000000; stroke-width: 0.8"/>
      </g>
     </g>
     <g id="text_7">
      <!-- Cycle SSIM (A→B→A) -->
      <g transform="translate(8.607656 360.722998) scale(0.09 -0.09)">
       <defs>
        <path id="TimesNewRomanPSMT-79" d="M 38 2863 
L 1372 2863 
L 1372 2747 
L 1306 2747 
Q 1166 2747 1095 2686 
Q 1025 2625 1025 2534 
Q 1025 2413 1128 2197 
L 1825 753 
L 2466 2334 
Q 2519 2463 2519 2588 
Q 2519 2644 2497 2672 
Q 2472 2706 2419 2726 
Q 2366 2747 2231 2747 
L 2231 2863 
L 3163 2863 
L 3163 2747 
Q 3047 2734 2984 2696 
Q 2922 2659 2847 2556 
Q 2819 2513 2741 2316 
L 1575 -541 
Q 1406 -956 1132 -1168 
Q 859 -1381 606 -1381 
Q 422 -1381 303 -1275 
Q 184 -1169 184 -1031 
Q 184 -900 270 -820 
Q 356 -741 506 -741 
Q 609 -741 788 -809 
Q 913 -856 944 -856 
Q 1038 -856 1148 -759 
Q 1259 -663 1372 -384 
L 1575 113 
L 547 2272 
Q 500 2369 397 2513 
Q 319 2622 269 2659 
Q 197 2709 38 2747 
L 38 2863 
z
" transform="scale(0.015625)"/>
        <path id="TimesNewRomanPSMT-6c" d="M 1184 4444 
L 1184 647 
Q 1184 378 1223 290 
Q 1263 203 1344 158 
Q 1425 113 1647 113 
L 1647 0 
L 244 0 
L 244 113 
Q 441 113 512 153 
Q 584 194 625 287 
Q 666 381 666 647 
L 666 3247 
Q 666 3731 644 3842 
Q 622 3953 573 3993 
Q 525 4034 450 4034 
Q 369 4034 244 3984 
L 191 4094 
L 1044 4444 
L 1184 4444 
z
" transform="scale(0.015625)"/>
        <path id="TimesNewRomanPSMT-49" d="M 1975 116 
L 1975 0 
L 159 0 
L 159 116 
L 309 116 
Q 572 116 691 269 
Q 766 369 766 750 
L 766 3488 
Q 766 3809 725 3913 
Q 694 3991 597 4047 
Q 459 4122 309 4122 
L 159 4122 
L 159 4238 
L 1975 4238 
L 1975 4122 
L 1822 4122 
Q 1563 4122 1444 3969 
Q 1366 3869 1366 3488 
L 1366 750 
Q 1366 428 1406 325 
Q 1438 247 1538 191 
Q 1672 116 1822 116 
L 1975 116 
z
" transform="scale(0.015625)"/>
        <path id="TimesNewRomanPSMT-4d" d="M 2619 0 
L 981 3566 
L 981 734 
Q 981 344 1066 247 
Q 1181 116 1431 116 
L 1581 116 
L 1581 0 
L 106 0 
L 106 116 
L 256 116 
Q 525 116 638 278 
Q 706 378 706 734 
L 706 3503 
Q 706 3784 644 3909 
Q 600 4000 483 4061 
Q 366 4122 106 4122 
L 106 4238 
L 1306 4238 
L 2844 922 
L 4356 4238 
L 5556 4238 
L 5556 4122 
L 5409 4122 
Q 5138 4122 5025 3959 
Q 4956 3859 4956 3503 
L 4956 734 
Q 4956 344 5044 247 
Q 5159 116 5409 116 
L 5556 116 
L 5556 0 
L 3756 0 
L 3756 116 
L 3906 116 
Q 4178 116 4288 278 
Q 4356 378 4356 734 
L 4356 3566 
L 2722 0 
L 2619 0 
z
" transform="scale(0.015625)"/>
        <path id="TimesNewRomanPSMT-28" d="M 1988 -1253 
L 1988 -1369 
Q 1516 -1131 1200 -813 
Q 750 -359 506 256 
Q 263 872 263 1534 
Q 263 2503 741 3301 
Q 1219 4100 1988 4444 
L 1988 4313 
Q 1603 4100 1356 3731 
Q 1109 3363 987 2797 
Q 866 2231 866 1616 
Q 866 947 969 400 
Q 1050 -31 1165 -292 
Q 1281 -553 1476 -793 
Q 1672 -1034 1988 -1253 
z
" transform="scale(0.015625)"/>
        <path id="TimesNewRomanPSMT-41" d="M 2928 1419 
L 1288 1419 
L 1000 750 
Q 894 503 894 381 
Q 894 284 986 211 
Q 1078 138 1384 116 
L 1384 0 
L 50 0 
L 50 116 
Q 316 163 394 238 
Q 553 388 747 847 
L 2238 4334 
L 2347 4334 
L 3822 809 
Q 4000 384 4145 257 
Q 4291 131 4550 116 
L 4550 0 
L 2878 0 
L 2878 116 
Q 3131 128 3220 200 
Q 3309 272 3309 375 
Q 3309 513 3184 809 
L 2928 1419 
z
M 2841 1650 
L 2122 3363 
L 1384 1650 
L 2841 1650 
z
" transform="scale(0.015625)"/>
        <path id="TimesNewRomanPSMT-2192" d="M 4859 2738 
Q 5275 2284 5578 2048 
Q 5881 1813 6150 1697 
L 6150 1556 
Q 5841 1406 5550 1173 
Q 5259 941 4856 491 
L 4616 491 
Q 4909 1119 5231 1456 
L 247 1456 
L 247 1772 
L 5231 1772 
Q 4994 2075 4900 2222 
Q 4806 2369 4622 2738 
L 4859 2738 
z
" transform="scale(0.015625)"/>
        <path id="TimesNewRomanPSMT-42" d="M 2956 2163 
Q 3397 2069 3616 1863 
Q 3919 1575 3919 1159 
Q 3919 844 3719 555 
Q 3519 266 3170 133 
Q 2822 0 2106 0 
L 106 0 
L 106 116 
L 266 116 
Q 531 116 647 284 
Q 719 394 719 750 
L 719 3488 
Q 719 3881 628 3984 
Q 506 4122 266 4122 
L 106 4122 
L 106 4238 
L 1938 4238 
Q 2450 4238 2759 4163 
Q 3228 4050 3475 3764 
Q 3722 3478 3722 3106 
Q 3722 2788 3528 2536 
Q 3334 2284 2956 2163 
z
M 1319 2331 
Q 1434 2309 1582 2298 
Q 1731 2288 1909 2288 
Q 2366 2288 2595 2386 
Q 2825 2484 2947 2687 
Q 3069 2891 3069 3131 
Q 3069 3503 2766 3765 
Q 2463 4028 1881 4028 
Q 1569 4028 1319 3959 
L 1319 2331 
z
M 1319 306 
Q 1681 222 2034 222 
Q 2600 222 2897 476 
Q 3194 731 3194 1106 
Q 3194 1353 3059 1581 
Q 2925 1809 2622 1940 
Q 2319 2072 1872 2072 
Q 1678 2072 1540 2065 
Q 1403 2059 1319 2044 
L 1319 306 
z
" transform="scale(0.015625)"/>
        <path id="TimesNewRomanPSMT-29" d="M 144 4313 
L 144 4444 
Q 619 4209 934 3891 
Q 1381 3434 1625 2820 
Q 1869 2206 1869 1541 
Q 1869 572 1392 -226 
Q 916 -1025 144 -1369 
L 144 -1253 
Q 528 -1038 776 -670 
Q 1025 -303 1145 264 
Q 1266 831 1266 1447 
Q 1266 2113 1163 2663 
Q 1084 3094 967 3353 
Q 850 3613 656 3853 
Q 463 4094 144 4313 
z
" transform="scale(0.015625)"/>
       </defs>
       <use xlink:href="#TimesNewRomanPSMT-43"/>
       <use xlink:href="#TimesNewRomanPSMT-79" transform="translate(66.699219 0)"/>
       <use xlink:href="#TimesNewRomanPSMT-63" transform="translate(116.699219 0)"/>
       <use xlink:href="#TimesNewRomanPSMT-6c" transform="translate(161.083984 0)"/>
       <use xlink:href="#TimesNewRomanPSMT-65" transform="translate(188.867188 0)"/>
       <use xlink:href="#TimesNewRomanPSMT-20" transform="translate(233.251953 0)"/>
       <use xlink:href="#TimesNewRomanPSMT-53" transform="translate(258.251953 0)"/>
       <use xlink:href="#TimesNewRomanPSMT-53" transform="translate(313.867188 0)"/>
       <use xlink:href="#TimesNewRomanPSMT-49" transform="translate(369.482422 0)"/>
       <use xlink:href="#TimesNewRomanPSMT-4d" transform="translate(402.783203 0)"/>
       <use xlink:href="#TimesNewRomanPSMT-20" transform="translate(491.699219 0)"/>
       <use xlink:href="#TimesNewRomanPSMT-28" transform="translate(516.699219 0)"/>
       <use xlink:href="#TimesNewRomanPSMT-41" transform="translate(550 0)"/>
       <use xlink:href="#TimesNewRomanPSMT-2192" transform="translate(622.216797 0)"/>
       <use xlink:href="#TimesNewRomanPSMT-42" transform="translate(722.216797 0)"/>
       <use xlink:href="#TimesNewRomanPSMT-2192" transform="translate(788.916016 0)"/>
       <use xlink:href="#TimesNewRomanPSMT-41" transform="translate(888.916016 0)"/>
       <use xlink:href="#TimesNewRomanPSMT-29" transform="translate(961.132812 0)"/>
      </g>
     </g>
    </g>
    <g id="ytick_2">
     <g id="line2d_13">
      <path d="M 105.107031 329.269586 
L 702.052031 329.269586 
" clip-path="url(#p83369a5cc7)" style="fill: none; stroke: #b0b0b0; stroke-opacity: 0.3; stroke-width: 0.5; stroke-linecap: square"/>
     </g>
     <g id="line2d_14">
      <g>
       <use xlink:href="#md1c697b4cf" x="105.107031" y="329.269586" style="stroke: #000000; stroke-width: 0.8"/>
      </g>
     </g>
     <g id="text_8">
      <!-- Cycle SSIM (B→A→B) -->
      <g transform="translate(9.104063 332.394274) scale(0.09 -0.09)">
       <use xlink:href="#TimesNewRomanPSMT-43"/>
       <use xlink:href="#TimesNewRomanPSMT-79" transform="translate(66.699219 0)"/>
       <use xlink:href="#TimesNewRomanPSMT-63" transform="translate(116.699219 0)"/>
       <use xlink:href="#TimesNewRomanPSMT-6c" transform="translate(161.083984 0)"/>
       <use xlink:href="#TimesNewRomanPSMT-65" transform="translate(188.867188 0)"/>
       <use xlink:href="#TimesNewRomanPSMT-20" transform="translate(233.251953 0)"/>
       <use xlink:href="#TimesNewRomanPSMT-53" transform="translate(258.251953 0)"/>
       <use xlink:href="#TimesNewRomanPSMT-53" transform="translate(313.867188 0)"/>
       <use xlink:href="#TimesNewRomanPSMT-49" transform="translate(369.482422 0)"/>
       <use xlink:href="#TimesNewRomanPSMT-4d" transform="translate(402.783203 0)"/>
       <use xlink:href="#TimesNewRomanPSMT-20" transform="translate(491.699219 0)"/>
       <use xlink:href="#TimesNewRomanPSMT-28" transform="translate(516.699219 0)"/>
       <use xlink:href="#TimesNewRomanPSMT-42" transform="translate(550 0)"/>
       <use xlink:href="#TimesNewRomanPSMT-2192" transform="translate(616.699219 0)"/>
       <use xlink:href="#TimesNewRomanPSMT-41" transform="translate(716.699219 0)"/>
       <use xlink:href="#TimesNewRomanPSMT-2192" transform="translate(788.916016 0)"/>
       <use xlink:href="#TimesNewRomanPSMT-42" transform="translate(888.916016 0)"/>
       <use xlink:href="#TimesNewRomanPSMT-29" transform="translate(955.615234 0)"/>
      </g>
     </g>
    </g>
    <g id="ytick_3">
     <g id="line2d_15">
      <path d="M 105.107031 300.940862 
L 702.052031 300.940862 
" clip-path="url(#p83369a5cc7)" style="fill: none; stroke: #b0b0b0; stroke-opacity: 0.3; stroke-width: 0.5; stroke-linecap: square"/>
     </g>
     <g id="line2d_16">
      <g>
       <use xlink:href="#md1c697b4cf" x="105.107031" y="300.940862" style="stroke: #000000; stroke-width: 0.8"/>
      </g>
     </g>
     <g id="text_9">
      <!-- Cycle PSNR (A→B→A) -->
      <g transform="translate(7.104375 304.065549) scale(0.09 -0.09)">
       <defs>
        <path id="TimesNewRomanPSMT-50" d="M 1313 1984 
L 1313 750 
Q 1313 350 1400 253 
Q 1519 116 1759 116 
L 1922 116 
L 1922 0 
L 106 0 
L 106 116 
L 266 116 
Q 534 116 650 291 
Q 713 388 713 750 
L 713 3488 
Q 713 3888 628 3984 
Q 506 4122 266 4122 
L 106 4122 
L 106 4238 
L 1659 4238 
Q 2228 4238 2556 4120 
Q 2884 4003 3109 3725 
Q 3334 3447 3334 3066 
Q 3334 2547 2992 2222 
Q 2650 1897 2025 1897 
Q 1872 1897 1694 1919 
Q 1516 1941 1313 1984 
z
M 1313 2163 
Q 1478 2131 1606 2115 
Q 1734 2100 1825 2100 
Q 2150 2100 2386 2351 
Q 2622 2603 2622 3003 
Q 2622 3278 2509 3514 
Q 2397 3750 2190 3867 
Q 1984 3984 1722 3984 
Q 1563 3984 1313 3925 
L 1313 2163 
z
" transform="scale(0.015625)"/>
        <path id="TimesNewRomanPSMT-4e" d="M -84 4238 
L 1066 4238 
L 3656 1059 
L 3656 3503 
Q 3656 3894 3569 3991 
Q 3453 4122 3203 4122 
L 3056 4122 
L 3056 4238 
L 4531 4238 
L 4531 4122 
L 4381 4122 
Q 4113 4122 4000 3959 
Q 3931 3859 3931 3503 
L 3931 -69 
L 3819 -69 
L 1025 3344 
L 1025 734 
Q 1025 344 1109 247 
Q 1228 116 1475 116 
L 1625 116 
L 1625 0 
L 150 0 
L 150 116 
L 297 116 
Q 569 116 681 278 
Q 750 378 750 734 
L 750 3681 
Q 566 3897 470 3965 
Q 375 4034 191 4094 
Q 100 4122 -84 4122 
L -84 4238 
z
" transform="scale(0.015625)"/>
        <path id="TimesNewRomanPSMT-52" d="M 4325 0 
L 3194 0 
L 1759 1981 
Q 1600 1975 1500 1975 
Q 1459 1975 1412 1976 
Q 1366 1978 1316 1981 
L 1316 750 
Q 1316 350 1403 253 
Q 1522 116 1759 116 
L 1925 116 
L 1925 0 
L 109 0 
L 109 116 
L 269 116 
Q 538 116 653 291 
Q 719 388 719 750 
L 719 3488 
Q 719 3888 631 3984 
Q 509 4122 269 4122 
L 109 4122 
L 109 4238 
L 1653 4238 
Q 2328 4238 2648 4139 
Q 2969 4041 3192 3777 
Q 3416 3513 3416 3147 
Q 3416 2756 3161 2468 
Q 2906 2181 2372 2063 
L 3247 847 
Q 3547 428 3762 290 
Q 3978 153 4325 116 
L 4325 0 
z
M 1316 2178 
Q 1375 2178 1419 2176 
Q 1463 2175 1491 2175 
Q 2097 2175 2405 2437 
Q 2713 2700 2713 3106 
Q 2713 3503 2464 3751 
Q 2216 4000 1806 4000 
Q 1625 4000 1316 3941 
L 1316 2178 
z
" transform="scale(0.015625)"/>
       </defs>
       <use xlink:href="#TimesNewRomanPSMT-43"/>
       <use xlink:href="#TimesNewRomanPSMT-79" transform="translate(66.699219 0)"/>
       <use xlink:href="#TimesNewRomanPSMT-63" transform="translate(116.699219 0)"/>
       <use xlink:href="#TimesNewRomanPSMT-6c" transform="translate(161.083984 0)"/>
       <use xlink:href="#TimesNewRomanPSMT-65" transform="translate(188.867188 0)"/>
       <use xlink:href="#TimesNewRomanPSMT-20" transform="translate(233.251953 0)"/>
       <use xlink:href="#TimesNewRomanPSMT-50" transform="translate(258.251953 0)"/>
       <use xlink:href="#TimesNewRomanPSMT-53" transform="translate(313.867188 0)"/>
       <use xlink:href="#TimesNewRomanPSMT-4e" transform="translate(369.482422 0)"/>
       <use xlink:href="#TimesNewRomanPSMT-52" transform="translate(441.699219 0)"/>
       <use xlink:href="#TimesNewRomanPSMT-20" transform="translate(508.398438 0)"/>
       <use xlink:href="#TimesNewRomanPSMT-28" transform="translate(533.398438 0)"/>
       <use xlink:href="#TimesNewRomanPSMT-41" transform="translate(566.699219 0)"/>
       <use xlink:href="#TimesNewRomanPSMT-2192" transform="translate(638.916016 0)"/>
       <use xlink:href="#TimesNewRomanPSMT-42" transform="translate(738.916016 0)"/>
       <use xlink:href="#TimesNewRomanPSMT-2192" transform="translate(805.615234 0)"/>
       <use xlink:href="#TimesNewRomanPSMT-41" transform="translate(905.615234 0)"/>
       <use xlink:href="#TimesNewRomanPSMT-29" transform="translate(977.832031 0)"/>
      </g>
     </g>
    </g>
    <g id="ytick_4">
     <g id="line2d_17">
      <path d="M 105.107031 272.612137 
L 702.052031 272.612137 
" clip-path="url(#p83369a5cc7)" style="fill: none; stroke: #b0b0b0; stroke-opacity: 0.3; stroke-width: 0.5; stroke-linecap: square"/>
     </g>
     <g id="line2d_18">
      <g>
       <use xlink:href="#md1c697b4cf" x="105.107031" y="272.612137" style="stroke: #000000; stroke-width: 0.8"/>
      </g>
     </g>
     <g id="text_10">
      <!-- Cycle PSNR (B→A→B) -->
      <g transform="translate(7.600781 275.736825) scale(0.09 -0.09)">
       <use xlink:href="#TimesNewRomanPSMT-43"/>
       <use xlink:href="#TimesNewRomanPSMT-79" transform="translate(66.699219 0)"/>
       <use xlink:href="#TimesNewRomanPSMT-63" transform="translate(116.699219 0)"/>
       <use xlink:href="#TimesNewRomanPSMT-6c" transform="translate(161.083984 0)"/>
       <use xlink:href="#TimesNewRomanPSMT-65" transform="translate(188.867188 0)"/>
       <use xlink:href="#TimesNewRomanPSMT-20" transform="translate(233.251953 0)"/>
       <use xlink:href="#TimesNewRomanPSMT-50" transform="translate(258.251953 0)"/>
       <use xlink:href="#TimesNewRomanPSMT-53" transform="translate(313.867188 0)"/>
       <use xlink:href="#TimesNewRomanPSMT-4e" transform="translate(369.482422 0)"/>
       <use xlink:href="#TimesNewRomanPSMT-52" transform="translate(441.699219 0)"/>
       <use xlink:href="#TimesNewRomanPSMT-20" transform="translate(508.398438 0)"/>
       <use xlink:href="#TimesNewRomanPSMT-28" transform="translate(533.398438 0)"/>
       <use xlink:href="#TimesNewRomanPSMT-42" transform="translate(566.699219 0)"/>
       <use xlink:href="#TimesNewRomanPSMT-2192" transform="translate(633.398438 0)"/>
       <use xlink:href="#TimesNewRomanPSMT-41" transform="translate(733.398438 0)"/>
       <use xlink:href="#TimesNewRomanPSMT-2192" transform="translate(805.615234 0)"/>
       <use xlink:href="#TimesNewRomanPSMT-42" transform="translate(905.615234 0)"/>
       <use xlink:href="#TimesNewRomanPSMT-29" transform="translate(972.314453 0)"/>
      </g>
     </g>
    </g>
    <g id="ytick_5">
     <g id="line2d_19">
      <path d="M 105.107031 244.283413 
L 702.052031 244.283413 
" clip-path="url(#p83369a5cc7)" style="fill: none; stroke: #b0b0b0; stroke-opacity: 0.3; stroke-width: 0.5; stroke-linecap: square"/>
     </g>
     <g id="line2d_20">
      <g>
       <use xlink:href="#md1c697b4cf" x="105.107031" y="244.283413" style="stroke: #000000; stroke-width: 0.8"/>
      </g>
     </g>
     <g id="text_11">
      <!-- T1 SSIM (A→B→A) -->
      <g transform="translate(19.604531 247.4081) scale(0.09 -0.09)">
       <defs>
        <path id="TimesNewRomanPSMT-54" d="M 3703 4238 
L 3750 3244 
L 3631 3244 
Q 3597 3506 3538 3619 
Q 3441 3800 3280 3886 
Q 3119 3972 2856 3972 
L 2259 3972 
L 2259 734 
Q 2259 344 2344 247 
Q 2463 116 2709 116 
L 2856 116 
L 2856 0 
L 1059 0 
L 1059 116 
L 1209 116 
Q 1478 116 1591 278 
Q 1659 378 1659 734 
L 1659 3972 
L 1150 3972 
Q 853 3972 728 3928 
Q 566 3869 450 3700 
Q 334 3531 313 3244 
L 194 3244 
L 244 4238 
L 3703 4238 
z
" transform="scale(0.015625)"/>
       </defs>
       <use xlink:href="#TimesNewRomanPSMT-54"/>
       <use xlink:href="#TimesNewRomanPSMT-31" transform="translate(61.083984 0)"/>
       <use xlink:href="#TimesNewRomanPSMT-20" transform="translate(111.083984 0)"/>
       <use xlink:href="#TimesNewRomanPSMT-53" transform="translate(136.083984 0)"/>
       <use xlink:href="#TimesNewRomanPSMT-53" transform="translate(191.699219 0)"/>
       <use xlink:href="#TimesNewRomanPSMT-49" transform="translate(247.314453 0)"/>
       <use xlink:href="#TimesNewRomanPSMT-4d" transform="translate(280.615234 0)"/>
       <use xlink:href="#TimesNewRomanPSMT-20" transform="translate(369.53125 0)"/>
       <use xlink:href="#TimesNewRomanPSMT-28" transform="translate(394.53125 0)"/>
       <use xlink:href="#TimesNewRomanPSMT-41" transform="translate(427.832031 0)"/>
       <use xlink:href="#TimesNewRomanPSMT-2192" transform="translate(500.048828 0)"/>
       <use xlink:href="#TimesNewRomanPSMT-42" transform="translate(600.048828 0)"/>
       <use xlink:href="#TimesNewRomanPSMT-2192" transform="translate(666.748047 0)"/>
       <use xlink:href="#TimesNewRomanPSMT-41" transform="translate(766.748047 0)"/>
       <use xlink:href="#TimesNewRomanPSMT-29" transform="translate(838.964844 0)"/>
      </g>
     </g>
    </g>
    <g id="ytick_6">
     <g id="line2d_21">
      <path d="M 105.107031 215.954688 
L 702.052031 215.954688 
" clip-path="url(#p83369a5cc7)" style="fill: none; stroke: #b0b0b0; stroke-opacity: 0.3; stroke-width: 0.5; stroke-linecap: square"/>
     </g>
     <g id="line2d_22">
      <g>
       <use xlink:href="#md1c697b4cf" x="105.107031" y="215.954688" style="stroke: #000000; stroke-width: 0.8"/>
      </g>
     </g>
     <g id="text_12">
      <!-- T1 SSIM (B→A→B) -->
      <g transform="translate(20.100938 219.079376) scale(0.09 -0.09)">
       <use xlink:href="#TimesNewRomanPSMT-54"/>
       <use xlink:href="#TimesNewRomanPSMT-31" transform="translate(61.083984 0)"/>
       <use xlink:href="#TimesNewRomanPSMT-20" transform="translate(111.083984 0)"/>
       <use xlink:href="#TimesNewRomanPSMT-53" transform="translate(136.083984 0)"/>
       <use xlink:href="#TimesNewRomanPSMT-53" transform="translate(191.699219 0)"/>
       <use xlink:href="#TimesNewRomanPSMT-49" transform="translate(247.314453 0)"/>
       <use xlink:href="#TimesNewRomanPSMT-4d" transform="translate(280.615234 0)"/>
       <use xlink:href="#TimesNewRomanPSMT-20" transform="translate(369.53125 0)"/>
       <use xlink:href="#TimesNewRomanPSMT-28" transform="translate(394.53125 0)"/>
       <use xlink:href="#TimesNewRomanPSMT-42" transform="translate(427.832031 0)"/>
       <use xlink:href="#TimesNewRomanPSMT-2192" transform="translate(494.53125 0)"/>
       <use xlink:href="#TimesNewRomanPSMT-41" transform="translate(594.53125 0)"/>
       <use xlink:href="#TimesNewRomanPSMT-2192" transform="translate(666.748047 0)"/>
       <use xlink:href="#TimesNewRomanPSMT-42" transform="translate(766.748047 0)"/>
       <use xlink:href="#TimesNewRomanPSMT-29" transform="translate(833.447266 0)"/>
      </g>
     </g>
    </g>
    <g id="ytick_7">
     <g id="line2d_23">
      <path d="M 105.107031 187.625964 
L 702.052031 187.625964 
" clip-path="url(#p83369a5cc7)" style="fill: none; stroke: #b0b0b0; stroke-opacity: 0.3; stroke-width: 0.5; stroke-linecap: square"/>
     </g>
     <g id="line2d_24">
      <g>
       <use xlink:href="#md1c697b4cf" x="105.107031" y="187.625964" style="stroke: #000000; stroke-width: 0.8"/>
      </g>
     </g>
     <g id="text_13">
      <!-- T1CE SSIM (A→B→A) -->
      <g transform="translate(8.104219 190.750651) scale(0.09 -0.09)">
       <use xlink:href="#TimesNewRomanPSMT-54"/>
       <use xlink:href="#TimesNewRomanPSMT-31" transform="translate(61.083984 0)"/>
       <use xlink:href="#TimesNewRomanPSMT-43" transform="translate(111.083984 0)"/>
       <use xlink:href="#TimesNewRomanPSMT-45" transform="translate(177.783203 0)"/>
       <use xlink:href="#TimesNewRomanPSMT-20" transform="translate(238.867188 0)"/>
       <use xlink:href="#TimesNewRomanPSMT-53" transform="translate(263.867188 0)"/>
       <use xlink:href="#TimesNewRomanPSMT-53" transform="translate(319.482422 0)"/>
       <use xlink:href="#TimesNewRomanPSMT-49" transform="translate(375.097656 0)"/>
       <use xlink:href="#TimesNewRomanPSMT-4d" transform="translate(408.398438 0)"/>
       <use xlink:href="#TimesNewRomanPSMT-20" transform="translate(497.314453 0)"/>
       <use xlink:href="#TimesNewRomanPSMT-28" transform="translate(522.314453 0)"/>
       <use xlink:href="#TimesNewRomanPSMT-41" transform="translate(555.615234 0)"/>
       <use xlink:href="#TimesNewRomanPSMT-2192" transform="translate(627.832031 0)"/>
       <use xlink:href="#TimesNewRomanPSMT-42" transform="translate(727.832031 0)"/>
       <use xlink:href="#TimesNewRomanPSMT-2192" transform="translate(794.53125 0)"/>
       <use xlink:href="#TimesNewRomanPSMT-41" transform="translate(894.53125 0)"/>
       <use xlink:href="#TimesNewRomanPSMT-29" transform="translate(966.748047 0)"/>
      </g>
     </g>
    </g>
    <g id="ytick_8">
     <g id="line2d_25">
      <path d="M 105.107031 159.29724 
L 702.052031 159.29724 
" clip-path="url(#p83369a5cc7)" style="fill: none; stroke: #b0b0b0; stroke-opacity: 0.3; stroke-width: 0.5; stroke-linecap: square"/>
     </g>
     <g id="line2d_26">
      <g>
       <use xlink:href="#md1c697b4cf" x="105.107031" y="159.29724" style="stroke: #000000; stroke-width: 0.8"/>
      </g>
     </g>
     <g id="text_14">
      <!-- T1CE SSIM (B→A→B) -->
      <g transform="translate(8.600625 162.421927) scale(0.09 -0.09)">
       <use xlink:href="#TimesNewRomanPSMT-54"/>
       <use xlink:href="#TimesNewRomanPSMT-31" transform="translate(61.083984 0)"/>
       <use xlink:href="#TimesNewRomanPSMT-43" transform="translate(111.083984 0)"/>
       <use xlink:href="#TimesNewRomanPSMT-45" transform="translate(177.783203 0)"/>
       <use xlink:href="#TimesNewRomanPSMT-20" transform="translate(238.867188 0)"/>
       <use xlink:href="#TimesNewRomanPSMT-53" transform="translate(263.867188 0)"/>
       <use xlink:href="#TimesNewRomanPSMT-53" transform="translate(319.482422 0)"/>
       <use xlink:href="#TimesNewRomanPSMT-49" transform="translate(375.097656 0)"/>
       <use xlink:href="#TimesNewRomanPSMT-4d" transform="translate(408.398438 0)"/>
       <use xlink:href="#TimesNewRomanPSMT-20" transform="translate(497.314453 0)"/>
       <use xlink:href="#TimesNewRomanPSMT-28" transform="translate(522.314453 0)"/>
       <use xlink:href="#TimesNewRomanPSMT-42" transform="translate(555.615234 0)"/>
       <use xlink:href="#TimesNewRomanPSMT-2192" transform="translate(622.314453 0)"/>
       <use xlink:href="#TimesNewRomanPSMT-41" transform="translate(722.314453 0)"/>
       <use xlink:href="#TimesNewRomanPSMT-2192" transform="translate(794.53125 0)"/>
       <use xlink:href="#TimesNewRomanPSMT-42" transform="translate(894.53125 0)"/>
       <use xlink:href="#TimesNewRomanPSMT-29" transform="translate(961.230469 0)"/>
      </g>
     </g>
    </g>
    <g id="ytick_9">
     <g id="line2d_27">
      <path d="M 105.107031 130.968515 
L 702.052031 130.968515 
" clip-path="url(#p83369a5cc7)" style="fill: none; stroke: #b0b0b0; stroke-opacity: 0.3; stroke-width: 0.5; stroke-linecap: square"/>
     </g>
     <g id="line2d_28">
      <g>
       <use xlink:href="#md1c697b4cf" x="105.107031" y="130.968515" style="stroke: #000000; stroke-width: 0.8"/>
      </g>
     </g>
     <g id="text_15">
      <!-- T2 SSIM (A→B→A) -->
      <g transform="translate(19.604531 134.093203) scale(0.09 -0.09)">
       <use xlink:href="#TimesNewRomanPSMT-54"/>
       <use xlink:href="#TimesNewRomanPSMT-32" transform="translate(61.083984 0)"/>
       <use xlink:href="#TimesNewRomanPSMT-20" transform="translate(111.083984 0)"/>
       <use xlink:href="#TimesNewRomanPSMT-53" transform="translate(136.083984 0)"/>
       <use xlink:href="#TimesNewRomanPSMT-53" transform="translate(191.699219 0)"/>
       <use xlink:href="#TimesNewRomanPSMT-49" transform="translate(247.314453 0)"/>
       <use xlink:href="#TimesNewRomanPSMT-4d" transform="translate(280.615234 0)"/>
       <use xlink:href="#TimesNewRomanPSMT-20" transform="translate(369.53125 0)"/>
       <use xlink:href="#TimesNewRomanPSMT-28" transform="translate(394.53125 0)"/>
       <use xlink:href="#TimesNewRomanPSMT-41" transform="translate(427.832031 0)"/>
       <use xlink:href="#TimesNewRomanPSMT-2192" transform="translate(500.048828 0)"/>
       <use xlink:href="#TimesNewRomanPSMT-42" transform="translate(600.048828 0)"/>
       <use xlink:href="#TimesNewRomanPSMT-2192" transform="translate(666.748047 0)"/>
       <use xlink:href="#TimesNewRomanPSMT-41" transform="translate(766.748047 0)"/>
       <use xlink:href="#TimesNewRomanPSMT-29" transform="translate(838.964844 0)"/>
      </g>
     </g>
    </g>
    <g id="ytick_10">
     <g id="line2d_29">
      <path d="M 105.107031 102.639791 
L 702.052031 102.639791 
" clip-path="url(#p83369a5cc7)" style="fill: none; stroke: #b0b0b0; stroke-opacity: 0.3; stroke-width: 0.5; stroke-linecap: square"/>
     </g>
     <g id="line2d_30">
      <g>
       <use xlink:href="#md1c697b4cf" x="105.107031" y="102.639791" style="stroke: #000000; stroke-width: 0.8"/>
      </g>
     </g>
     <g id="text_16">
      <!-- T2 SSIM (B→A→B) -->
      <g transform="translate(20.100938 105.764478) scale(0.09 -0.09)">
       <use xlink:href="#TimesNewRomanPSMT-54"/>
       <use xlink:href="#TimesNewRomanPSMT-32" transform="translate(61.083984 0)"/>
       <use xlink:href="#TimesNewRomanPSMT-20" transform="translate(111.083984 0)"/>
       <use xlink:href="#TimesNewRomanPSMT-53" transform="translate(136.083984 0)"/>
       <use xlink:href="#TimesNewRomanPSMT-53" transform="translate(191.699219 0)"/>
       <use xlink:href="#TimesNewRomanPSMT-49" transform="translate(247.314453 0)"/>
       <use xlink:href="#TimesNewRomanPSMT-4d" transform="translate(280.615234 0)"/>
       <use xlink:href="#TimesNewRomanPSMT-20" transform="translate(369.53125 0)"/>
       <use xlink:href="#TimesNewRomanPSMT-28" transform="translate(394.53125 0)"/>
       <use xlink:href="#TimesNewRomanPSMT-42" transform="translate(427.832031 0)"/>
       <use xlink:href="#TimesNewRomanPSMT-2192" transform="translate(494.53125 0)"/>
       <use xlink:href="#TimesNewRomanPSMT-41" transform="translate(594.53125 0)"/>
       <use xlink:href="#TimesNewRomanPSMT-2192" transform="translate(666.748047 0)"/>
       <use xlink:href="#TimesNewRomanPSMT-42" transform="translate(766.748047 0)"/>
       <use xlink:href="#TimesNewRomanPSMT-29" transform="translate(833.447266 0)"/>
      </g>
     </g>
    </g>
    <g id="ytick_11">
     <g id="line2d_31">
      <path d="M 105.107031 74.311066 
L 702.052031 74.311066 
" clip-path="url(#p83369a5cc7)" style="fill: none; stroke: #b0b0b0; stroke-opacity: 0.3; stroke-width: 0.5; stroke-linecap: square"/>
     </g>
     <g id="line2d_32">
      <g>
       <use xlink:href="#md1c697b4cf" x="105.107031" y="74.311066" style="stroke: #000000; stroke-width: 0.8"/>
      </g>
     </g>
     <g id="text_17">
      <!-- FLAIR SSIM (A→B→A) -->
      <g transform="translate(3.6 77.435754) scale(0.09 -0.09)">
       <defs>
        <path id="TimesNewRomanPSMT-46" d="M 1309 4006 
L 1309 2341 
L 2081 2341 
Q 2347 2341 2470 2458 
Q 2594 2575 2634 2922 
L 2750 2922 
L 2750 1488 
L 2634 1488 
Q 2631 1734 2570 1850 
Q 2509 1966 2401 2023 
Q 2294 2081 2081 2081 
L 1309 2081 
L 1309 750 
Q 1309 428 1350 325 
Q 1381 247 1481 191 
Q 1619 116 1769 116 
L 1922 116 
L 1922 0 
L 103 0 
L 103 116 
L 253 116 
Q 516 116 634 269 
Q 709 369 709 750 
L 709 3488 
Q 709 3809 669 3913 
Q 638 3991 541 4047 
Q 406 4122 253 4122 
L 103 4122 
L 103 4238 
L 3256 4238 
L 3297 3306 
L 3188 3306 
Q 3106 3603 2998 3742 
Q 2891 3881 2733 3943 
Q 2575 4006 2244 4006 
L 1309 4006 
z
" transform="scale(0.015625)"/>
        <path id="TimesNewRomanPSMT-4c" d="M 3669 1172 
L 3772 1150 
L 3409 0 
L 128 0 
L 128 116 
L 288 116 
Q 556 116 672 291 
Q 738 391 738 753 
L 738 3488 
Q 738 3884 650 3984 
Q 528 4122 288 4122 
L 128 4122 
L 128 4238 
L 2047 4238 
L 2047 4122 
Q 1709 4125 1573 4059 
Q 1438 3994 1388 3894 
Q 1338 3794 1338 3416 
L 1338 753 
Q 1338 494 1388 397 
Q 1425 331 1503 300 
Q 1581 269 1991 269 
L 2300 269 
Q 2788 269 2984 341 
Q 3181 413 3343 595 
Q 3506 778 3669 1172 
z
" transform="scale(0.015625)"/>
       </defs>
       <use xlink:href="#TimesNewRomanPSMT-46"/>
       <use xlink:href="#TimesNewRomanPSMT-4c" transform="translate(55.615234 0)"/>
       <use xlink:href="#TimesNewRomanPSMT-41" transform="translate(116.699219 0)"/>
       <use xlink:href="#TimesNewRomanPSMT-49" transform="translate(188.916016 0)"/>
       <use xlink:href="#TimesNewRomanPSMT-52" transform="translate(222.216797 0)"/>
       <use xlink:href="#TimesNewRomanPSMT-20" transform="translate(288.916016 0)"/>
       <use xlink:href="#TimesNewRomanPSMT-53" transform="translate(313.916016 0)"/>
       <use xlink:href="#TimesNewRomanPSMT-53" transform="translate(369.53125 0)"/>
       <use xlink:href="#TimesNewRomanPSMT-49" transform="translate(425.146484 0)"/>
       <use xlink:href="#TimesNewRomanPSMT-4d" transform="translate(458.447266 0)"/>
       <use xlink:href="#TimesNewRomanPSMT-20" transform="translate(547.363281 0)"/>
       <use xlink:href="#TimesNewRomanPSMT-28" transform="translate(572.363281 0)"/>
       <use xlink:href="#TimesNewRomanPSMT-41" transform="translate(605.664062 0)"/>
       <use xlink:href="#TimesNewRomanPSMT-2192" transform="translate(677.880859 0)"/>
       <use xlink:href="#TimesNewRomanPSMT-42" transform="translate(777.880859 0)"/>
       <use xlink:href="#TimesNewRomanPSMT-2192" transform="translate(844.580078 0)"/>
       <use xlink:href="#TimesNewRomanPSMT-41" transform="translate(944.580078 0)"/>
       <use xlink:href="#TimesNewRomanPSMT-29" transform="translate(1016.796875 0)"/>
      </g>
     </g>
    </g>
    <g id="ytick_12">
     <g id="line2d_33">
      <path d="M 105.107031 45.982342 
L 702.052031 45.982342 
" clip-path="url(#p83369a5cc7)" style="fill: none; stroke: #b0b0b0; stroke-opacity: 0.3; stroke-width: 0.5; stroke-linecap: square"/>
     </g>
     <g id="line2d_34">
      <g>
       <use xlink:href="#md1c697b4cf" x="105.107031" y="45.982342" style="stroke: #000000; stroke-width: 0.8"/>
      </g>
     </g>
     <g id="text_18">
      <!-- FLAIR SSIM (B→A→B) -->
      <g transform="translate(4.096406 49.107029) scale(0.09 -0.09)">
       <use xlink:href="#TimesNewRomanPSMT-46"/>
       <use xlink:href="#TimesNewRomanPSMT-4c" transform="translate(55.615234 0)"/>
       <use xlink:href="#TimesNewRomanPSMT-41" transform="translate(116.699219 0)"/>
       <use xlink:href="#TimesNewRomanPSMT-49" transform="translate(188.916016 0)"/>
       <use xlink:href="#TimesNewRomanPSMT-52" transform="translate(222.216797 0)"/>
       <use xlink:href="#TimesNewRomanPSMT-20" transform="translate(288.916016 0)"/>
       <use xlink:href="#TimesNewRomanPSMT-53" transform="translate(313.916016 0)"/>
       <use xlink:href="#TimesNewRomanPSMT-53" transform="translate(369.53125 0)"/>
       <use xlink:href="#TimesNewRomanPSMT-49" transform="translate(425.146484 0)"/>
       <use xlink:href="#TimesNewRomanPSMT-4d" transform="translate(458.447266 0)"/>
       <use xlink:href="#TimesNewRomanPSMT-20" transform="translate(547.363281 0)"/>
       <use xlink:href="#TimesNewRomanPSMT-28" transform="translate(572.363281 0)"/>
       <use xlink:href="#TimesNewRomanPSMT-42" transform="translate(605.664062 0)"/>
       <use xlink:href="#TimesNewRomanPSMT-2192" transform="translate(672.363281 0)"/>
       <use xlink:href="#TimesNewRomanPSMT-41" transform="translate(772.363281 0)"/>
       <use xlink:href="#TimesNewRomanPSMT-2192" transform="translate(844.580078 0)"/>
       <use xlink:href="#TimesNewRomanPSMT-42" transform="translate(944.580078 0)"/>
       <use xlink:href="#TimesNewRomanPSMT-29" transform="translate(1011.279297 0)"/>
      </g>
     </g>
    </g>
   </g>
   <g id="line2d_35">
    <path d="M 427.457331 385.643748 
L 427.457331 17.936905 
" clip-path="url(#p83369a5cc7)" style="fill: none; stroke-dasharray: 3.7,1.6; stroke-dashoffset: 0; stroke: #808080; stroke-opacity: 0.5"/>
   </g>
   <g id="line2d_36">
    <path d="M 463.274031 385.643748 
L 463.274031 17.936905 
" clip-path="url(#p83369a5cc7)" style="fill: none; stroke-dasharray: 3.7,1.6; stroke-dashoffset: 0; stroke: #808080; stroke-opacity: 0.5"/>
   </g>
   <g id="line2d_37">
    <path d="M 499.090731 385.643748 
L 499.090731 17.936905 
" clip-path="url(#p83369a5cc7)" style="fill: none; stroke-dasharray: 3.7,1.6; stroke-dashoffset: 0; stroke: #808080; stroke-opacity: 0.5"/>
   </g>
   <g id="line2d_38">
    <path d="M 379.701731 385.643748 
L 379.701731 17.936905 
" clip-path="url(#p83369a5cc7)" style="fill: none; stroke-dasharray: 3.7,1.6; stroke-dashoffset: 0; stroke: #808080; stroke-opacity: 0.5"/>
   </g>
   <g id="line2d_39">
    <path d="M 343.885031 385.643748 
L 343.885031 17.936905 
" clip-path="url(#p83369a5cc7)" style="fill: none; stroke-dasharray: 3.7,1.6; stroke-dashoffset: 0; stroke: #808080; stroke-opacity: 0.5"/>
   </g>
   <g id="line2d_40">
    <path d="M 308.068331 385.643748 
L 308.068331 17.936905 
" clip-path="url(#p83369a5cc7)" style="fill: none; stroke-dasharray: 3.7,1.6; stroke-dashoffset: 0; stroke: #808080; stroke-opacity: 0.5"/>
   </g>
   <g id="line2d_41">
    <path d="M 403.579531 385.643748 
L 403.579531 17.936905 
" clip-path="url(#p83369a5cc7)" style="fill: none; stroke: #000000; stroke-linecap: square"/>
   </g>
   <g id="patch_15">
    <path d="M 105.107031 385.643748 
L 105.107031 17.936905 
" style="fill: none; stroke: #000000; stroke-width: 0.8; stroke-linejoin: miter; stroke-linecap: square"/>
   </g>
   <g id="patch_16">
    <path d="M 702.052031 385.643748 
L 702.052031 17.936905 
" style="fill: none; stroke: #000000; stroke-width: 0.8; stroke-linejoin: miter; stroke-linecap: square"/>
   </g>
   <g id="patch_17">
    <path d="M 105.107031 385.643748 
L 702.052031 385.643748 
" style="fill: none; stroke: #000000; stroke-width: 0.8; stroke-linejoin: miter; stroke-linecap: square"/>
   </g>
   <g id="patch_18">
    <path d="M 105.107031 17.936905 
L 702.052031 17.936905 
" style="fill: none; stroke: #000000; stroke-width: 0.8; stroke-linejoin: miter; stroke-linecap: square"/>
   </g>
   <g id="text_19">
    <!-- Small -->
    <g transform="translate(418.346081 9.155) scale(0.08 -0.08)">
     <defs>
      <path id="TimesNewRomanPS-ItalicMT-53" d="M 44 -97 
L 394 1475 
L 500 1475 
Q 478 1247 478 1097 
Q 478 669 751 400 
Q 1025 131 1466 131 
Q 1875 131 2087 382 
Q 2300 634 2300 963 
Q 2300 1175 2203 1350 
Q 2056 1609 1419 2263 
Q 1109 2575 1022 2728 
Q 878 2981 878 3259 
Q 878 3703 1209 4018 
Q 1541 4334 2059 4334 
Q 2234 4334 2391 4300 
Q 2488 4281 2744 4175 
Q 2925 4103 2944 4097 
Q 2988 4088 3041 4088 
Q 3131 4088 3197 4134 
Q 3263 4181 3350 4334 
L 3469 4334 
L 3144 2928 
L 3038 2928 
Q 3050 3116 3050 3231 
Q 3050 3609 2800 3850 
Q 2550 4091 2141 4091 
Q 1816 4091 1612 3900 
Q 1409 3709 1409 3459 
Q 1409 3241 1539 3042 
Q 1669 2844 2136 2395 
Q 2603 1947 2740 1695 
Q 2878 1444 2878 1159 
Q 2878 838 2708 536 
Q 2538 234 2219 68 
Q 1900 -97 1522 -97 
Q 1334 -97 1171 -62 
Q 1009 -28 653 106 
Q 531 153 450 153 
Q 266 153 163 -97 
L 44 -97 
z
" transform="scale(0.015625)"/>
      <path id="TimesNewRomanPS-ItalicMT-6d" d="M 1388 2828 
L 981 1419 
Q 1253 1916 1444 2166 
Q 1741 2553 2022 2728 
Q 2188 2828 2369 2828 
Q 2525 2828 2628 2728 
Q 2731 2628 2731 2472 
Q 2731 2319 2659 2072 
L 2438 1278 
Q 2947 2231 3403 2616 
Q 3656 2828 3903 2828 
Q 4047 2828 4139 2729 
Q 4231 2631 4231 2425 
Q 4231 2244 4175 2041 
L 3831 825 
Q 3719 428 3719 384 
Q 3719 341 3747 309 
Q 3766 288 3797 288 
Q 3828 288 3906 347 
Q 4084 484 4241 709 
L 4344 644 
Q 4266 519 4067 300 
Q 3869 81 3728 3 
Q 3588 -75 3469 -75 
Q 3359 -75 3286 0 
Q 3213 75 3213 184 
Q 3213 334 3341 788 
L 3625 1791 
Q 3722 2138 3728 2175 
Q 3738 2234 3738 2291 
Q 3738 2369 3703 2413 
Q 3666 2456 3619 2456 
Q 3488 2456 3341 2322 
Q 2909 1925 2534 1209 
Q 2288 738 2072 0 
L 1600 0 
L 2134 1891 
Q 2222 2197 2222 2300 
Q 2222 2384 2187 2425 
Q 2153 2466 2103 2466 
Q 2000 2466 1884 2391 
Q 1697 2269 1401 1869 
Q 1106 1469 944 1103 
Q 866 931 572 0 
L 109 0 
L 688 2025 
L 763 2288 
Q 784 2347 784 2375 
Q 784 2444 721 2498 
Q 659 2553 563 2553 
Q 522 2553 338 2516 
L 309 2631 
L 1388 2828 
z
" transform="scale(0.015625)"/>
      <path id="TimesNewRomanPS-ItalicMT-61" d="M 3003 2828 
L 2394 709 
L 2325 425 
Q 2316 384 2316 356 
Q 2316 306 2347 269 
Q 2372 241 2409 241 
Q 2450 241 2516 291 
Q 2638 381 2841 666 
L 2947 591 
Q 2731 266 2503 95 
Q 2275 -75 2081 -75 
Q 1947 -75 1880 -8 
Q 1813 59 1813 188 
Q 1813 341 1881 591 
L 1947 825 
Q 1538 291 1194 78 
Q 947 -75 709 -75 
Q 481 -75 315 114 
Q 150 303 150 634 
Q 150 1131 448 1682 
Q 747 2234 1206 2566 
Q 1566 2828 1884 2828 
Q 2075 2828 2201 2728 
Q 2328 2628 2394 2397 
L 2506 2753 
L 3003 2828 
z
M 1891 2666 
Q 1691 2666 1466 2478 
Q 1147 2213 898 1691 
Q 650 1169 650 747 
Q 650 534 756 411 
Q 863 288 1000 288 
Q 1341 288 1741 791 
Q 2275 1459 2275 2163 
Q 2275 2428 2172 2547 
Q 2069 2666 1891 2666 
z
" transform="scale(0.015625)"/>
      <path id="TimesNewRomanPS-ItalicMT-6c" d="M 1903 4444 
L 834 725 
Q 756 447 756 384 
Q 756 338 786 306 
Q 816 275 859 275 
Q 919 275 988 328 
Q 1150 456 1328 725 
L 1422 628 
Q 1125 209 875 44 
Q 691 -75 525 -75 
Q 406 -75 326 6 
Q 247 88 247 194 
Q 247 306 347 656 
L 1194 3588 
Q 1297 3947 1297 4000 
Q 1297 4075 1237 4123 
Q 1178 4172 1053 4172 
Q 981 4172 834 4150 
L 834 4266 
L 1903 4444 
z
" transform="scale(0.015625)"/>
     </defs>
     <use xlink:href="#TimesNewRomanPS-ItalicMT-53"/>
     <use xlink:href="#TimesNewRomanPS-ItalicMT-6d" transform="translate(50 0)"/>
     <use xlink:href="#TimesNewRomanPS-ItalicMT-61" transform="translate(122.216797 0)"/>
     <use xlink:href="#TimesNewRomanPS-ItalicMT-6c" transform="translate(172.216797 0)"/>
     <use xlink:href="#TimesNewRomanPS-ItalicMT-6c" transform="translate(200 0)"/>
    </g>
   </g>
   <g id="text_20">
    <!-- Medium -->
    <g transform="translate(450.166531 9.155) scale(0.08 -0.08)">
     <defs>
      <path id="TimesNewRomanPS-ItalicMT-4d" d="M 2028 4238 
L 2419 825 
L 4878 4238 
L 5913 4238 
L 5913 4122 
Q 5575 4100 5516 4078 
Q 5413 4038 5327 3916 
Q 5241 3794 5141 3447 
L 4356 759 
Q 4288 525 4288 391 
Q 4288 269 4372 206 
Q 4491 116 4747 116 
L 4822 116 
L 4794 0 
L 3009 0 
L 3041 116 
L 3125 116 
Q 3363 116 3488 184 
Q 3584 234 3661 373 
Q 3738 513 3875 991 
L 4575 3447 
L 2103 0 
L 1978 0 
L 1581 3447 
L 825 825 
Q 728 491 728 375 
Q 728 259 812 198 
Q 897 138 1222 116 
L 1188 0 
L -209 0 
L -175 116 
L -91 116 
Q 219 116 356 272 
Q 456 384 566 759 
L 1488 3919 
Q 1384 4025 1290 4062 
Q 1197 4100 944 4122 
L 975 4238 
L 2028 4238 
z
" transform="scale(0.015625)"/>
      <path id="TimesNewRomanPS-ItalicMT-65" d="M 763 1178 
Q 741 1022 741 919 
Q 741 641 937 445 
Q 1134 250 1416 250 
Q 1641 250 1848 342 
Q 2056 434 2466 750 
L 2531 659 
Q 1791 -75 1119 -75 
Q 663 -75 431 212 
Q 200 500 200 847 
Q 200 1313 487 1800 
Q 775 2288 1209 2558 
Q 1644 2828 2103 2828 
Q 2434 2828 2593 2693 
Q 2753 2559 2753 2375 
Q 2753 2116 2547 1878 
Q 2275 1569 1747 1378 
Q 1397 1250 763 1178 
z
M 784 1331 
Q 1247 1384 1538 1513 
Q 1922 1684 2114 1923 
Q 2306 2163 2306 2378 
Q 2306 2509 2223 2590 
Q 2141 2672 1988 2672 
Q 1669 2672 1311 2333 
Q 953 1994 784 1331 
z
" transform="scale(0.015625)"/>
      <path id="TimesNewRomanPS-ItalicMT-64" d="M 3463 4444 
L 2388 756 
Q 2300 456 2300 363 
Q 2300 331 2326 303 
Q 2353 275 2381 275 
Q 2422 275 2478 316 
Q 2584 391 2834 691 
L 2941 625 
Q 2716 313 2486 119 
Q 2256 -75 2056 -75 
Q 1950 -75 1881 0 
Q 1813 75 1813 213 
Q 1813 391 1906 691 
L 2028 1078 
Q 1575 378 1203 109 
Q 947 -75 713 -75 
Q 475 -75 298 136 
Q 122 347 122 709 
Q 122 1175 419 1703 
Q 716 2231 1203 2563 
Q 1588 2828 1909 2828 
Q 2078 2828 2200 2759 
Q 2322 2691 2441 2531 
L 2747 3619 
Q 2781 3734 2803 3803 
Q 2841 3928 2841 4009 
Q 2841 4075 2794 4119 
Q 2728 4172 2625 4172 
Q 2553 4172 2388 4150 
L 2388 4266 
L 3463 4444 
z
M 2303 2225 
Q 2303 2425 2187 2547 
Q 2072 2669 1894 2669 
Q 1500 2669 1073 2019 
Q 647 1369 647 775 
Q 647 541 750 417 
Q 853 294 997 294 
Q 1322 294 1812 997 
Q 2303 1700 2303 2225 
z
" transform="scale(0.015625)"/>
      <path id="TimesNewRomanPS-ItalicMT-69" d="M 1431 4069 
Q 1563 4069 1653 3978 
Q 1744 3888 1744 3756 
Q 1744 3628 1651 3536 
Q 1559 3444 1431 3444 
Q 1303 3444 1211 3536 
Q 1119 3628 1119 3756 
Q 1119 3888 1209 3978 
Q 1300 4069 1431 4069 
z
M 1472 2828 
L 853 638 
Q 791 416 791 372 
Q 791 322 820 290 
Q 850 259 891 259 
Q 938 259 1003 309 
Q 1181 450 1363 709 
L 1472 638 
Q 1259 313 972 91 
Q 759 -75 566 -75 
Q 438 -75 356 1 
Q 275 78 275 194 
Q 275 309 353 578 
L 759 1978 
Q 859 2322 859 2409 
Q 859 2478 811 2522 
Q 763 2566 678 2566 
Q 609 2566 394 2531 
L 394 2653 
L 1472 2828 
z
" transform="scale(0.015625)"/>
      <path id="TimesNewRomanPS-ItalicMT-75" d="M 3013 2753 
L 2469 891 
Q 2347 475 2347 366 
Q 2347 309 2367 282 
Q 2388 256 2422 256 
Q 2475 256 2539 304 
Q 2603 353 2863 691 
L 2956 619 
Q 2709 228 2450 44 
Q 2278 -75 2119 -75 
Q 1997 -75 1928 -6 
Q 1859 63 1859 172 
Q 1859 278 1900 453 
Q 1950 684 2184 1459 
Q 1653 588 1295 256 
Q 938 -75 631 -75 
Q 488 -75 388 25 
Q 288 125 288 278 
Q 288 513 425 997 
L 697 1963 
Q 797 2309 797 2394 
Q 797 2431 770 2457 
Q 744 2484 713 2484 
Q 647 2484 581 2437 
Q 516 2391 284 2091 
L 188 2159 
Q 422 2522 684 2694 
Q 884 2828 1053 2828 
Q 1169 2828 1242 2754 
Q 1316 2681 1316 2566 
Q 1316 2397 1191 1963 
L 897 953 
Q 775 541 775 431 
Q 775 372 814 336 
Q 853 300 919 300 
Q 1022 300 1187 403 
Q 1353 506 1629 861 
Q 1906 1216 2086 1527 
Q 2266 1838 2469 2516 
L 2538 2753 
L 3013 2753 
z
" transform="scale(0.015625)"/>
     </defs>
     <use xlink:href="#TimesNewRomanPS-ItalicMT-4d"/>
     <use xlink:href="#TimesNewRomanPS-ItalicMT-65" transform="translate(83.300781 0)"/>
     <use xlink:href="#TimesNewRomanPS-ItalicMT-64" transform="translate(127.685547 0)"/>
     <use xlink:href="#TimesNewRomanPS-ItalicMT-69" transform="translate(177.685547 0)"/>
     <use xlink:href="#TimesNewRomanPS-ItalicMT-75" transform="translate(205.46875 0)"/>
     <use xlink:href="#TimesNewRomanPS-ItalicMT-6d" transform="translate(255.46875 0)"/>
    </g>
   </g>
   <g id="text_21">
    <!-- Large -->
    <g transform="translate(489.683856 9.155) scale(0.08 -0.08)">
     <defs>
      <path id="TimesNewRomanPS-ItalicMT-4c" d="M 2934 0 
L -206 0 
L -163 116 
Q 88 122 172 156 
Q 303 213 366 303 
Q 463 447 572 822 
L 1319 3400 
Q 1413 3719 1413 3869 
Q 1413 3988 1327 4053 
Q 1241 4119 1003 4119 
Q 950 4119 919 4122 
L 956 4238 
L 2684 4238 
L 2659 4122 
Q 2369 4122 2247 4065 
Q 2125 4009 2044 3881 
Q 1988 3797 1859 3356 
L 1125 822 
Q 1041 534 1041 422 
Q 1041 347 1125 278 
Q 1178 231 1366 231 
L 1775 231 
Q 2222 231 2484 344 
Q 2678 428 2841 597 
Q 2928 691 3150 1063 
L 3231 1203 
L 3347 1203 
L 2934 0 
z
" transform="scale(0.015625)"/>
      <path id="TimesNewRomanPS-ItalicMT-72" d="M 334 2653 
L 1413 2828 
L 963 1309 
Q 1509 2244 1956 2616 
Q 2209 2828 2369 2828 
Q 2472 2828 2531 2767 
Q 2591 2706 2591 2591 
Q 2591 2384 2484 2197 
Q 2409 2056 2269 2056 
Q 2197 2056 2145 2103 
Q 2094 2150 2081 2247 
Q 2075 2306 2053 2325 
Q 2028 2350 1994 2350 
Q 1941 2350 1894 2325 
Q 1813 2281 1647 2081 
Q 1388 1775 1084 1288 
Q 953 1081 859 822 
Q 728 466 709 394 
L 609 0 
L 131 0 
L 709 1941 
Q 809 2278 809 2422 
Q 809 2478 763 2516 
Q 700 2566 597 2566 
Q 531 2566 356 2538 
L 334 2653 
z
" transform="scale(0.015625)"/>
      <path id="TimesNewRomanPS-ItalicMT-67" d="M 3334 2634 
L 3244 2309 
L 2722 2309 
Q 2781 2141 2781 1994 
Q 2781 1581 2431 1259 
Q 2078 938 1463 903 
Q 1131 803 966 666 
Q 903 616 903 563 
Q 903 500 959 448 
Q 1016 397 1244 344 
L 1850 203 
Q 2353 84 2516 -78 
Q 2675 -244 2675 -459 
Q 2675 -716 2486 -928 
Q 2297 -1141 1933 -1261 
Q 1569 -1381 1128 -1381 
Q 741 -1381 422 -1289 
Q 103 -1197 -34 -1040 
Q -172 -884 -172 -719 
Q -172 -584 -83 -439 
Q 6 -294 141 -200 
Q 225 -141 619 81 
Q 475 194 475 328 
Q 475 453 601 593 
Q 728 734 1138 903 
Q 794 969 592 1191 
Q 391 1413 391 1684 
Q 391 2128 780 2478 
Q 1169 2828 1816 2828 
Q 2050 2828 2200 2781 
Q 2350 2734 2491 2634 
L 3334 2634 
z
M 2250 2144 
Q 2250 2394 2111 2537 
Q 1972 2681 1747 2681 
Q 1394 2681 1164 2326 
Q 934 1972 934 1588 
Q 934 1347 1081 1194 
Q 1228 1041 1438 1041 
Q 1603 1041 1758 1131 
Q 1913 1222 2019 1381 
Q 2125 1541 2187 1787 
Q 2250 2034 2250 2144 
z
M 753 0 
Q 500 -116 370 -297 
Q 241 -478 241 -653 
Q 241 -859 428 -994 
Q 697 -1188 1216 -1188 
Q 1663 -1188 1980 -1036 
Q 2297 -884 2297 -644 
Q 2297 -522 2180 -412 
Q 2063 -303 1725 -234 
Q 1541 -197 753 0 
z
" transform="scale(0.015625)"/>
     </defs>
     <use xlink:href="#TimesNewRomanPS-ItalicMT-4c"/>
     <use xlink:href="#TimesNewRomanPS-ItalicMT-61" transform="translate(55.615234 0)"/>
     <use xlink:href="#TimesNewRomanPS-ItalicMT-72" transform="translate(105.615234 0)"/>
     <use xlink:href="#TimesNewRomanPS-ItalicMT-67" transform="translate(140.78125 0)"/>
     <use xlink:href="#TimesNewRomanPS-ItalicMT-65" transform="translate(190.78125 0)"/>
    </g>
   </g>
   <g id="text_22">
    <!-- Effect Size Analysis: SA-CycleGAN vs Baseline -->
    <g transform="translate(295.984063 11.936905) scale(0.11 -0.11)">
     <defs>
      <path id="TimesNewRomanPSMT-61" d="M 1822 413 
Q 1381 72 1269 19 
Q 1100 -59 909 -59 
Q 613 -59 420 144 
Q 228 347 228 678 
Q 228 888 322 1041 
Q 450 1253 767 1440 
Q 1084 1628 1822 1897 
L 1822 2009 
Q 1822 2438 1686 2597 
Q 1550 2756 1291 2756 
Q 1094 2756 978 2650 
Q 859 2544 859 2406 
L 866 2225 
Q 866 2081 792 2003 
Q 719 1925 600 1925 
Q 484 1925 411 2006 
Q 338 2088 338 2228 
Q 338 2497 613 2722 
Q 888 2947 1384 2947 
Q 1766 2947 2009 2819 
Q 2194 2722 2281 2516 
Q 2338 2381 2338 1966 
L 2338 994 
Q 2338 584 2353 492 
Q 2369 400 2405 369 
Q 2441 338 2488 338 
Q 2538 338 2575 359 
Q 2641 400 2828 588 
L 2828 413 
Q 2478 -56 2159 -56 
Q 2006 -56 1915 50 
Q 1825 156 1822 413 
z
M 1822 616 
L 1822 1706 
Q 1350 1519 1213 1441 
Q 966 1303 859 1153 
Q 753 1003 753 825 
Q 753 600 887 451 
Q 1022 303 1197 303 
Q 1434 303 1822 616 
z
" transform="scale(0.015625)"/>
      <path id="TimesNewRomanPSMT-3a" d="M 903 2950 
Q 1047 2950 1148 2848 
Q 1250 2747 1250 2603 
Q 1250 2459 1148 2357 
Q 1047 2256 903 2256 
Q 759 2256 657 2357 
Q 556 2459 556 2603 
Q 556 2747 657 2848 
Q 759 2950 903 2950 
z
M 897 609 
Q 1044 609 1145 506 
Q 1247 403 1247 259 
Q 1247 116 1144 14 
Q 1041 -88 897 -88 
Q 753 -88 651 14 
Q 550 116 550 259 
Q 550 403 651 506 
Q 753 609 897 609 
z
" transform="scale(0.015625)"/>
      <path id="TimesNewRomanPSMT-2d" d="M 259 1672 
L 1875 1672 
L 1875 1200 
L 259 1200 
L 259 1672 
z
" transform="scale(0.015625)"/>
      <path id="TimesNewRomanPSMT-47" d="M 3928 4334 
L 4038 2997 
L 3928 2997 
Q 3763 3497 3500 3750 
Q 3122 4116 2528 4116 
Q 1719 4116 1297 3475 
Q 944 2934 944 2188 
Q 944 1581 1178 1081 
Q 1413 581 1792 348 
Q 2172 116 2572 116 
Q 2806 116 3025 175 
Q 3244 234 3447 350 
L 3447 1575 
Q 3447 1894 3398 1992 
Q 3350 2091 3248 2142 
Q 3147 2194 2891 2194 
L 2891 2313 
L 4531 2313 
L 4531 2194 
L 4453 2194 
Q 4209 2194 4119 2031 
Q 4056 1916 4056 1575 
L 4056 278 
Q 3697 84 3347 -6 
Q 2997 -97 2569 -97 
Q 1341 -97 703 691 
Q 225 1281 225 2053 
Q 225 2613 494 3125 
Q 813 3734 1369 4063 
Q 1834 4334 2469 4334 
Q 2700 4334 2889 4296 
Q 3078 4259 3425 4131 
Q 3600 4066 3659 4066 
Q 3719 4066 3761 4120 
Q 3803 4175 3813 4334 
L 3928 4334 
z
" transform="scale(0.015625)"/>
      <path id="TimesNewRomanPSMT-76" d="M 53 2863 
L 1400 2863 
L 1400 2747 
L 1313 2747 
Q 1191 2747 1127 2687 
Q 1063 2628 1063 2528 
Q 1063 2419 1128 2269 
L 1794 688 
L 2463 2328 
Q 2534 2503 2534 2594 
Q 2534 2638 2509 2666 
Q 2475 2713 2422 2730 
Q 2369 2747 2206 2747 
L 2206 2863 
L 3141 2863 
L 3141 2747 
Q 2978 2734 2916 2681 
Q 2806 2588 2719 2369 
L 1703 -88 
L 1575 -88 
L 553 2328 
Q 484 2497 421 2570 
Q 359 2644 263 2694 
Q 209 2722 53 2747 
L 53 2863 
z
" transform="scale(0.015625)"/>
     </defs>
     <use xlink:href="#TimesNewRomanPSMT-45"/>
     <use xlink:href="#TimesNewRomanPSMT-66" transform="translate(61.083984 0)"/>
     <use xlink:href="#TimesNewRomanPSMT-66" transform="translate(92.634766 0)"/>
     <use xlink:href="#TimesNewRomanPSMT-65" transform="translate(125.935547 0)"/>
     <use xlink:href="#TimesNewRomanPSMT-63" transform="translate(170.320312 0)"/>
     <use xlink:href="#TimesNewRomanPSMT-74" transform="translate(214.705078 0)"/>
     <use xlink:href="#TimesNewRomanPSMT-20" transform="translate(242.488281 0)"/>
     <use xlink:href="#TimesNewRomanPSMT-53" transform="translate(267.488281 0)"/>
     <use xlink:href="#TimesNewRomanPSMT-69" transform="translate(323.103516 0)"/>
     <use xlink:href="#TimesNewRomanPSMT-7a" transform="translate(350.886719 0)"/>
     <use xlink:href="#TimesNewRomanPSMT-65" transform="translate(395.271484 0)"/>
     <use xlink:href="#TimesNewRomanPSMT-20" transform="translate(439.65625 0)"/>
     <use xlink:href="#TimesNewRomanPSMT-41" transform="translate(459.15625 0)"/>
     <use xlink:href="#TimesNewRomanPSMT-6e" transform="translate(531.373047 0)"/>
     <use xlink:href="#TimesNewRomanPSMT-61" transform="translate(581.373047 0)"/>
     <use xlink:href="#TimesNewRomanPSMT-6c" transform="translate(625.757812 0)"/>
     <use xlink:href="#TimesNewRomanPSMT-79" transform="translate(653.541016 0)"/>
     <use xlink:href="#TimesNewRomanPSMT-73" transform="translate(703.541016 0)"/>
     <use xlink:href="#TimesNewRomanPSMT-69" transform="translate(742.457031 0)"/>
     <use xlink:href="#TimesNewRomanPSMT-73" transform="translate(770.240234 0)"/>
     <use xlink:href="#TimesNewRomanPSMT-3a" transform="translate(809.15625 0)"/>
     <use xlink:href="#TimesNewRomanPSMT-20" transform="translate(836.939453 0)"/>
     <use xlink:href="#TimesNewRomanPSMT-53" transform="translate(861.939453 0)"/>
     <use xlink:href="#TimesNewRomanPSMT-41" transform="translate(917.554688 0)"/>
     <use xlink:href="#TimesNewRomanPSMT-2d" transform="translate(989.771484 0)"/>
     <use xlink:href="#TimesNewRomanPSMT-43" transform="translate(1023.072266 0)"/>
     <use xlink:href="#TimesNewRomanPSMT-79" transform="translate(1089.771484 0)"/>
     <use xlink:href="#TimesNewRomanPSMT-63" transform="translate(1139.771484 0)"/>
     <use xlink:href="#TimesNewRomanPSMT-6c" transform="translate(1184.15625 0)"/>
     <use xlink:href="#TimesNewRomanPSMT-65" transform="translate(1211.939453 0)"/>
     <use xlink:href="#TimesNewRomanPSMT-47" transform="translate(1256.324219 0)"/>
     <use xlink:href="#TimesNewRomanPSMT-41" transform="translate(1328.541016 0)"/>
     <use xlink:href="#TimesNewRomanPSMT-4e" transform="translate(1400.757812 0)"/>
     <use xlink:href="#TimesNewRomanPSMT-20" transform="translate(1472.974609 0)"/>
     <use xlink:href="#TimesNewRomanPSMT-76" transform="translate(1497.974609 0)"/>
     <use xlink:href="#TimesNewRomanPSMT-73" transform="translate(1547.974609 0)"/>
     <use xlink:href="#TimesNewRomanPSMT-20" transform="translate(1586.890625 0)"/>
     <use xlink:href="#TimesNewRomanPSMT-42" transform="translate(1611.890625 0)"/>
     <use xlink:href="#TimesNewRomanPSMT-61" transform="translate(1678.589844 0)"/>
     <use xlink:href="#TimesNewRomanPSMT-73" transform="translate(1722.974609 0)"/>
     <use xlink:href="#TimesNewRomanPSMT-65" transform="translate(1761.890625 0)"/>
     <use xlink:href="#TimesNewRomanPSMT-6c" transform="translate(1806.275391 0)"/>
     <use xlink:href="#TimesNewRomanPSMT-69" transform="translate(1834.058594 0)"/>
     <use xlink:href="#TimesNewRomanPSMT-6e" transform="translate(1861.841797 0)"/>
     <use xlink:href="#TimesNewRomanPSMT-65" transform="translate(1911.841797 0)"/>
    </g>
   </g>
   <g id="legend_1">
    <g id="patch_19">
     <path d="M 608.715 381.143748 
L 695.752031 381.143748 
Q 697.552031 381.143748 697.552031 379.343748 
L 697.552031 354.793435 
Q 697.552031 352.993435 695.752031 352.993435 
L 608.715 352.993435 
Q 606.915 352.993435 606.915 354.793435 
L 606.915 379.343748 
Q 606.915 381.143748 608.715 381.143748 
z
" style="fill: #ffffff; opacity: 0.8; stroke: #cccccc; stroke-linejoin: miter"/>
    </g>
    <g id="patch_20">
     <path d="M 610.515 362.893435 
L 628.515 362.893435 
L 628.515 356.593435 
L 610.515 356.593435 
z
" style="fill: #a23b72"/>
    </g>
    <g id="text_23">
     <!-- Attention Better -->
     <g transform="translate(635.715 362.893435) scale(0.09 -0.09)">
      <defs>
       <path id="TimesNewRomanPSMT-72" d="M 1038 2947 
L 1038 2303 
Q 1397 2947 1775 2947 
Q 1947 2947 2059 2842 
Q 2172 2738 2172 2600 
Q 2172 2478 2090 2393 
Q 2009 2309 1897 2309 
Q 1788 2309 1652 2417 
Q 1516 2525 1450 2525 
Q 1394 2525 1328 2463 
Q 1188 2334 1038 2041 
L 1038 669 
Q 1038 431 1097 309 
Q 1138 225 1241 169 
Q 1344 113 1538 113 
L 1538 0 
L 72 0 
L 72 113 
Q 291 113 397 181 
Q 475 231 506 341 
Q 522 394 522 644 
L 522 1753 
Q 522 2253 501 2348 
Q 481 2444 426 2487 
Q 372 2531 291 2531 
Q 194 2531 72 2484 
L 41 2597 
L 906 2947 
L 1038 2947 
z
" transform="scale(0.015625)"/>
      </defs>
      <use xlink:href="#TimesNewRomanPSMT-41"/>
      <use xlink:href="#TimesNewRomanPSMT-74" transform="translate(72.216797 0)"/>
      <use xlink:href="#TimesNewRomanPSMT-74" transform="translate(100 0)"/>
      <use xlink:href="#TimesNewRomanPSMT-65" transform="translate(127.783203 0)"/>
      <use xlink:href="#TimesNewRomanPSMT-6e" transform="translate(172.167969 0)"/>
      <use xlink:href="#TimesNewRomanPSMT-74" transform="translate(222.167969 0)"/>
      <use xlink:href="#TimesNewRomanPSMT-69" transform="translate(249.951172 0)"/>
      <use xlink:href="#TimesNewRomanPSMT-6f" transform="translate(277.734375 0)"/>
      <use xlink:href="#TimesNewRomanPSMT-6e" transform="translate(327.734375 0)"/>
      <use xlink:href="#TimesNewRomanPSMT-20" transform="translate(377.734375 0)"/>
      <use xlink:href="#TimesNewRomanPSMT-42" transform="translate(402.734375 0)"/>
      <use xlink:href="#TimesNewRomanPSMT-65" transform="translate(469.433594 0)"/>
      <use xlink:href="#TimesNewRomanPSMT-74" transform="translate(513.818359 0)"/>
      <use xlink:href="#TimesNewRomanPSMT-74" transform="translate(541.601562 0)"/>
      <use xlink:href="#TimesNewRomanPSMT-65" transform="translate(569.384766 0)"/>
      <use xlink:href="#TimesNewRomanPSMT-72" transform="translate(613.769531 0)"/>
     </g>
    </g>
    <g id="patch_21">
     <path d="M 610.515 375.618592 
L 628.515 375.618592 
L 628.515 369.318592 
L 610.515 369.318592 
z
" style="fill: #2e86ab"/>
    </g>
    <g id="text_24">
     <!-- Baseline Better -->
     <g transform="translate(635.715 375.618592) scale(0.09 -0.09)">
      <use xlink:href="#TimesNewRomanPSMT-42"/>
      <use xlink:href="#TimesNewRomanPSMT-61" transform="translate(66.699219 0)"/>
      <use xlink:href="#TimesNewRomanPSMT-73" transform="translate(111.083984 0)"/>
      <use xlink:href="#TimesNewRomanPSMT-65" transform="translate(150 0)"/>
      <use xlink:href="#TimesNewRomanPSMT-6c" transform="translate(194.384766 0)"/>
      <use xlink:href="#TimesNewRomanPSMT-69" transform="translate(222.167969 0)"/>
      <use xlink:href="#TimesNewRomanPSMT-6e" transform="translate(249.951172 0)"/>
      <use xlink:href="#TimesNewRomanPSMT-65" transform="translate(299.951172 0)"/>
      <use xlink:href="#TimesNewRomanPSMT-20" transform="translate(344.335938 0)"/>
      <use xlink:href="#TimesNewRomanPSMT-42" transform="translate(369.335938 0)"/>
      <use xlink:href="#TimesNewRomanPSMT-65" transform="translate(436.035156 0)"/>
      <use xlink:href="#TimesNewRomanPSMT-74" transform="translate(480.419922 0)"/>
      <use xlink:href="#TimesNewRomanPSMT-74" transform="translate(508.203125 0)"/>
      <use xlink:href="#TimesNewRomanPSMT-65" transform="translate(535.986328 0)"/>
      <use xlink:href="#TimesNewRomanPSMT-72" transform="translate(580.371094 0)"/>
     </g>
    </g>
   </g>
  </g>
 </g>
 <defs>
  <clipPath id="p83369a5cc7">
   <rect x="105.107031" y="17.936905" width="596.945" height="367.706843"/>
  </clipPath>
 </defs>
</svg>
