<?xml version="1.0" encoding="utf-8" standalone="no"?>
<!DOCTYPE svg PUBLIC "-//W3C//DTD SVG 1.1//EN"
  "http://www.w3.org/Graphics/SVG/1.1/DTD/svg11.dtd">
<svg xmlns:xlink="http://www.w3.org/1999/xlink" width="817.901841pt" height="345.980461pt" viewBox="0 0 817.901841 345.980461" xmlns="http://www.w3.org/2000/svg" version="1.1">
 <metadata>
  <rdf:RDF xmlns:dc="http://purl.org/dc/elements/1.1/" xmlns:cc="http://creativecommons.org/ns#" xmlns:rdf="http://www.w3.org/1999/02/22-rdf-syntax-ns#">
   <cc:Work>
    <dc:type rdf:resource="http://purl.org/dc/dcmitype/StillImage"/>
    <dc:date>2026-01-27T15:57:07.130646</dc:date>
    <dc:format>image/svg+xml</dc:format>
    <dc:creator>
     <cc:Agent>
      <dc:title>Matplotlib v3.10.8, https://matplotlib.org/</dc:title>
     </cc:Agent>
    </dc:creator>
   </cc:Work>
  </rdf:RDF>
 </metadata>
 <defs>
  <style type="text/css">*{stroke-linejoin: round; stroke-linecap: butt}</style>
 </defs>
 <g id="figure_1">
  <g id="patch_1">
   <path d="M 0 345.980461 
L 817.901841 345.980461 
L 817.901841 0 
L 0 0 
z
" style="fill: #ffffff"/>
  </g>
  <g id="axes_1">
   <g id="patch_2">
    <path d="M 306.908766 182.13807 
C 306.908766 163.47043 303.231648 144.984309 296.087851 127.737659 
C 288.944055 110.491008 278.472508 94.819232 265.272493 81.619217 
C 252.072479 68.419202 236.400702 57.947656 219.154052 50.80386 
C 201.907401 43.660063 183.421281 39.982945 164.753641 39.982945 
C 146.086001 39.982945 127.59988 43.660063 110.353229 50.80386 
C 93.106579 57.947656 77.434803 68.419202 64.234788 81.619217 
C 51.034773 94.819232 40.563227 110.491008 33.41943 127.737659 
C 26.275634 144.984309 22.598516 163.47043 22.598516 182.13807 
C 22.598516 200.80571 26.275634 219.291831 33.41943 236.538481 
C 40.563227 253.785132 51.034773 269.456908 64.234788 282.656923 
C 77.434803 295.856938 93.106579 306.328484 110.353229 313.47228 
C 127.59988 320.616077 146.086001 324.293195 164.753641 324.293195 
C 183.421281 324.293195 201.907401 320.616077 219.154052 313.47228 
C 236.400702 306.328484 252.072479 295.856938 265.272493 282.656923 
C 278.472508 269.456908 288.944055 253.785132 296.087851 236.538481 
C 303.231648 219.291831 306.908766 200.80571 306.908766 182.13807 
M 164.753641 182.13807 
C 164.753641 182.13807 164.753641 182.13807 164.753641 182.13807 
C 164.753641 182.13807 164.753641 182.13807 164.753641 182.13807 
C 164.753641 182.13807 164.753641 182.13807 164.753641 182.13807 
C 164.753641 182.13807 164.753641 182.13807 164.753641 182.13807 
C 164.753641 182.13807 164.753641 182.13807 164.753641 182.13807 
C 164.753641 182.13807 164.753641 182.13807 164.753641 182.13807 
C 164.753641 182.13807 164.753641 182.13807 164.753641 182.13807 
C 164.753641 182.13807 164.753641 182.13807 164.753641 182.13807 
C 164.753641 182.13807 164.753641 182.13807 164.753641 182.13807 
C 164.753641 182.13807 164.753641 182.13807 164.753641 182.13807 
C 164.753641 182.13807 164.753641 182.13807 164.753641 182.13807 
C 164.753641 182.13807 164.753641 182.13807 164.753641 182.13807 
C 164.753641 182.13807 164.753641 182.13807 164.753641 182.13807 
C 164.753641 182.13807 164.753641 182.13807 164.753641 182.13807 
C 164.753641 182.13807 164.753641 182.13807 164.753641 182.13807 
C 164.753641 182.13807 164.753641 182.13807 164.753641 182.13807 
z
" style="fill: #ffffff"/>
   </g>
   <g id="patch_3">
    <path d="M 254.546321 182.13807 
L 164.753641 111.132031 
L 81.883034 182.13807 
L 164.753641 251.357265 
z
" clip-path="url(#p47f4aa3993)" style="fill: #2e86ab; opacity: 0.25; stroke: #2e86ab; stroke-linejoin: miter"/>
   </g>
   <g id="patch_4">
    <path d="M 250.480847 182.13807 
L 164.753641 118.717255 
L 87.292827 182.13807 
L 164.753641 244.152532 
z
" clip-path="url(#p47f4aa3993)" style="fill: #a23b72; opacity: 0.25; stroke: #a23b72; stroke-linejoin: miter"/>
   </g>
   <g id="matplotlib.axis_1">
    <g id="xtick_1">
     <g id="line2d_1">
      <path d="M 164.753641 182.13807 
L 306.908766 182.13807 
" clip-path="url(#p47f4aa3993)" style="fill: none; stroke: #b0b0b0; stroke-opacity: 0.3; stroke-width: 0.5; stroke-linecap: square"/>
     </g>
     <g id="text_1">
      <!-- T1 -->
      <g transform="translate(315.91025 184.300179) scale(0.09 -0.09)">
       <defs>
        <path id="TimesNewRomanPSMT-54" d="M 3703 4238 
L 3750 3244 
L 3631 3244 
Q 3597 3506 3538 3619 
Q 3441 3800 3280 3886 
Q 3119 3972 2856 3972 
L 2259 3972 
L 2259 734 
Q 2259 344 2344 247 
Q 2463 116 2709 116 
L 2856 116 
L 2856 0 
L 1059 0 
L 1059 116 
L 1209 116 
Q 1478 116 1591 278 
Q 1659 378 1659 734 
L 1659 3972 
L 1150 3972 
Q 853 3972 728 3928 
Q 566 3869 450 3700 
Q 334 3531 313 3244 
L 194 3244 
L 244 4238 
L 3703 4238 
z
" transform="scale(0.015625)"/>
        <path id="TimesNewRomanPSMT-31" d="M 750 3822 
L 1781 4325 
L 1884 4325 
L 1884 747 
Q 1884 391 1914 303 
Q 1944 216 2037 169 
Q 2131 122 2419 116 
L 2419 0 
L 825 0 
L 825 116 
Q 1125 122 1212 167 
Q 1300 213 1334 289 
Q 1369 366 1369 747 
L 1369 3034 
Q 1369 3497 1338 3628 
Q 1316 3728 1258 3775 
Q 1200 3822 1119 3822 
Q 1003 3822 797 3725 
L 750 3822 
z
" transform="scale(0.015625)"/>
       </defs>
       <use xlink:href="#TimesNewRomanPSMT-54"/>
       <use xlink:href="#TimesNewRomanPSMT-31" transform="translate(61.083984 0)"/>
      </g>
     </g>
    </g>
    <g id="xtick_2">
     <g id="line2d_2">
      <path d="M 164.753641 182.13807 
L 164.753641 39.982945 
" clip-path="url(#p47f4aa3993)" style="fill: none; stroke: #b0b0b0; stroke-opacity: 0.3; stroke-width: 0.5; stroke-linecap: square"/>
     </g>
     <g id="text_2">
      <!-- T1CE -->
      <g transform="translate(154.004969 28.145054) scale(0.09 -0.09)">
       <defs>
        <path id="TimesNewRomanPSMT-43" d="M 3853 4334 
L 3950 2894 
L 3853 2894 
Q 3659 3541 3300 3825 
Q 2941 4109 2438 4109 
Q 2016 4109 1675 3895 
Q 1334 3681 1139 3212 
Q 944 2744 944 2047 
Q 944 1472 1128 1050 
Q 1313 628 1683 403 
Q 2053 178 2528 178 
Q 2941 178 3256 354 
Q 3572 531 3950 1056 
L 4047 994 
Q 3728 428 3303 165 
Q 2878 -97 2294 -97 
Q 1241 -97 663 684 
Q 231 1266 231 2053 
Q 231 2688 515 3219 
Q 800 3750 1298 4042 
Q 1797 4334 2388 4334 
Q 2847 4334 3294 4109 
Q 3425 4041 3481 4041 
Q 3566 4041 3628 4100 
Q 3709 4184 3744 4334 
L 3853 4334 
z
" transform="scale(0.015625)"/>
        <path id="TimesNewRomanPSMT-45" d="M 1338 4006 
L 1338 2331 
L 2269 2331 
Q 2631 2331 2753 2441 
Q 2916 2584 2934 2947 
L 3050 2947 
L 3050 1472 
L 2934 1472 
Q 2891 1781 2847 1869 
Q 2791 1978 2662 2040 
Q 2534 2103 2269 2103 
L 1338 2103 
L 1338 706 
Q 1338 425 1363 364 
Q 1388 303 1450 267 
Q 1513 231 1688 231 
L 2406 231 
Q 2766 231 2928 281 
Q 3091 331 3241 478 
Q 3434 672 3638 1063 
L 3763 1063 
L 3397 0 
L 131 0 
L 131 116 
L 281 116 
Q 431 116 566 188 
Q 666 238 702 338 
Q 738 438 738 747 
L 738 3500 
Q 738 3903 656 3997 
Q 544 4122 281 4122 
L 131 4122 
L 131 4238 
L 3397 4238 
L 3444 3309 
L 3322 3309 
Q 3256 3644 3176 3769 
Q 3097 3894 2941 3959 
Q 2816 4006 2500 4006 
L 1338 4006 
z
" transform="scale(0.015625)"/>
       </defs>
       <use xlink:href="#TimesNewRomanPSMT-54"/>
       <use xlink:href="#TimesNewRomanPSMT-31" transform="translate(61.083984 0)"/>
       <use xlink:href="#TimesNewRomanPSMT-43" transform="translate(111.083984 0)"/>
       <use xlink:href="#TimesNewRomanPSMT-45" transform="translate(177.783203 0)"/>
      </g>
     </g>
    </g>
    <g id="xtick_3">
     <g id="line2d_3">
      <path d="M 164.753641 182.13807 
L 22.598516 182.13807 
" clip-path="url(#p47f4aa3993)" style="fill: none; stroke: #b0b0b0; stroke-opacity: 0.3; stroke-width: 0.5; stroke-linecap: square"/>
     </g>
     <g id="text_3">
      <!-- T2 -->
      <g transform="translate(3.6 184.300179) scale(0.09 -0.09)">
       <defs>
        <path id="TimesNewRomanPSMT-32" d="M 2934 816 
L 2638 0 
L 138 0 
L 138 116 
Q 1241 1122 1691 1759 
Q 2141 2397 2141 2925 
Q 2141 3328 1894 3587 
Q 1647 3847 1303 3847 
Q 991 3847 742 3664 
Q 494 3481 375 3128 
L 259 3128 
Q 338 3706 661 4015 
Q 984 4325 1469 4325 
Q 1984 4325 2329 3994 
Q 2675 3663 2675 3213 
Q 2675 2891 2525 2569 
Q 2294 2063 1775 1497 
Q 997 647 803 472 
L 1909 472 
Q 2247 472 2383 497 
Q 2519 522 2628 598 
Q 2738 675 2819 816 
L 2934 816 
z
" transform="scale(0.015625)"/>
       </defs>
       <use xlink:href="#TimesNewRomanPSMT-54"/>
       <use xlink:href="#TimesNewRomanPSMT-32" transform="translate(61.083984 0)"/>
      </g>
     </g>
    </g>
    <g id="xtick_4">
     <g id="line2d_4">
      <path d="M 164.753641 182.13807 
L 164.753641 324.293195 
" clip-path="url(#p47f4aa3993)" style="fill: none; stroke: #b0b0b0; stroke-opacity: 0.3; stroke-width: 0.5; stroke-linecap: square"/>
     </g>
     <g id="text_4">
      <!-- FLAIR -->
      <g transform="translate(151.752859 340.455304) scale(0.09 -0.09)">
       <defs>
        <path id="TimesNewRomanPSMT-46" d="M 1309 4006 
L 1309 2341 
L 2081 2341 
Q 2347 2341 2470 2458 
Q 2594 2575 2634 2922 
L 2750 2922 
L 2750 1488 
L 2634 1488 
Q 2631 1734 2570 1850 
Q 2509 1966 2401 2023 
Q 2294 2081 2081 2081 
L 1309 2081 
L 1309 750 
Q 1309 428 1350 325 
Q 1381 247 1481 191 
Q 1619 116 1769 116 
L 1922 116 
L 1922 0 
L 103 0 
L 103 116 
L 253 116 
Q 516 116 634 269 
Q 709 369 709 750 
L 709 3488 
Q 709 3809 669 3913 
Q 638 3991 541 4047 
Q 406 4122 253 4122 
L 103 4122 
L 103 4238 
L 3256 4238 
L 3297 3306 
L 3188 3306 
Q 3106 3603 2998 3742 
Q 2891 3881 2733 3943 
Q 2575 4006 2244 4006 
L 1309 4006 
z
" transform="scale(0.015625)"/>
        <path id="TimesNewRomanPSMT-4c" d="M 3669 1172 
L 3772 1150 
L 3409 0 
L 128 0 
L 128 116 
L 288 116 
Q 556 116 672 291 
Q 738 391 738 753 
L 738 3488 
Q 738 3884 650 3984 
Q 528 4122 288 4122 
L 128 4122 
L 128 4238 
L 2047 4238 
L 2047 4122 
Q 1709 4125 1573 4059 
Q 1438 3994 1388 3894 
Q 1338 3794 1338 3416 
L 1338 753 
Q 1338 494 1388 397 
Q 1425 331 1503 300 
Q 1581 269 1991 269 
L 2300 269 
Q 2788 269 2984 341 
Q 3181 413 3343 595 
Q 3506 778 3669 1172 
z
" transform="scale(0.015625)"/>
        <path id="TimesNewRomanPSMT-41" d="M 2928 1419 
L 1288 1419 
L 1000 750 
Q 894 503 894 381 
Q 894 284 986 211 
Q 1078 138 1384 116 
L 1384 0 
L 50 0 
L 50 116 
Q 316 163 394 238 
Q 553 388 747 847 
L 2238 4334 
L 2347 4334 
L 3822 809 
Q 4000 384 4145 257 
Q 4291 131 4550 116 
L 4550 0 
L 2878 0 
L 2878 116 
Q 3131 128 3220 200 
Q 3309 272 3309 375 
Q 3309 513 3184 809 
L 2928 1419 
z
M 2841 1650 
L 2122 3363 
L 1384 1650 
L 2841 1650 
z
" transform="scale(0.015625)"/>
        <path id="TimesNewRomanPSMT-49" d="M 1975 116 
L 1975 0 
L 159 0 
L 159 116 
L 309 116 
Q 572 116 691 269 
Q 766 369 766 750 
L 766 3488 
Q 766 3809 725 3913 
Q 694 3991 597 4047 
Q 459 4122 309 4122 
L 159 4122 
L 159 4238 
L 1975 4238 
L 1975 4122 
L 1822 4122 
Q 1563 4122 1444 3969 
Q 1366 3869 1366 3488 
L 1366 750 
Q 1366 428 1406 325 
Q 1438 247 1538 191 
Q 1672 116 1822 116 
L 1975 116 
z
" transform="scale(0.015625)"/>
        <path id="TimesNewRomanPSMT-52" d="M 4325 0 
L 3194 0 
L 1759 1981 
Q 1600 1975 1500 1975 
Q 1459 1975 1412 1976 
Q 1366 1978 1316 1981 
L 1316 750 
Q 1316 350 1403 253 
Q 1522 116 1759 116 
L 1925 116 
L 1925 0 
L 109 0 
L 109 116 
L 269 116 
Q 538 116 653 291 
Q 719 388 719 750 
L 719 3488 
Q 719 3888 631 3984 
Q 509 4122 269 4122 
L 109 4122 
L 109 4238 
L 1653 4238 
Q 2328 4238 2648 4139 
Q 2969 4041 3192 3777 
Q 3416 3513 3416 3147 
Q 3416 2756 3161 2468 
Q 2906 2181 2372 2063 
L 3247 847 
Q 3547 428 3762 290 
Q 3978 153 4325 116 
L 4325 0 
z
M 1316 2178 
Q 1375 2178 1419 2176 
Q 1463 2175 1491 2175 
Q 2097 2175 2405 2437 
Q 2713 2700 2713 3106 
Q 2713 3503 2464 3751 
Q 2216 4000 1806 4000 
Q 1625 4000 1316 3941 
L 1316 2178 
z
" transform="scale(0.015625)"/>
       </defs>
       <use xlink:href="#TimesNewRomanPSMT-46"/>
       <use xlink:href="#TimesNewRomanPSMT-4c" transform="translate(55.615234 0)"/>
       <use xlink:href="#TimesNewRomanPSMT-41" transform="translate(116.699219 0)"/>
       <use xlink:href="#TimesNewRomanPSMT-49" transform="translate(188.916016 0)"/>
       <use xlink:href="#TimesNewRomanPSMT-52" transform="translate(222.216797 0)"/>
      </g>
     </g>
    </g>
   </g>
   <g id="matplotlib.axis_2">
    <g id="ytick_1">
     <g id="line2d_5">
      <path d="M 211.664832 182.13807 
C 211.664832 175.977749 210.451383 169.877329 208.09393 164.185934 
C 205.736477 158.49454 202.280867 153.322853 197.924862 148.966849 
C 193.568857 144.610844 188.397171 141.155233 182.705776 138.797781 
C 177.014382 136.440328 170.913962 135.226879 164.753641 135.226879 
C 158.593319 135.226879 152.4929 136.440328 146.801505 138.797781 
C 141.11011 141.155233 135.938424 144.610844 131.582419 148.966849 
C 127.226414 153.322853 123.770804 158.49454 121.413351 164.185934 
C 119.055898 169.877329 117.842449 175.977749 117.842449 182.13807 
C 117.842449 188.298391 119.055898 194.398811 121.413351 200.090206 
C 123.770804 205.7816 127.226414 210.953287 131.582419 215.309291 
C 135.938424 219.665296 141.11011 223.120907 146.801505 225.478359 
C 152.4929 227.835812 158.593319 229.049261 164.753641 229.049261 
C 170.913962 229.049261 177.014382 227.835812 182.705776 225.478359 
C 188.397171 223.120907 193.568857 219.665296 197.924862 215.309291 
C 202.280867 210.953287 205.736477 205.7816 208.09393 200.090206 
C 210.451383 194.398811 211.664832 188.298391 211.664832 182.13807 
" clip-path="url(#p47f4aa3993)" style="fill: none; stroke: #b0b0b0; stroke-opacity: 0.3; stroke-width: 0.5; stroke-linecap: square"/>
     </g>
     <g id="text_5">
      <!-- 0.90 -->
      <g transform="translate(208.09393 162.260778) scale(0.09 -0.09)">
       <defs>
        <path id="TimesNewRomanPSMT-30" d="M 231 2094 
Q 231 2819 450 3342 
Q 669 3866 1031 4122 
Q 1313 4325 1613 4325 
Q 2100 4325 2488 3828 
Q 2972 3213 2972 2159 
Q 2972 1422 2759 906 
Q 2547 391 2217 158 
Q 1888 -75 1581 -75 
Q 975 -75 572 641 
Q 231 1244 231 2094 
z
M 844 2016 
Q 844 1141 1059 588 
Q 1238 122 1591 122 
Q 1759 122 1940 273 
Q 2122 425 2216 781 
Q 2359 1319 2359 2297 
Q 2359 3022 2209 3506 
Q 2097 3866 1919 4016 
Q 1791 4119 1609 4119 
Q 1397 4119 1231 3928 
Q 1006 3669 925 3112 
Q 844 2556 844 2016 
z
" transform="scale(0.015625)"/>
        <path id="TimesNewRomanPSMT-2e" d="M 800 606 
Q 947 606 1047 504 
Q 1147 403 1147 259 
Q 1147 116 1045 14 
Q 944 -88 800 -88 
Q 656 -88 554 14 
Q 453 116 453 259 
Q 453 406 554 506 
Q 656 606 800 606 
z
" transform="scale(0.015625)"/>
        <path id="TimesNewRomanPSMT-39" d="M 338 -88 
L 338 28 
Q 744 34 1094 217 
Q 1444 400 1770 856 
Q 2097 1313 2225 1859 
Q 1734 1544 1338 1544 
Q 891 1544 572 1889 
Q 253 2234 253 2806 
Q 253 3363 572 3797 
Q 956 4325 1575 4325 
Q 2097 4325 2469 3894 
Q 2925 3359 2925 2575 
Q 2925 1869 2578 1258 
Q 2231 647 1613 244 
Q 1109 -88 516 -88 
L 338 -88 
z
M 2275 2091 
Q 2331 2497 2331 2741 
Q 2331 3044 2228 3395 
Q 2125 3747 1936 3934 
Q 1747 4122 1506 4122 
Q 1228 4122 1018 3872 
Q 809 3622 809 3128 
Q 809 2469 1088 2097 
Q 1291 1828 1588 1828 
Q 1731 1828 1928 1897 
Q 2125 1966 2275 2091 
z
" transform="scale(0.015625)"/>
       </defs>
       <use xlink:href="#TimesNewRomanPSMT-30"/>
       <use xlink:href="#TimesNewRomanPSMT-2e" transform="translate(50 0)"/>
       <use xlink:href="#TimesNewRomanPSMT-39" transform="translate(75 0)"/>
       <use xlink:href="#TimesNewRomanPSMT-30" transform="translate(125 0)"/>
      </g>
     </g>
    </g>
    <g id="ytick_2">
     <g id="line2d_6">
      <path d="M 259.997574 182.13807 
C 259.997574 169.630751 257.533905 157.24505 252.747562 145.689795 
C 247.961218 134.134539 240.945282 123.634449 232.101272 114.790439 
C 223.257262 105.946429 212.757172 98.930493 201.201916 94.144149 
C 189.64666 89.357805 177.260959 86.894136 164.753641 86.894136 
C 152.246322 86.894136 139.860621 89.357805 128.305365 94.144149 
C 116.750109 98.930493 106.250019 105.946429 97.406009 114.790439 
C 88.561999 123.634449 81.546063 134.134539 76.75972 145.689795 
C 71.973376 157.24505 69.509707 169.630751 69.509707 182.13807 
C 69.509707 194.645389 71.973376 207.03109 76.75972 218.586345 
C 81.546063 230.141601 88.561999 240.641691 97.406009 249.485701 
C 106.250019 258.329711 116.750109 265.345647 128.305365 270.131991 
C 139.860621 274.918335 152.246322 277.382004 164.753641 277.382004 
C 177.260959 277.382004 189.64666 274.918335 201.201916 270.131991 
C 212.757172 265.345647 223.257262 258.329711 232.101272 249.485701 
C 240.945282 240.641691 247.961218 230.141601 252.747562 218.586345 
C 257.533905 207.03109 259.997574 194.645389 259.997574 182.13807 
" clip-path="url(#p47f4aa3993)" style="fill: none; stroke: #b0b0b0; stroke-opacity: 0.3; stroke-width: 0.5; stroke-linecap: square"/>
     </g>
     <g id="text_6">
      <!-- 0.95 -->
      <g transform="translate(252.747562 143.764638) scale(0.09 -0.09)">
       <defs>
        <path id="TimesNewRomanPSMT-35" d="M 2778 4238 
L 2534 3706 
L 1259 3706 
L 981 3138 
Q 1809 3016 2294 2522 
Q 2709 2097 2709 1522 
Q 2709 1188 2573 903 
Q 2438 619 2231 419 
Q 2025 219 1772 97 
Q 1413 -75 1034 -75 
Q 653 -75 479 54 
Q 306 184 306 341 
Q 306 428 378 495 
Q 450 563 559 563 
Q 641 563 702 538 
Q 763 513 909 409 
Q 1144 247 1384 247 
Q 1750 247 2026 523 
Q 2303 800 2303 1197 
Q 2303 1581 2056 1914 
Q 1809 2247 1375 2428 
Q 1034 2569 447 2591 
L 1259 4238 
L 2778 4238 
z
" transform="scale(0.015625)"/>
       </defs>
       <use xlink:href="#TimesNewRomanPSMT-30"/>
       <use xlink:href="#TimesNewRomanPSMT-2e" transform="translate(50 0)"/>
       <use xlink:href="#TimesNewRomanPSMT-39" transform="translate(75 0)"/>
       <use xlink:href="#TimesNewRomanPSMT-35" transform="translate(125 0)"/>
      </g>
     </g>
    </g>
    <g id="ytick_3">
     <g id="line2d_7">
      <path d="M 306.908766 182.13807 
C 306.908766 163.47043 303.231648 144.984309 296.087851 127.737659 
C 288.944055 110.491008 278.472508 94.819232 265.272493 81.619217 
C 252.072479 68.419202 236.400702 57.947656 219.154052 50.80386 
C 201.907401 43.660063 183.421281 39.982945 164.753641 39.982945 
C 146.086001 39.982945 127.59988 43.660063 110.353229 50.80386 
C 93.106579 57.947656 77.434803 68.419202 64.234788 81.619217 
C 51.034773 94.819232 40.563227 110.491008 33.41943 127.737659 
C 26.275634 144.984309 22.598516 163.47043 22.598516 182.13807 
C 22.598516 200.80571 26.275634 219.291831 33.41943 236.538481 
C 40.563227 253.785132 51.034773 269.456908 64.234788 282.656923 
C 77.434803 295.856938 93.106579 306.328484 110.353229 313.47228 
C 127.59988 320.616077 146.086001 324.293195 164.753641 324.293195 
C 183.421281 324.293195 201.907401 320.616077 219.154052 313.47228 
C 236.400702 306.328484 252.072479 295.856938 265.272493 282.656923 
C 278.472508 269.456908 288.944055 253.785132 296.087851 236.538481 
C 303.231648 219.291831 306.908766 200.80571 306.908766 182.13807 
" clip-path="url(#p47f4aa3993)" style="fill: none; stroke: #b0b0b0; stroke-opacity: 0.3; stroke-width: 0.5; stroke-linecap: square"/>
     </g>
     <g id="text_7">
      <!-- 1.00 -->
      <g transform="translate(296.087851 125.812503) scale(0.09 -0.09)">
       <use xlink:href="#TimesNewRomanPSMT-31"/>
       <use xlink:href="#TimesNewRomanPSMT-2e" transform="translate(50 0)"/>
       <use xlink:href="#TimesNewRomanPSMT-30" transform="translate(75 0)"/>
       <use xlink:href="#TimesNewRomanPSMT-30" transform="translate(125 0)"/>
      </g>
     </g>
    </g>
   </g>
   <g id="line2d_8">
    <path d="M 254.546321 182.13807 
L 164.753641 111.132031 
L 81.883034 182.13807 
L 164.753641 251.357265 
L 254.546321 182.13807 
" clip-path="url(#p47f4aa3993)" style="fill: none; stroke: #2e86ab; stroke-width: 2; stroke-linecap: square"/>
    <defs>
     <path id="m63424f732e" d="M 0 2 
C 0.530406 2 1.03916 1.789267 1.414214 1.414214 
C 1.789267 1.03916 2 0.530406 2 0 
C 2 -0.530406 1.789267 -1.03916 1.414214 -1.414214 
C 1.03916 -1.789267 0.530406 -2 0 -2 
C -0.530406 -2 -1.03916 -1.789267 -1.414214 -1.414214 
C -1.789267 -1.03916 -2 -0.530406 -2 0 
C -2 0.530406 -1.789267 1.03916 -1.414214 1.414214 
C -1.03916 1.789267 -0.530406 2 0 2 
z
" style="stroke: #2e86ab"/>
    </defs>
    <g clip-path="url(#p47f4aa3993)">
     <use xlink:href="#m63424f732e" x="254.546321" y="182.13807" style="fill: #2e86ab; stroke: #2e86ab"/>
     <use xlink:href="#m63424f732e" x="164.753641" y="111.132031" style="fill: #2e86ab; stroke: #2e86ab"/>
     <use xlink:href="#m63424f732e" x="81.883034" y="182.13807" style="fill: #2e86ab; stroke: #2e86ab"/>
     <use xlink:href="#m63424f732e" x="164.753641" y="251.357265" style="fill: #2e86ab; stroke: #2e86ab"/>
     <use xlink:href="#m63424f732e" x="254.546321" y="182.13807" style="fill: #2e86ab; stroke: #2e86ab"/>
    </g>
   </g>
   <g id="line2d_9">
    <path d="M 250.480847 182.13807 
L 164.753641 118.717255 
L 87.292827 182.13807 
L 164.753641 244.152532 
L 250.480847 182.13807 
" clip-path="url(#p47f4aa3993)" style="fill: none; stroke: #a23b72; stroke-width: 2; stroke-linecap: square"/>
    <defs>
     <path id="m479372bf02" d="M 0 2 
C 0.530406 2 1.03916 1.789267 1.414214 1.414214 
C 1.789267 1.03916 2 0.530406 2 0 
C 2 -0.530406 1.789267 -1.03916 1.414214 -1.414214 
C 1.03916 -1.789267 0.530406 -2 0 -2 
C -0.530406 -2 -1.03916 -1.789267 -1.414214 -1.414214 
C -1.789267 -1.03916 -2 -0.530406 -2 0 
C -2 0.530406 -1.789267 1.03916 -1.414214 1.414214 
C -1.03916 1.789267 -0.530406 2 0 2 
z
" style="stroke: #a23b72"/>
    </defs>
    <g clip-path="url(#p47f4aa3993)">
     <use xlink:href="#m479372bf02" x="250.480847" y="182.13807" style="fill: #a23b72; stroke: #a23b72"/>
     <use xlink:href="#m479372bf02" x="164.753641" y="118.717255" style="fill: #a23b72; stroke: #a23b72"/>
     <use xlink:href="#m479372bf02" x="87.292827" y="182.13807" style="fill: #a23b72; stroke: #a23b72"/>
     <use xlink:href="#m479372bf02" x="164.753641" y="244.152532" style="fill: #a23b72; stroke: #a23b72"/>
     <use xlink:href="#m479372bf02" x="250.480847" y="182.13807" style="fill: #a23b72; stroke: #a23b72"/>
    </g>
   </g>
   <g id="patch_5">
    <path d="M 306.908766 182.13807 
C 306.908766 163.47043 303.231648 144.984309 296.087851 127.737659 
C 288.944055 110.491008 278.472508 94.819232 265.272493 81.619217 
C 252.072479 68.419202 236.400702 57.947656 219.154052 50.80386 
C 201.907401 43.660063 183.421281 39.982945 164.753641 39.982945 
C 146.086001 39.982945 127.59988 43.660063 110.353229 50.80386 
C 93.106579 57.947656 77.434803 68.419202 64.234788 81.619217 
C 51.034773 94.819232 40.563227 110.491008 33.41943 127.737659 
C 26.275634 144.984309 22.598516 163.47043 22.598516 182.13807 
C 22.598516 200.80571 26.275634 219.291831 33.41943 236.538481 
C 40.563227 253.785132 51.034773 269.456908 64.234788 282.656923 
C 77.434803 295.856938 93.106579 306.328484 110.353229 313.47228 
C 127.59988 320.616077 146.086001 324.293195 164.753641 324.293195 
C 183.421281 324.293195 201.907401 320.616077 219.154052 313.47228 
C 236.400702 306.328484 252.072479 295.856938 265.272493 282.656923 
C 278.472508 269.456908 288.944055 253.785132 296.087851 236.538481 
C 303.231648 219.291831 306.908766 200.80571 306.908766 182.13807 
" style="fill: none; stroke: #000000; stroke-width: 0.8; stroke-linejoin: miter; stroke-linecap: square"/>
   </g>
   <g id="text_8">
    <!-- (a) A→B→A Direction -->
    <g transform="translate(113.121531 11.238125) scale(0.11 -0.11)">
     <defs>
      <path id="TimesNewRomanPSMT-28" d="M 1988 -1253 
L 1988 -1369 
Q 1516 -1131 1200 -813 
Q 750 -359 506 256 
Q 263 872 263 1534 
Q 263 2503 741 3301 
Q 1219 4100 1988 4444 
L 1988 4313 
Q 1603 4100 1356 3731 
Q 1109 3363 987 2797 
Q 866 2231 866 1616 
Q 866 947 969 400 
Q 1050 -31 1165 -292 
Q 1281 -553 1476 -793 
Q 1672 -1034 1988 -1253 
z
" transform="scale(0.015625)"/>
      <path id="TimesNewRomanPSMT-61" d="M 1822 413 
Q 1381 72 1269 19 
Q 1100 -59 909 -59 
Q 613 -59 420 144 
Q 228 347 228 678 
Q 228 888 322 1041 
Q 450 1253 767 1440 
Q 1084 1628 1822 1897 
L 1822 2009 
Q 1822 2438 1686 2597 
Q 1550 2756 1291 2756 
Q 1094 2756 978 2650 
Q 859 2544 859 2406 
L 866 2225 
Q 866 2081 792 2003 
Q 719 1925 600 1925 
Q 484 1925 411 2006 
Q 338 2088 338 2228 
Q 338 2497 613 2722 
Q 888 2947 1384 2947 
Q 1766 2947 2009 2819 
Q 2194 2722 2281 2516 
Q 2338 2381 2338 1966 
L 2338 994 
Q 2338 584 2353 492 
Q 2369 400 2405 369 
Q 2441 338 2488 338 
Q 2538 338 2575 359 
Q 2641 400 2828 588 
L 2828 413 
Q 2478 -56 2159 -56 
Q 2006 -56 1915 50 
Q 1825 156 1822 413 
z
M 1822 616 
L 1822 1706 
Q 1350 1519 1213 1441 
Q 966 1303 859 1153 
Q 753 1003 753 825 
Q 753 600 887 451 
Q 1022 303 1197 303 
Q 1434 303 1822 616 
z
" transform="scale(0.015625)"/>
      <path id="TimesNewRomanPSMT-29" d="M 144 4313 
L 144 4444 
Q 619 4209 934 3891 
Q 1381 3434 1625 2820 
Q 1869 2206 1869 1541 
Q 1869 572 1392 -226 
Q 916 -1025 144 -1369 
L 144 -1253 
Q 528 -1038 776 -670 
Q 1025 -303 1145 264 
Q 1266 831 1266 1447 
Q 1266 2113 1163 2663 
Q 1084 3094 967 3353 
Q 850 3613 656 3853 
Q 463 4094 144 4313 
z
" transform="scale(0.015625)"/>
      <path id="TimesNewRomanPSMT-20" transform="scale(0.015625)"/>
      <path id="TimesNewRomanPSMT-2192" d="M 4859 2738 
Q 5275 2284 5578 2048 
Q 5881 1813 6150 1697 
L 6150 1556 
Q 5841 1406 5550 1173 
Q 5259 941 4856 491 
L 4616 491 
Q 4909 1119 5231 1456 
L 247 1456 
L 247 1772 
L 5231 1772 
Q 4994 2075 4900 2222 
Q 4806 2369 4622 2738 
L 4859 2738 
z
" transform="scale(0.015625)"/>
      <path id="TimesNewRomanPSMT-42" d="M 2956 2163 
Q 3397 2069 3616 1863 
Q 3919 1575 3919 1159 
Q 3919 844 3719 555 
Q 3519 266 3170 133 
Q 2822 0 2106 0 
L 106 0 
L 106 116 
L 266 116 
Q 531 116 647 284 
Q 719 394 719 750 
L 719 3488 
Q 719 3881 628 3984 
Q 506 4122 266 4122 
L 106 4122 
L 106 4238 
L 1938 4238 
Q 2450 4238 2759 4163 
Q 3228 4050 3475 3764 
Q 3722 3478 3722 3106 
Q 3722 2788 3528 2536 
Q 3334 2284 2956 2163 
z
M 1319 2331 
Q 1434 2309 1582 2298 
Q 1731 2288 1909 2288 
Q 2366 2288 2595 2386 
Q 2825 2484 2947 2687 
Q 3069 2891 3069 3131 
Q 3069 3503 2766 3765 
Q 2463 4028 1881 4028 
Q 1569 4028 1319 3959 
L 1319 2331 
z
M 1319 306 
Q 1681 222 2034 222 
Q 2600 222 2897 476 
Q 3194 731 3194 1106 
Q 3194 1353 3059 1581 
Q 2925 1809 2622 1940 
Q 2319 2072 1872 2072 
Q 1678 2072 1540 2065 
Q 1403 2059 1319 2044 
L 1319 306 
z
" transform="scale(0.015625)"/>
      <path id="TimesNewRomanPSMT-44" d="M 109 0 
L 109 116 
L 269 116 
Q 538 116 650 288 
Q 719 391 719 750 
L 719 3488 
Q 719 3884 631 3984 
Q 509 4122 269 4122 
L 109 4122 
L 109 4238 
L 1834 4238 
Q 2784 4238 3279 4022 
Q 3775 3806 4076 3303 
Q 4378 2800 4378 2141 
Q 4378 1256 3841 663 
Q 3238 0 2003 0 
L 109 0 
z
M 1319 306 
Q 1716 219 1984 219 
Q 2709 219 3187 728 
Q 3666 1238 3666 2109 
Q 3666 2988 3187 3494 
Q 2709 4000 1959 4000 
Q 1678 4000 1319 3909 
L 1319 306 
z
" transform="scale(0.015625)"/>
      <path id="TimesNewRomanPSMT-69" d="M 928 4444 
Q 1059 4444 1151 4351 
Q 1244 4259 1244 4128 
Q 1244 3997 1151 3903 
Q 1059 3809 928 3809 
Q 797 3809 703 3903 
Q 609 3997 609 4128 
Q 609 4259 701 4351 
Q 794 4444 928 4444 
z
M 1188 2947 
L 1188 647 
Q 1188 378 1227 289 
Q 1266 200 1342 156 
Q 1419 113 1622 113 
L 1622 0 
L 231 0 
L 231 113 
Q 441 113 512 153 
Q 584 194 626 287 
Q 669 381 669 647 
L 669 1750 
Q 669 2216 641 2353 
Q 619 2453 572 2492 
Q 525 2531 444 2531 
Q 356 2531 231 2484 
L 188 2597 
L 1050 2947 
L 1188 2947 
z
" transform="scale(0.015625)"/>
      <path id="TimesNewRomanPSMT-72" d="M 1038 2947 
L 1038 2303 
Q 1397 2947 1775 2947 
Q 1947 2947 2059 2842 
Q 2172 2738 2172 2600 
Q 2172 2478 2090 2393 
Q 2009 2309 1897 2309 
Q 1788 2309 1652 2417 
Q 1516 2525 1450 2525 
Q 1394 2525 1328 2463 
Q 1188 2334 1038 2041 
L 1038 669 
Q 1038 431 1097 309 
Q 1138 225 1241 169 
Q 1344 113 1538 113 
L 1538 0 
L 72 0 
L 72 113 
Q 291 113 397 181 
Q 475 231 506 341 
Q 522 394 522 644 
L 522 1753 
Q 522 2253 501 2348 
Q 481 2444 426 2487 
Q 372 2531 291 2531 
Q 194 2531 72 2484 
L 41 2597 
L 906 2947 
L 1038 2947 
z
" transform="scale(0.015625)"/>
      <path id="TimesNewRomanPSMT-65" d="M 681 1784 
Q 678 1147 991 784 
Q 1303 422 1725 422 
Q 2006 422 2214 576 
Q 2422 731 2563 1106 
L 2659 1044 
Q 2594 616 2278 264 
Q 1963 -88 1488 -88 
Q 972 -88 605 314 
Q 238 716 238 1394 
Q 238 2128 614 2539 
Q 991 2950 1559 2950 
Q 2041 2950 2350 2633 
Q 2659 2316 2659 1784 
L 681 1784 
z
M 681 1966 
L 2006 1966 
Q 1991 2241 1941 2353 
Q 1863 2528 1708 2628 
Q 1553 2728 1384 2728 
Q 1125 2728 920 2526 
Q 716 2325 681 1966 
z
" transform="scale(0.015625)"/>
      <path id="TimesNewRomanPSMT-63" d="M 2631 1088 
Q 2516 522 2178 217 
Q 1841 -88 1431 -88 
Q 944 -88 581 321 
Q 219 731 219 1428 
Q 219 2103 620 2525 
Q 1022 2947 1584 2947 
Q 2006 2947 2278 2723 
Q 2550 2500 2550 2259 
Q 2550 2141 2473 2067 
Q 2397 1994 2259 1994 
Q 2075 1994 1981 2113 
Q 1928 2178 1911 2362 
Q 1894 2547 1784 2644 
Q 1675 2738 1481 2738 
Q 1169 2738 978 2506 
Q 725 2200 725 1697 
Q 725 1184 976 792 
Q 1228 400 1656 400 
Q 1963 400 2206 609 
Q 2378 753 2541 1131 
L 2631 1088 
z
" transform="scale(0.015625)"/>
      <path id="TimesNewRomanPSMT-74" d="M 1031 3803 
L 1031 2863 
L 1700 2863 
L 1700 2644 
L 1031 2644 
L 1031 788 
Q 1031 509 1111 412 
Q 1191 316 1316 316 
Q 1419 316 1516 380 
Q 1613 444 1666 569 
L 1788 569 
Q 1678 263 1478 108 
Q 1278 -47 1066 -47 
Q 922 -47 784 33 
Q 647 113 581 261 
Q 516 409 516 719 
L 516 2644 
L 63 2644 
L 63 2747 
Q 234 2816 414 2980 
Q 594 3144 734 3369 
Q 806 3488 934 3803 
L 1031 3803 
z
" transform="scale(0.015625)"/>
      <path id="TimesNewRomanPSMT-6f" d="M 1600 2947 
Q 2250 2947 2644 2453 
Q 2978 2031 2978 1484 
Q 2978 1100 2793 706 
Q 2609 313 2286 112 
Q 1963 -88 1566 -88 
Q 919 -88 538 428 
Q 216 863 216 1403 
Q 216 1797 411 2186 
Q 606 2575 925 2761 
Q 1244 2947 1600 2947 
z
M 1503 2744 
Q 1338 2744 1170 2645 
Q 1003 2547 900 2300 
Q 797 2053 797 1666 
Q 797 1041 1045 587 
Q 1294 134 1700 134 
Q 2003 134 2200 384 
Q 2397 634 2397 1244 
Q 2397 2006 2069 2444 
Q 1847 2744 1503 2744 
z
" transform="scale(0.015625)"/>
      <path id="TimesNewRomanPSMT-6e" d="M 1034 2341 
Q 1538 2947 1994 2947 
Q 2228 2947 2397 2830 
Q 2566 2713 2666 2444 
Q 2734 2256 2734 1869 
L 2734 647 
Q 2734 375 2778 278 
Q 2813 200 2889 156 
Q 2966 113 3172 113 
L 3172 0 
L 1756 0 
L 1756 113 
L 1816 113 
Q 2016 113 2095 173 
Q 2175 234 2206 353 
Q 2219 400 2219 647 
L 2219 1819 
Q 2219 2209 2117 2386 
Q 2016 2563 1775 2563 
Q 1403 2563 1034 2156 
L 1034 647 
Q 1034 356 1069 288 
Q 1113 197 1189 155 
Q 1266 113 1500 113 
L 1500 0 
L 84 0 
L 84 113 
L 147 113 
Q 366 113 442 223 
Q 519 334 519 647 
L 519 1709 
Q 519 2225 495 2337 
Q 472 2450 423 2490 
Q 375 2531 294 2531 
Q 206 2531 84 2484 
L 38 2597 
L 900 2947 
L 1034 2947 
L 1034 2341 
z
" transform="scale(0.015625)"/>
     </defs>
     <use xlink:href="#TimesNewRomanPSMT-28"/>
     <use xlink:href="#TimesNewRomanPSMT-61" transform="translate(33.300781 0)"/>
     <use xlink:href="#TimesNewRomanPSMT-29" transform="translate(77.685547 0)"/>
     <use xlink:href="#TimesNewRomanPSMT-20" transform="translate(110.986328 0)"/>
     <use xlink:href="#TimesNewRomanPSMT-41" transform="translate(130.486328 0)"/>
     <use xlink:href="#TimesNewRomanPSMT-2192" transform="translate(202.703125 0)"/>
     <use xlink:href="#TimesNewRomanPSMT-42" transform="translate(302.703125 0)"/>
     <use xlink:href="#TimesNewRomanPSMT-2192" transform="translate(369.402344 0)"/>
     <use xlink:href="#TimesNewRomanPSMT-41" transform="translate(469.402344 0)"/>
     <use xlink:href="#TimesNewRomanPSMT-20" transform="translate(536.119141 0)"/>
     <use xlink:href="#TimesNewRomanPSMT-44" transform="translate(561.119141 0)"/>
     <use xlink:href="#TimesNewRomanPSMT-69" transform="translate(633.335938 0)"/>
     <use xlink:href="#TimesNewRomanPSMT-72" transform="translate(661.119141 0)"/>
     <use xlink:href="#TimesNewRomanPSMT-65" transform="translate(694.419922 0)"/>
     <use xlink:href="#TimesNewRomanPSMT-63" transform="translate(738.804688 0)"/>
     <use xlink:href="#TimesNewRomanPSMT-74" transform="translate(783.189453 0)"/>
     <use xlink:href="#TimesNewRomanPSMT-69" transform="translate(810.972656 0)"/>
     <use xlink:href="#TimesNewRomanPSMT-6f" transform="translate(838.755859 0)"/>
     <use xlink:href="#TimesNewRomanPSMT-6e" transform="translate(888.755859 0)"/>
    </g>
   </g>
   <g id="legend_1">
    <g id="patch_6">
     <path d="M 302.107622 72.650132 
L 385.901841 72.650132 
Q 387.701841 72.650132 387.701841 70.850132 
L 387.701841 46.282945 
Q 387.701841 44.482945 385.901841 44.482945 
L 302.107622 44.482945 
Q 300.307622 44.482945 300.307622 46.282945 
L 300.307622 70.850132 
Q 300.307622 72.650132 302.107622 72.650132 
z
" style="fill: #ffffff; opacity: 0.8; stroke: #cccccc; stroke-linejoin: miter"/>
    </g>
    <g id="line2d_10">
     <path d="M 303.907622 51.232945 
L 312.907622 51.232945 
L 321.907622 51.232945 
" style="fill: none; stroke: #2e86ab; stroke-width: 2; stroke-linecap: square"/>
     <g>
      <use xlink:href="#m63424f732e" x="312.907622" y="51.232945" style="fill: #2e86ab; stroke: #2e86ab"/>
     </g>
    </g>
    <g id="text_9">
     <!-- Baseline -->
     <g transform="translate(329.107622 54.382945) scale(0.09 -0.09)">
      <defs>
       <path id="TimesNewRomanPSMT-73" d="M 2050 2947 
L 2050 1972 
L 1947 1972 
Q 1828 2431 1642 2597 
Q 1456 2763 1169 2763 
Q 950 2763 815 2647 
Q 681 2531 681 2391 
Q 681 2216 781 2091 
Q 878 1963 1175 1819 
L 1631 1597 
Q 2266 1288 2266 781 
Q 2266 391 1970 151 
Q 1675 -88 1309 -88 
Q 1047 -88 709 6 
Q 606 38 541 38 
Q 469 38 428 -44 
L 325 -44 
L 325 978 
L 428 978 
Q 516 541 762 319 
Q 1009 97 1316 97 
Q 1531 97 1667 223 
Q 1803 350 1803 528 
Q 1803 744 1651 891 
Q 1500 1038 1047 1263 
Q 594 1488 453 1669 
Q 313 1847 313 2119 
Q 313 2472 555 2709 
Q 797 2947 1181 2947 
Q 1350 2947 1591 2875 
Q 1750 2828 1803 2828 
Q 1853 2828 1881 2850 
Q 1909 2872 1947 2947 
L 2050 2947 
z
" transform="scale(0.015625)"/>
       <path id="TimesNewRomanPSMT-6c" d="M 1184 4444 
L 1184 647 
Q 1184 378 1223 290 
Q 1263 203 1344 158 
Q 1425 113 1647 113 
L 1647 0 
L 244 0 
L 244 113 
Q 441 113 512 153 
Q 584 194 625 287 
Q 666 381 666 647 
L 666 3247 
Q 666 3731 644 3842 
Q 622 3953 573 3993 
Q 525 4034 450 4034 
Q 369 4034 244 3984 
L 191 4094 
L 1044 4444 
L 1184 4444 
z
" transform="scale(0.015625)"/>
      </defs>
      <use xlink:href="#TimesNewRomanPSMT-42"/>
      <use xlink:href="#TimesNewRomanPSMT-61" transform="translate(66.699219 0)"/>
      <use xlink:href="#TimesNewRomanPSMT-73" transform="translate(111.083984 0)"/>
      <use xlink:href="#TimesNewRomanPSMT-65" transform="translate(150 0)"/>
      <use xlink:href="#TimesNewRomanPSMT-6c" transform="translate(194.384766 0)"/>
      <use xlink:href="#TimesNewRomanPSMT-69" transform="translate(222.167969 0)"/>
      <use xlink:href="#TimesNewRomanPSMT-6e" transform="translate(249.951172 0)"/>
      <use xlink:href="#TimesNewRomanPSMT-65" transform="translate(299.951172 0)"/>
     </g>
    </g>
    <g id="line2d_11">
     <path d="M 303.907622 63.958101 
L 312.907622 63.958101 
L 321.907622 63.958101 
" style="fill: none; stroke: #a23b72; stroke-width: 2; stroke-linecap: square"/>
     <g>
      <use xlink:href="#m479372bf02" x="312.907622" y="63.958101" style="fill: #a23b72; stroke: #a23b72"/>
     </g>
    </g>
    <g id="text_10">
     <!-- SA-CycleGAN -->
     <g transform="translate(329.107622 67.108101) scale(0.09 -0.09)">
      <defs>
       <path id="TimesNewRomanPSMT-53" d="M 2934 4334 
L 2934 2869 
L 2819 2869 
Q 2763 3291 2617 3541 
Q 2472 3791 2203 3937 
Q 1934 4084 1647 4084 
Q 1322 4084 1109 3886 
Q 897 3688 897 3434 
Q 897 3241 1031 3081 
Q 1225 2847 1953 2456 
Q 2547 2138 2764 1967 
Q 2981 1797 3098 1565 
Q 3216 1334 3216 1081 
Q 3216 600 2842 251 
Q 2469 -97 1881 -97 
Q 1697 -97 1534 -69 
Q 1438 -53 1133 45 
Q 828 144 747 144 
Q 669 144 623 97 
Q 578 50 556 -97 
L 441 -97 
L 441 1356 
L 556 1356 
Q 638 900 775 673 
Q 913 447 1195 297 
Q 1478 147 1816 147 
Q 2206 147 2432 353 
Q 2659 559 2659 841 
Q 2659 997 2573 1156 
Q 2488 1316 2306 1453 
Q 2184 1547 1640 1851 
Q 1097 2156 867 2337 
Q 638 2519 519 2737 
Q 400 2956 400 3219 
Q 400 3675 750 4004 
Q 1100 4334 1641 4334 
Q 1978 4334 2356 4169 
Q 2531 4091 2603 4091 
Q 2684 4091 2736 4139 
Q 2788 4188 2819 4334 
L 2934 4334 
z
" transform="scale(0.015625)"/>
       <path id="TimesNewRomanPSMT-2d" d="M 259 1672 
L 1875 1672 
L 1875 1200 
L 259 1200 
L 259 1672 
z
" transform="scale(0.015625)"/>
       <path id="TimesNewRomanPSMT-79" d="M 38 2863 
L 1372 2863 
L 1372 2747 
L 1306 2747 
Q 1166 2747 1095 2686 
Q 1025 2625 1025 2534 
Q 1025 2413 1128 2197 
L 1825 753 
L 2466 2334 
Q 2519 2463 2519 2588 
Q 2519 2644 2497 2672 
Q 2472 2706 2419 2726 
Q 2366 2747 2231 2747 
L 2231 2863 
L 3163 2863 
L 3163 2747 
Q 3047 2734 2984 2696 
Q 2922 2659 2847 2556 
Q 2819 2513 2741 2316 
L 1575 -541 
Q 1406 -956 1132 -1168 
Q 859 -1381 606 -1381 
Q 422 -1381 303 -1275 
Q 184 -1169 184 -1031 
Q 184 -900 270 -820 
Q 356 -741 506 -741 
Q 609 -741 788 -809 
Q 913 -856 944 -856 
Q 1038 -856 1148 -759 
Q 1259 -663 1372 -384 
L 1575 113 
L 547 2272 
Q 500 2369 397 2513 
Q 319 2622 269 2659 
Q 197 2709 38 2747 
L 38 2863 
z
" transform="scale(0.015625)"/>
       <path id="TimesNewRomanPSMT-47" d="M 3928 4334 
L 4038 2997 
L 3928 2997 
Q 3763 3497 3500 3750 
Q 3122 4116 2528 4116 
Q 1719 4116 1297 3475 
Q 944 2934 944 2188 
Q 944 1581 1178 1081 
Q 1413 581 1792 348 
Q 2172 116 2572 116 
Q 2806 116 3025 175 
Q 3244 234 3447 350 
L 3447 1575 
Q 3447 1894 3398 1992 
Q 3350 2091 3248 2142 
Q 3147 2194 2891 2194 
L 2891 2313 
L 4531 2313 
L 4531 2194 
L 4453 2194 
Q 4209 2194 4119 2031 
Q 4056 1916 4056 1575 
L 4056 278 
Q 3697 84 3347 -6 
Q 2997 -97 2569 -97 
Q 1341 -97 703 691 
Q 225 1281 225 2053 
Q 225 2613 494 3125 
Q 813 3734 1369 4063 
Q 1834 4334 2469 4334 
Q 2700 4334 2889 4296 
Q 3078 4259 3425 4131 
Q 3600 4066 3659 4066 
Q 3719 4066 3761 4120 
Q 3803 4175 3813 4334 
L 3928 4334 
z
" transform="scale(0.015625)"/>
       <path id="TimesNewRomanPSMT-4e" d="M -84 4238 
L 1066 4238 
L 3656 1059 
L 3656 3503 
Q 3656 3894 3569 3991 
Q 3453 4122 3203 4122 
L 3056 4122 
L 3056 4238 
L 4531 4238 
L 4531 4122 
L 4381 4122 
Q 4113 4122 4000 3959 
Q 3931 3859 3931 3503 
L 3931 -69 
L 3819 -69 
L 1025 3344 
L 1025 734 
Q 1025 344 1109 247 
Q 1228 116 1475 116 
L 1625 116 
L 1625 0 
L 150 0 
L 150 116 
L 297 116 
Q 569 116 681 278 
Q 750 378 750 734 
L 750 3681 
Q 566 3897 470 3965 
Q 375 4034 191 4094 
Q 100 4122 -84 4122 
L -84 4238 
z
" transform="scale(0.015625)"/>
      </defs>
      <use xlink:href="#TimesNewRomanPSMT-53"/>
      <use xlink:href="#TimesNewRomanPSMT-41" transform="translate(55.615234 0)"/>
      <use xlink:href="#TimesNewRomanPSMT-2d" transform="translate(127.832031 0)"/>
      <use xlink:href="#TimesNewRomanPSMT-43" transform="translate(161.132812 0)"/>
      <use xlink:href="#TimesNewRomanPSMT-79" transform="translate(227.832031 0)"/>
      <use xlink:href="#TimesNewRomanPSMT-63" transform="translate(277.832031 0)"/>
      <use xlink:href="#TimesNewRomanPSMT-6c" transform="translate(322.216797 0)"/>
      <use xlink:href="#TimesNewRomanPSMT-65" transform="translate(350 0)"/>
      <use xlink:href="#TimesNewRomanPSMT-47" transform="translate(394.384766 0)"/>
      <use xlink:href="#TimesNewRomanPSMT-41" transform="translate(466.601562 0)"/>
      <use xlink:href="#TimesNewRomanPSMT-4e" transform="translate(538.818359 0)"/>
     </g>
    </g>
   </g>
  </g>
  <g id="axes_2">
   <g id="patch_7">
    <path d="M 733.508766 182.13807 
C 733.508766 163.47043 729.831648 144.984309 722.687851 127.737659 
C 715.544055 110.491008 705.072508 94.819232 691.872493 81.619217 
C 678.672479 68.419202 663.000702 57.947656 645.754052 50.80386 
C 628.507401 43.660063 610.021281 39.982945 591.353641 39.982945 
C 572.686001 39.982945 554.19988 43.660063 536.953229 50.80386 
C 519.706579 57.947656 504.034803 68.419202 490.834788 81.619217 
C 477.634773 94.819232 467.163227 110.491008 460.01943 127.737659 
C 452.875634 144.984309 449.198516 163.47043 449.198516 182.13807 
C 449.198516 200.80571 452.875634 219.291831 460.01943 236.538481 
C 467.163227 253.785132 477.634773 269.456908 490.834788 282.656923 
C 504.034803 295.856938 519.706579 306.328484 536.953229 313.47228 
C 554.19988 320.616077 572.686001 324.293195 591.353641 324.293195 
C 610.021281 324.293195 628.507401 320.616077 645.754052 313.47228 
C 663.000702 306.328484 678.672479 295.856938 691.872493 282.656923 
C 705.072508 269.456908 715.544055 253.785132 722.687851 236.538481 
C 729.831648 219.291831 733.508766 200.80571 733.508766 182.13807 
M 591.353641 182.13807 
C 591.353641 182.13807 591.353641 182.13807 591.353641 182.13807 
C 591.353641 182.13807 591.353641 182.13807 591.353641 182.13807 
C 591.353641 182.13807 591.353641 182.13807 591.353641 182.13807 
C 591.353641 182.13807 591.353641 182.13807 591.353641 182.13807 
C 591.353641 182.13807 591.353641 182.13807 591.353641 182.13807 
C 591.353641 182.13807 591.353641 182.13807 591.353641 182.13807 
C 591.353641 182.13807 591.353641 182.13807 591.353641 182.13807 
C 591.353641 182.13807 591.353641 182.13807 591.353641 182.13807 
C 591.353641 182.13807 591.353641 182.13807 591.353641 182.13807 
C 591.353641 182.13807 591.353641 182.13807 591.353641 182.13807 
C 591.353641 182.13807 591.353641 182.13807 591.353641 182.13807 
C 591.353641 182.13807 591.353641 182.13807 591.353641 182.13807 
C 591.353641 182.13807 591.353641 182.13807 591.353641 182.13807 
C 591.353641 182.13807 591.353641 182.13807 591.353641 182.13807 
C 591.353641 182.13807 591.353641 182.13807 591.353641 182.13807 
C 591.353641 182.13807 591.353641 182.13807 591.353641 182.13807 
z
" style="fill: #ffffff"/>
   </g>
   <g id="patch_8">
    <path d="M 684.221558 182.13807 
L 591.353641 120.361342 
L 506.186902 182.13807 
L 591.353641 238.763684 
z
" clip-path="url(#p6fd93f6a4c)" style="fill: #2e86ab; opacity: 0.25; stroke: #2e86ab; stroke-linejoin: miter"/>
   </g>
   <g id="patch_9">
    <path d="M 693.418802 182.13807 
L 591.353641 111.04857 
L 493.719869 182.13807 
L 591.353641 249.41812 
z
" clip-path="url(#p6fd93f6a4c)" style="fill: #a23b72; opacity: 0.25; stroke: #a23b72; stroke-linejoin: miter"/>
   </g>
   <g id="matplotlib.axis_3">
    <g id="xtick_5">
     <g id="line2d_12">
      <path d="M 591.353641 182.13807 
L 733.508766 182.13807 
" clip-path="url(#p6fd93f6a4c)" style="fill: none; stroke: #b0b0b0; stroke-opacity: 0.3; stroke-width: 0.5; stroke-linecap: square"/>
     </g>
     <g id="text_11">
      <!-- T1 -->
      <g transform="translate(742.51025 184.300179) scale(0.09 -0.09)">
       <use xlink:href="#TimesNewRomanPSMT-54"/>
       <use xlink:href="#TimesNewRomanPSMT-31" transform="translate(61.083984 0)"/>
      </g>
     </g>
    </g>
    <g id="xtick_6">
     <g id="line2d_13">
      <path d="M 591.353641 182.13807 
L 591.353641 39.982945 
" clip-path="url(#p6fd93f6a4c)" style="fill: none; stroke: #b0b0b0; stroke-opacity: 0.3; stroke-width: 0.5; stroke-linecap: square"/>
     </g>
     <g id="text_12">
      <!-- T1CE -->
      <g transform="translate(580.604969 28.145054) scale(0.09 -0.09)">
       <use xlink:href="#TimesNewRomanPSMT-54"/>
       <use xlink:href="#TimesNewRomanPSMT-31" transform="translate(61.083984 0)"/>
       <use xlink:href="#TimesNewRomanPSMT-43" transform="translate(111.083984 0)"/>
       <use xlink:href="#TimesNewRomanPSMT-45" transform="translate(177.783203 0)"/>
      </g>
     </g>
    </g>
    <g id="xtick_7">
     <g id="line2d_14">
      <path d="M 591.353641 182.13807 
L 449.198516 182.13807 
" clip-path="url(#p6fd93f6a4c)" style="fill: none; stroke: #b0b0b0; stroke-opacity: 0.3; stroke-width: 0.5; stroke-linecap: square"/>
     </g>
     <g id="text_13">
      <!-- T2 -->
      <g transform="translate(430.2 184.300179) scale(0.09 -0.09)">
       <use xlink:href="#TimesNewRomanPSMT-54"/>
       <use xlink:href="#TimesNewRomanPSMT-32" transform="translate(61.083984 0)"/>
      </g>
     </g>
    </g>
    <g id="xtick_8">
     <g id="line2d_15">
      <path d="M 591.353641 182.13807 
L 591.353641 324.293195 
" clip-path="url(#p6fd93f6a4c)" style="fill: none; stroke: #b0b0b0; stroke-opacity: 0.3; stroke-width: 0.5; stroke-linecap: square"/>
     </g>
     <g id="text_14">
      <!-- FLAIR -->
      <g transform="translate(578.352859 340.455304) scale(0.09 -0.09)">
       <use xlink:href="#TimesNewRomanPSMT-46"/>
       <use xlink:href="#TimesNewRomanPSMT-4c" transform="translate(55.615234 0)"/>
       <use xlink:href="#TimesNewRomanPSMT-41" transform="translate(116.699219 0)"/>
       <use xlink:href="#TimesNewRomanPSMT-49" transform="translate(188.916016 0)"/>
       <use xlink:href="#TimesNewRomanPSMT-52" transform="translate(222.216797 0)"/>
      </g>
     </g>
    </g>
   </g>
   <g id="matplotlib.axis_4">
    <g id="ytick_4">
     <g id="line2d_16">
      <path d="M 638.264832 182.13807 
C 638.264832 175.977749 637.051383 169.877329 634.69393 164.185934 
C 632.336477 158.49454 628.880867 153.322853 624.524862 148.966849 
C 620.168857 144.610844 614.997171 141.155233 609.305776 138.797781 
C 603.614382 136.440328 597.513962 135.226879 591.353641 135.226879 
C 585.193319 135.226879 579.0929 136.440328 573.401505 138.797781 
C 567.71011 141.155233 562.538424 144.610844 558.182419 148.966849 
C 553.826414 153.322853 550.370804 158.49454 548.013351 164.185934 
C 545.655898 169.877329 544.442449 175.977749 544.442449 182.13807 
C 544.442449 188.298391 545.655898 194.398811 548.013351 200.090206 
C 550.370804 205.7816 553.826414 210.953287 558.182419 215.309291 
C 562.538424 219.665296 567.71011 223.120907 573.401505 225.478359 
C 579.0929 227.835812 585.193319 229.049261 591.353641 229.049261 
C 597.513962 229.049261 603.614382 227.835812 609.305776 225.478359 
C 614.997171 223.120907 620.168857 219.665296 624.524862 215.309291 
C 628.880867 210.953287 632.336477 205.7816 634.69393 200.090206 
C 637.051383 194.398811 638.264832 188.298391 638.264832 182.13807 
" clip-path="url(#p6fd93f6a4c)" style="fill: none; stroke: #b0b0b0; stroke-opacity: 0.3; stroke-width: 0.5; stroke-linecap: square"/>
     </g>
     <g id="text_15">
      <!-- 0.90 -->
      <g transform="translate(634.69393 162.260778) scale(0.09 -0.09)">
       <use xlink:href="#TimesNewRomanPSMT-30"/>
       <use xlink:href="#TimesNewRomanPSMT-2e" transform="translate(50 0)"/>
       <use xlink:href="#TimesNewRomanPSMT-39" transform="translate(75 0)"/>
       <use xlink:href="#TimesNewRomanPSMT-30" transform="translate(125 0)"/>
      </g>
     </g>
    </g>
    <g id="ytick_5">
     <g id="line2d_17">
      <path d="M 686.597574 182.13807 
C 686.597574 169.630751 684.133905 157.24505 679.347562 145.689795 
C 674.561218 134.134539 667.545282 123.634449 658.701272 114.790439 
C 649.857262 105.946429 639.357172 98.930493 627.801916 94.144149 
C 616.24666 89.357805 603.860959 86.894136 591.353641 86.894136 
C 578.846322 86.894136 566.460621 89.357805 554.905365 94.144149 
C 543.350109 98.930493 532.850019 105.946429 524.006009 114.790439 
C 515.161999 123.634449 508.146063 134.134539 503.35972 145.689795 
C 498.573376 157.24505 496.109707 169.630751 496.109707 182.13807 
C 496.109707 194.645389 498.573376 207.03109 503.35972 218.586345 
C 508.146063 230.141601 515.161999 240.641691 524.006009 249.485701 
C 532.850019 258.329711 543.350109 265.345647 554.905365 270.131991 
C 566.460621 274.918335 578.846322 277.382004 591.353641 277.382004 
C 603.860959 277.382004 616.24666 274.918335 627.801916 270.131991 
C 639.357172 265.345647 649.857262 258.329711 658.701272 249.485701 
C 667.545282 240.641691 674.561218 230.141601 679.347562 218.586345 
C 684.133905 207.03109 686.597574 194.645389 686.597574 182.13807 
" clip-path="url(#p6fd93f6a4c)" style="fill: none; stroke: #b0b0b0; stroke-opacity: 0.3; stroke-width: 0.5; stroke-linecap: square"/>
     </g>
     <g id="text_16">
      <!-- 0.95 -->
      <g transform="translate(679.347562 143.764638) scale(0.09 -0.09)">
       <use xlink:href="#TimesNewRomanPSMT-30"/>
       <use xlink:href="#TimesNewRomanPSMT-2e" transform="translate(50 0)"/>
       <use xlink:href="#TimesNewRomanPSMT-39" transform="translate(75 0)"/>
       <use xlink:href="#TimesNewRomanPSMT-35" transform="translate(125 0)"/>
      </g>
     </g>
    </g>
    <g id="ytick_6">
     <g id="line2d_18">
      <path d="M 733.508766 182.13807 
C 733.508766 163.47043 729.831648 144.984309 722.687851 127.737659 
C 715.544055 110.491008 705.072508 94.819232 691.872493 81.619217 
C 678.672479 68.419202 663.000702 57.947656 645.754052 50.80386 
C 628.507401 43.660063 610.021281 39.982945 591.353641 39.982945 
C 572.686001 39.982945 554.19988 43.660063 536.953229 50.80386 
C 519.706579 57.947656 504.034803 68.419202 490.834788 81.619217 
C 477.634773 94.819232 467.163227 110.491008 460.01943 127.737659 
C 452.875634 144.984309 449.198516 163.47043 449.198516 182.13807 
C 449.198516 200.80571 452.875634 219.291831 460.01943 236.538481 
C 467.163227 253.785132 477.634773 269.456908 490.834788 282.656923 
C 504.034803 295.856938 519.706579 306.328484 536.953229 313.47228 
C 554.19988 320.616077 572.686001 324.293195 591.353641 324.293195 
C 610.021281 324.293195 628.507401 320.616077 645.754052 313.47228 
C 663.000702 306.328484 678.672479 295.856938 691.872493 282.656923 
C 705.072508 269.456908 715.544055 253.785132 722.687851 236.538481 
C 729.831648 219.291831 733.508766 200.80571 733.508766 182.13807 
" clip-path="url(#p6fd93f6a4c)" style="fill: none; stroke: #b0b0b0; stroke-opacity: 0.3; stroke-width: 0.5; stroke-linecap: square"/>
     </g>
     <g id="text_17">
      <!-- 1.00 -->
      <g transform="translate(722.687851 125.812503) scale(0.09 -0.09)">
       <use xlink:href="#TimesNewRomanPSMT-31"/>
       <use xlink:href="#TimesNewRomanPSMT-2e" transform="translate(50 0)"/>
       <use xlink:href="#TimesNewRomanPSMT-30" transform="translate(75 0)"/>
       <use xlink:href="#TimesNewRomanPSMT-30" transform="translate(125 0)"/>
      </g>
     </g>
    </g>
   </g>
   <g id="line2d_19">
    <path d="M 684.221558 182.13807 
L 591.353641 120.361342 
L 506.186902 182.13807 
L 591.353641 238.763684 
L 684.221558 182.13807 
" clip-path="url(#p6fd93f6a4c)" style="fill: none; stroke: #2e86ab; stroke-width: 2; stroke-linecap: square"/>
    <g clip-path="url(#p6fd93f6a4c)">
     <use xlink:href="#m63424f732e" x="684.221558" y="182.13807" style="fill: #2e86ab; stroke: #2e86ab"/>
     <use xlink:href="#m63424f732e" x="591.353641" y="120.361342" style="fill: #2e86ab; stroke: #2e86ab"/>
     <use xlink:href="#m63424f732e" x="506.186902" y="182.13807" style="fill: #2e86ab; stroke: #2e86ab"/>
     <use xlink:href="#m63424f732e" x="591.353641" y="238.763684" style="fill: #2e86ab; stroke: #2e86ab"/>
     <use xlink:href="#m63424f732e" x="684.221558" y="182.13807" style="fill: #2e86ab; stroke: #2e86ab"/>
    </g>
   </g>
   <g id="line2d_20">
    <path d="M 693.418802 182.13807 
L 591.353641 111.04857 
L 493.719869 182.13807 
L 591.353641 249.41812 
L 693.418802 182.13807 
" clip-path="url(#p6fd93f6a4c)" style="fill: none; stroke: #a23b72; stroke-width: 2; stroke-linecap: square"/>
    <g clip-path="url(#p6fd93f6a4c)">
     <use xlink:href="#m479372bf02" x="693.418802" y="182.13807" style="fill: #a23b72; stroke: #a23b72"/>
     <use xlink:href="#m479372bf02" x="591.353641" y="111.04857" style="fill: #a23b72; stroke: #a23b72"/>
     <use xlink:href="#m479372bf02" x="493.719869" y="182.13807" style="fill: #a23b72; stroke: #a23b72"/>
     <use xlink:href="#m479372bf02" x="591.353641" y="249.41812" style="fill: #a23b72; stroke: #a23b72"/>
     <use xlink:href="#m479372bf02" x="693.418802" y="182.13807" style="fill: #a23b72; stroke: #a23b72"/>
    </g>
   </g>
   <g id="patch_10">
    <path d="M 733.508766 182.13807 
C 733.508766 163.47043 729.831648 144.984309 722.687851 127.737659 
C 715.544055 110.491008 705.072508 94.819232 691.872493 81.619217 
C 678.672479 68.419202 663.000702 57.947656 645.754052 50.80386 
C 628.507401 43.660063 610.021281 39.982945 591.353641 39.982945 
C 572.686001 39.982945 554.19988 43.660063 536.953229 50.80386 
C 519.706579 57.947656 504.034803 68.419202 490.834788 81.619217 
C 477.634773 94.819232 467.163227 110.491008 460.01943 127.737659 
C 452.875634 144.984309 449.198516 163.47043 449.198516 182.13807 
C 449.198516 200.80571 452.875634 219.291831 460.01943 236.538481 
C 467.163227 253.785132 477.634773 269.456908 490.834788 282.656923 
C 504.034803 295.856938 519.706579 306.328484 536.953229 313.47228 
C 554.19988 320.616077 572.686001 324.293195 591.353641 324.293195 
C 610.021281 324.293195 628.507401 320.616077 645.754052 313.47228 
C 663.000702 306.328484 678.672479 295.856938 691.872493 282.656923 
C 705.072508 269.456908 715.544055 253.785132 722.687851 236.538481 
C 729.831648 219.291831 733.508766 200.80571 733.508766 182.13807 
" style="fill: none; stroke: #000000; stroke-width: 0.8; stroke-linejoin: miter; stroke-linecap: square"/>
   </g>
   <g id="text_18">
    <!-- (b) B→A→B Direction -->
    <g transform="translate(539.111375 11.238125) scale(0.11 -0.11)">
     <defs>
      <path id="TimesNewRomanPSMT-62" d="M 984 2369 
Q 1400 2947 1881 2947 
Q 2322 2947 2650 2570 
Q 2978 2194 2978 1541 
Q 2978 778 2472 313 
Q 2038 -88 1503 -88 
Q 1253 -88 995 3 
Q 738 94 469 275 
L 469 3241 
Q 469 3728 445 3840 
Q 422 3953 372 3993 
Q 322 4034 247 4034 
Q 159 4034 28 3984 
L -16 4094 
L 844 4444 
L 984 4444 
L 984 2369 
z
M 984 2169 
L 984 456 
Q 1144 300 1314 220 
Q 1484 141 1663 141 
Q 1947 141 2192 453 
Q 2438 766 2438 1363 
Q 2438 1913 2192 2208 
Q 1947 2503 1634 2503 
Q 1469 2503 1303 2419 
Q 1178 2356 984 2169 
z
" transform="scale(0.015625)"/>
     </defs>
     <use xlink:href="#TimesNewRomanPSMT-28"/>
     <use xlink:href="#TimesNewRomanPSMT-62" transform="translate(33.300781 0)"/>
     <use xlink:href="#TimesNewRomanPSMT-29" transform="translate(83.300781 0)"/>
     <use xlink:href="#TimesNewRomanPSMT-20" transform="translate(116.601562 0)"/>
     <use xlink:href="#TimesNewRomanPSMT-42" transform="translate(141.601562 0)"/>
     <use xlink:href="#TimesNewRomanPSMT-2192" transform="translate(208.300781 0)"/>
     <use xlink:href="#TimesNewRomanPSMT-41" transform="translate(308.300781 0)"/>
     <use xlink:href="#TimesNewRomanPSMT-2192" transform="translate(380.517578 0)"/>
     <use xlink:href="#TimesNewRomanPSMT-42" transform="translate(480.517578 0)"/>
     <use xlink:href="#TimesNewRomanPSMT-20" transform="translate(547.216797 0)"/>
     <use xlink:href="#TimesNewRomanPSMT-44" transform="translate(572.216797 0)"/>
     <use xlink:href="#TimesNewRomanPSMT-69" transform="translate(644.433594 0)"/>
     <use xlink:href="#TimesNewRomanPSMT-72" transform="translate(672.216797 0)"/>
     <use xlink:href="#TimesNewRomanPSMT-65" transform="translate(705.517578 0)"/>
     <use xlink:href="#TimesNewRomanPSMT-63" transform="translate(749.902344 0)"/>
     <use xlink:href="#TimesNewRomanPSMT-74" transform="translate(794.287109 0)"/>
     <use xlink:href="#TimesNewRomanPSMT-69" transform="translate(822.070312 0)"/>
     <use xlink:href="#TimesNewRomanPSMT-6f" transform="translate(849.853516 0)"/>
     <use xlink:href="#TimesNewRomanPSMT-6e" transform="translate(899.853516 0)"/>
    </g>
   </g>
   <g id="legend_2">
    <g id="patch_11">
     <path d="M 728.707622 72.650132 
L 812.501841 72.650132 
Q 814.301841 72.650132 814.301841 70.850132 
L 814.301841 46.282945 
Q 814.301841 44.482945 812.501841 44.482945 
L 728.707622 44.482945 
Q 726.907622 44.482945 726.907622 46.282945 
L 726.907622 70.850132 
Q 726.907622 72.650132 728.707622 72.650132 
z
" style="fill: #ffffff; opacity: 0.8; stroke: #cccccc; stroke-linejoin: miter"/>
    </g>
    <g id="line2d_21">
     <path d="M 730.507622 51.232945 
L 739.507622 51.232945 
L 748.507622 51.232945 
" style="fill: none; stroke: #2e86ab; stroke-width: 2; stroke-linecap: square"/>
     <g>
      <use xlink:href="#m63424f732e" x="739.507622" y="51.232945" style="fill: #2e86ab; stroke: #2e86ab"/>
     </g>
    </g>
    <g id="text_19">
     <!-- Baseline -->
     <g transform="translate(755.707622 54.382945) scale(0.09 -0.09)">
      <use xlink:href="#TimesNewRomanPSMT-42"/>
      <use xlink:href="#TimesNewRomanPSMT-61" transform="translate(66.699219 0)"/>
      <use xlink:href="#TimesNewRomanPSMT-73" transform="translate(111.083984 0)"/>
      <use xlink:href="#TimesNewRomanPSMT-65" transform="translate(150 0)"/>
      <use xlink:href="#TimesNewRomanPSMT-6c" transform="translate(194.384766 0)"/>
      <use xlink:href="#TimesNewRomanPSMT-69" transform="translate(222.167969 0)"/>
      <use xlink:href="#TimesNewRomanPSMT-6e" transform="translate(249.951172 0)"/>
      <use xlink:href="#TimesNewRomanPSMT-65" transform="translate(299.951172 0)"/>
     </g>
    </g>
    <g id="line2d_22">
     <path d="M 730.507622 63.958101 
L 739.507622 63.958101 
L 748.507622 63.958101 
" style="fill: none; stroke: #a23b72; stroke-width: 2; stroke-linecap: square"/>
     <g>
      <use xlink:href="#m479372bf02" x="739.507622" y="63.958101" style="fill: #a23b72; stroke: #a23b72"/>
     </g>
    </g>
    <g id="text_20">
     <!-- SA-CycleGAN -->
     <g transform="translate(755.707622 67.108101) scale(0.09 -0.09)">
      <use xlink:href="#TimesNewRomanPSMT-53"/>
      <use xlink:href="#TimesNewRomanPSMT-41" transform="translate(55.615234 0)"/>
      <use xlink:href="#TimesNewRomanPSMT-2d" transform="translate(127.832031 0)"/>
      <use xlink:href="#TimesNewRomanPSMT-43" transform="translate(161.132812 0)"/>
      <use xlink:href="#TimesNewRomanPSMT-79" transform="translate(227.832031 0)"/>
      <use xlink:href="#TimesNewRomanPSMT-63" transform="translate(277.832031 0)"/>
      <use xlink:href="#TimesNewRomanPSMT-6c" transform="translate(322.216797 0)"/>
      <use xlink:href="#TimesNewRomanPSMT-65" transform="translate(350 0)"/>
      <use xlink:href="#TimesNewRomanPSMT-47" transform="translate(394.384766 0)"/>
      <use xlink:href="#TimesNewRomanPSMT-41" transform="translate(466.601562 0)"/>
      <use xlink:href="#TimesNewRomanPSMT-4e" transform="translate(538.818359 0)"/>
     </g>
    </g>
   </g>
  </g>
 </g>
 <defs>
  <clipPath id="p47f4aa3993">
   <path d="M 306.908766 182.13807 
C 306.908766 163.47043 303.231648 144.984309 296.087851 127.737659 
C 288.944055 110.491008 278.472508 94.819232 265.272493 81.619217 
C 252.072479 68.419202 236.400702 57.947656 219.154052 50.80386 
C 201.907401 43.660063 183.421281 39.982945 164.753641 39.982945 
C 146.086001 39.982945 127.59988 43.660063 110.353229 50.80386 
C 93.106579 57.947656 77.434803 68.419202 64.234788 81.619217 
C 51.034773 94.819232 40.563227 110.491008 33.41943 127.737659 
C 26.275634 144.984309 22.598516 163.47043 22.598516 182.13807 
C 22.598516 200.80571 26.275634 219.291831 33.41943 236.538481 
C 40.563227 253.785132 51.034773 269.456908 64.234788 282.656923 
C 77.434803 295.856938 93.106579 306.328484 110.353229 313.47228 
C 127.59988 320.616077 146.086001 324.293195 164.753641 324.293195 
C 183.421281 324.293195 201.907401 320.616077 219.154052 313.47228 
C 236.400702 306.328484 252.072479 295.856938 265.272493 282.656923 
C 278.472508 269.456908 288.944055 253.785132 296.087851 236.538481 
C 303.231648 219.291831 306.908766 200.80571 306.908766 182.13807 
M 164.753641 182.13807 
C 164.753641 182.13807 164.753641 182.13807 164.753641 182.13807 
C 164.753641 182.13807 164.753641 182.13807 164.753641 182.13807 
C 164.753641 182.13807 164.753641 182.13807 164.753641 182.13807 
C 164.753641 182.13807 164.753641 182.13807 164.753641 182.13807 
C 164.753641 182.13807 164.753641 182.13807 164.753641 182.13807 
C 164.753641 182.13807 164.753641 182.13807 164.753641 182.13807 
C 164.753641 182.13807 164.753641 182.13807 164.753641 182.13807 
C 164.753641 182.13807 164.753641 182.13807 164.753641 182.13807 
C 164.753641 182.13807 164.753641 182.13807 164.753641 182.13807 
C 164.753641 182.13807 164.753641 182.13807 164.753641 182.13807 
C 164.753641 182.13807 164.753641 182.13807 164.753641 182.13807 
C 164.753641 182.13807 164.753641 182.13807 164.753641 182.13807 
C 164.753641 182.13807 164.753641 182.13807 164.753641 182.13807 
C 164.753641 182.13807 164.753641 182.13807 164.753641 182.13807 
C 164.753641 182.13807 164.753641 182.13807 164.753641 182.13807 
C 164.753641 182.13807 164.753641 182.13807 164.753641 182.13807 
z
"/>
  </clipPath>
  <clipPath id="p6fd93f6a4c">
   <path d="M 733.508766 182.13807 
C 733.508766 163.47043 729.831648 144.984309 722.687851 127.737659 
C 715.544055 110.491008 705.072508 94.819232 691.872493 81.619217 
C 678.672479 68.419202 663.000702 57.947656 645.754052 50.80386 
C 628.507401 43.660063 610.021281 39.982945 591.353641 39.982945 
C 572.686001 39.982945 554.19988 43.660063 536.953229 50.80386 
C 519.706579 57.947656 504.034803 68.419202 490.834788 81.619217 
C 477.634773 94.819232 467.163227 110.491008 460.01943 127.737659 
C 452.875634 144.984309 449.198516 163.47043 449.198516 182.13807 
C 449.198516 200.80571 452.875634 219.291831 460.01943 236.538481 
C 467.163227 253.785132 477.634773 269.456908 490.834788 282.656923 
C 504.034803 295.856938 519.706579 306.328484 536.953229 313.47228 
C 554.19988 320.616077 572.686001 324.293195 591.353641 324.293195 
C 610.021281 324.293195 628.507401 320.616077 645.754052 313.47228 
C 663.000702 306.328484 678.672479 295.856938 691.872493 282.656923 
C 705.072508 269.456908 715.544055 253.785132 722.687851 236.538481 
C 729.831648 219.291831 733.508766 200.80571 733.508766 182.13807 
M 591.353641 182.13807 
C 591.353641 182.13807 591.353641 182.13807 591.353641 182.13807 
C 591.353641 182.13807 591.353641 182.13807 591.353641 182.13807 
C 591.353641 182.13807 591.353641 182.13807 591.353641 182.13807 
C 591.353641 182.13807 591.353641 182.13807 591.353641 182.13807 
C 591.353641 182.13807 591.353641 182.13807 591.353641 182.13807 
C 591.353641 182.13807 591.353641 182.13807 591.353641 182.13807 
C 591.353641 182.13807 591.353641 182.13807 591.353641 182.13807 
C 591.353641 182.13807 591.353641 182.13807 591.353641 182.13807 
C 591.353641 182.13807 591.353641 182.13807 591.353641 182.13807 
C 591.353641 182.13807 591.353641 182.13807 591.353641 182.13807 
C 591.353641 182.13807 591.353641 182.13807 591.353641 182.13807 
C 591.353641 182.13807 591.353641 182.13807 591.353641 182.13807 
C 591.353641 182.13807 591.353641 182.13807 591.353641 182.13807 
C 591.353641 182.13807 591.353641 182.13807 591.353641 182.13807 
C 591.353641 182.13807 591.353641 182.13807 591.353641 182.13807 
C 591.353641 182.13807 591.353641 182.13807 591.353641 182.13807 
z
"/>
  </clipPath>
 </defs>
</svg>
