<?xml version="1.0" encoding="utf-8" standalone="no"?>
<!DOCTYPE svg PUBLIC "-//W3C//DTD SVG 1.1//EN"
  "http://www.w3.org/Graphics/SVG/1.1/DTD/svg11.dtd">
<svg xmlns:xlink="http://www.w3.org/1999/xlink" width="706.674125pt" height="347.76pt" viewBox="0 0 706.674125 347.76" xmlns="http://www.w3.org/2000/svg" version="1.1">
 <metadata>
  <rdf:RDF xmlns:dc="http://purl.org/dc/elements/1.1/" xmlns:cc="http://creativecommons.org/ns#" xmlns:rdf="http://www.w3.org/1999/02/22-rdf-syntax-ns#">
   <cc:Work>
    <dc:type rdf:resource="http://purl.org/dc/dcmitype/StillImage"/>
    <dc:date>2026-01-27T16:28:40.129338</dc:date>
    <dc:format>image/svg+xml</dc:format>
    <dc:creator>
     <cc:Agent>
      <dc:title>Matplotlib v3.10.8, https://matplotlib.org/</dc:title>
     </cc:Agent>
    </dc:creator>
   </cc:Work>
  </rdf:RDF>
 </metadata>
 <defs>
  <style type="text/css">*{stroke-linejoin: round; stroke-linecap: butt}</style>
 </defs>
 <g id="figure_1">
  <g id="patch_1">
   <path d="M 0 347.76 
L 706.674125 347.76 
L 706.674125 0 
L 0 0 
z
" style="fill: #ffffff"/>
  </g>
  <g id="axes_1">
   <g id="patch_2">
    <path d="M 65.52 201.744 
L 189.36 201.744 
L 189.36 77.904 
L 65.52 77.904 
z
" clip-path="url(#p96dd76ea82)" style="fill: #e3f2fd; opacity: 0.4; stroke: #000000; stroke-linejoin: miter"/>
   </g>
   <g id="patch_3">
    <path d="M 65.52 220.32 
L 189.36 220.32 
L 189.36 96.48 
L 65.52 96.48 
z
" clip-path="url(#p96dd76ea82)" style="fill: #90caf9; stroke: #000000; stroke-linejoin: miter"/>
   </g>
   <g id="patch_4">
    <path d="M 65.52 238.896 
L 189.36 238.896 
L 189.36 115.056 
L 65.52 115.056 
z
" clip-path="url(#p96dd76ea82)" style="fill: #e3f2fd; opacity: 0.4; stroke: #000000; stroke-linejoin: miter"/>
   </g>
   <g id="patch_5">
    <path d="M 222.319248 158.4 
Q 251.27936 158.4 279.345045 158.4 
" clip-path="url(#p96dd76ea82)" style="fill: none; stroke: #424242; stroke-width: 0.8; stroke-linecap: round"/>
    <path d="M 276.145045 156.8 
L 279.345045 158.4 
L 276.145045 160 
" clip-path="url(#p96dd76ea82)" style="fill: none; stroke: #424242; stroke-width: 0.8; stroke-linecap: round"/>
   </g>
   <g id="patch_6">
    <path d="M 287.1936 221.5584 
L 401.1264 221.5584 
Q 407.3184 221.5584 407.3184 215.3664 
L 407.3184 101.4336 
Q 407.3184 95.2416 401.1264 95.2416 
L 287.1936 95.2416 
Q 281.0016 95.2416 281.0016 101.4336 
L 281.0016 215.3664 
Q 281.0016 221.5584 287.1936 221.5584 
z
" clip-path="url(#p96dd76ea82)" style="fill: #bbdefb; stroke: #000000; stroke-width: 0.8; stroke-linejoin: miter"/>
   </g>
   <g id="patch_7">
    <path d="M 420.463248 158.4 
Q 449.42336 158.4 477.489045 158.4 
" clip-path="url(#p96dd76ea82)" style="fill: none; stroke: #424242; stroke-width: 0.8; stroke-linecap: round"/>
    <path d="M 474.289045 156.8 
L 477.489045 158.4 
L 474.289045 160 
" clip-path="url(#p96dd76ea82)" style="fill: none; stroke: #424242; stroke-width: 0.8; stroke-linecap: round"/>
   </g>
   <g id="patch_8">
    <path d="M 488.4336 215.3664 
L 571.4064 215.3664 
Q 577.5984 215.3664 577.5984 209.1744 
L 577.5984 107.6256 
Q 577.5984 101.4336 571.4064 101.4336 
L 488.4336 101.4336 
Q 482.2416 101.4336 482.2416 107.6256 
L 482.2416 209.1744 
Q 482.2416 215.3664 488.4336 215.3664 
z
" clip-path="url(#p96dd76ea82)" style="fill: #ffcdd2; stroke: #000000; stroke-width: 0.8; stroke-linejoin: miter"/>
   </g>
   <g id="patch_9">
    <path d="M 587.644603 158.4 
Q 613.511692 158.4 638.484355 158.4 
" clip-path="url(#p96dd76ea82)" style="fill: none; stroke: #424242; stroke-width: 0.8; stroke-linecap: round"/>
    <path d="M 635.284355 156.8 
L 638.484355 158.4 
L 635.284355 160 
" clip-path="url(#p96dd76ea82)" style="fill: none; stroke: #424242; stroke-width: 0.8; stroke-linecap: round"/>
   </g>
   <g id="patch_10">
    <path d="M 641.376 220.32 
L 734.256 220.32 
L 734.256 96.48 
L 641.376 96.48 
z
" clip-path="url(#p96dd76ea82)" style="fill: #dcedc8; stroke: #000000; stroke-linejoin: miter"/>
   </g>
   <g id="text_1">
    <!-- 2.5D Slice Processing Concept -->
    <g transform="translate(254.460469 22.176) scale(0.14 -0.14)">
     <defs>
      <path id="TimesNewRomanPS-BoldMT-32" d="M 2650 0 
L 156 0 
L 156 69 
Q 1303 1434 1548 1906 
Q 1794 2378 1794 2828 
Q 1794 3156 1591 3373 
Q 1388 3591 1094 3591 
Q 613 3591 347 3109 
L 231 3150 
Q 400 3750 744 4037 
Q 1088 4325 1538 4325 
Q 1859 4325 2125 4175 
Q 2391 4025 2541 3764 
Q 2691 3503 2691 3275 
Q 2691 2859 2459 2431 
Q 2144 1853 1081 819 
L 1997 819 
Q 2334 819 2436 847 
Q 2538 875 2603 942 
Q 2669 1009 2775 1225 
L 2888 1225 
L 2650 0 
z
" transform="scale(0.015625)"/>
      <path id="TimesNewRomanPS-BoldMT-2e" d="M 800 963 
Q 1019 963 1170 809 
Q 1322 656 1322 441 
Q 1322 225 1169 73 
Q 1016 -78 800 -78 
Q 584 -78 432 73 
Q 281 225 281 441 
Q 281 656 432 809 
Q 584 963 800 963 
z
" transform="scale(0.015625)"/>
      <path id="TimesNewRomanPS-BoldMT-35" d="M 975 4238 
L 2959 4238 
L 2644 3431 
L 975 3431 
L 816 3009 
Q 1894 2969 2475 2472 
Q 2953 2063 2953 1453 
Q 2953 1063 2731 689 
Q 2509 316 2106 114 
Q 1703 -88 1222 -88 
Q 703 -88 425 106 
Q 231 244 231 419 
Q 231 553 332 656 
Q 434 759 569 759 
Q 691 759 816 709 
Q 941 659 1244 447 
Q 1434 316 1572 266 
Q 1669 228 1791 228 
Q 2047 228 2226 415 
Q 2406 603 2406 866 
Q 2406 1416 1856 1759 
Q 1306 2103 469 2103 
Q 384 2103 216 2100 
L 975 4238 
z
" transform="scale(0.015625)"/>
      <path id="TimesNewRomanPS-BoldMT-44" d="M 84 0 
L 84 116 
L 225 116 
Q 409 116 507 173 
Q 606 231 653 331 
Q 681 397 681 725 
L 681 3513 
Q 681 3838 647 3919 
Q 613 4000 508 4061 
Q 403 4122 225 4122 
L 84 4122 
L 84 4238 
L 1981 4238 
Q 2741 4238 3203 4031 
Q 3769 3778 4061 3265 
Q 4353 2753 4353 2106 
Q 4353 1659 4209 1282 
Q 4066 906 3837 661 
Q 3609 416 3311 267 
Q 3013 119 2581 38 
Q 2391 0 1981 0 
L 84 0 
z
M 1700 3997 
L 1700 691 
Q 1700 428 1725 368 
Q 1750 309 1809 278 
Q 1894 231 2053 231 
Q 2575 231 2850 588 
Q 3225 1069 3225 2081 
Q 3225 2897 2969 3384 
Q 2766 3766 2447 3903 
Q 2222 4000 1700 3997 
z
" transform="scale(0.015625)"/>
      <path id="TimesNewRomanPS-BoldMT-20" transform="scale(0.015625)"/>
      <path id="TimesNewRomanPS-BoldMT-53" d="M 3006 4334 
L 3041 2922 
L 2913 2922 
Q 2822 3453 2467 3776 
Q 2113 4100 1700 4100 
Q 1381 4100 1195 3929 
Q 1009 3759 1009 3538 
Q 1009 3397 1075 3288 
Q 1166 3141 1366 2997 
Q 1513 2894 2044 2631 
Q 2788 2266 3047 1941 
Q 3303 1616 3303 1197 
Q 3303 666 2889 283 
Q 2475 -100 1838 -100 
Q 1638 -100 1459 -59 
Q 1281 -19 1013 94 
Q 863 156 766 156 
Q 684 156 593 93 
Q 503 31 447 -97 
L 331 -97 
L 331 1503 
L 447 1503 
Q 584 828 976 473 
Q 1369 119 1822 119 
Q 2172 119 2380 309 
Q 2588 500 2588 753 
Q 2588 903 2508 1043 
Q 2428 1184 2265 1311 
Q 2103 1438 1691 1641 
Q 1113 1925 859 2125 
Q 606 2325 470 2572 
Q 334 2819 334 3116 
Q 334 3622 706 3978 
Q 1078 4334 1644 4334 
Q 1850 4334 2044 4284 
Q 2191 4247 2402 4145 
Q 2613 4044 2697 4044 
Q 2778 4044 2825 4094 
Q 2872 4144 2913 4334 
L 3006 4334 
z
" transform="scale(0.015625)"/>
      <path id="TimesNewRomanPS-BoldMT-6c" d="M 1359 4238 
L 1359 606 
Q 1359 297 1431 211 
Q 1503 125 1713 113 
L 1713 0 
L 134 0 
L 134 113 
Q 328 119 422 225 
Q 484 297 484 606 
L 484 3631 
Q 484 3938 412 4023 
Q 341 4109 134 4122 
L 134 4238 
L 1359 4238 
z
" transform="scale(0.015625)"/>
      <path id="TimesNewRomanPS-BoldMT-69" d="M 919 4338 
Q 1122 4338 1262 4195 
Q 1403 4053 1403 3853 
Q 1403 3653 1261 3512 
Q 1119 3372 919 3372 
Q 719 3372 578 3512 
Q 438 3653 438 3853 
Q 438 4053 578 4195 
Q 719 4338 919 4338 
z
M 1356 2922 
L 1356 606 
Q 1356 297 1428 211 
Q 1500 125 1709 113 
L 1709 0 
L 131 0 
L 131 113 
Q 325 119 419 225 
Q 481 297 481 606 
L 481 2313 
Q 481 2622 409 2708 
Q 338 2794 131 2806 
L 131 2922 
L 1356 2922 
z
" transform="scale(0.015625)"/>
      <path id="TimesNewRomanPS-BoldMT-63" d="M 2600 753 
L 2697 678 
Q 2491 291 2183 101 
Q 1875 -88 1528 -88 
Q 944 -88 594 353 
Q 244 794 244 1413 
Q 244 2009 563 2463 
Q 947 3009 1622 3009 
Q 2075 3009 2342 2781 
Q 2609 2553 2609 2272 
Q 2609 2094 2501 1987 
Q 2394 1881 2219 1881 
Q 2034 1881 1914 2003 
Q 1794 2125 1766 2438 
Q 1747 2634 1675 2713 
Q 1603 2791 1506 2791 
Q 1356 2791 1250 2631 
Q 1088 2391 1088 1894 
Q 1088 1481 1219 1104 
Q 1350 728 1578 544 
Q 1750 409 1984 409 
Q 2138 409 2275 481 
Q 2413 553 2600 753 
z
" transform="scale(0.015625)"/>
      <path id="TimesNewRomanPS-BoldMT-65" d="M 2691 1566 
L 1088 1566 
Q 1116 984 1397 647 
Q 1613 388 1916 388 
Q 2103 388 2256 492 
Q 2409 597 2584 869 
L 2691 800 
Q 2453 316 2165 114 
Q 1878 -88 1500 -88 
Q 850 -88 516 413 
Q 247 816 247 1413 
Q 247 2144 642 2576 
Q 1038 3009 1569 3009 
Q 2013 3009 2339 2645 
Q 2666 2281 2691 1566 
z
M 1922 1775 
Q 1922 2278 1867 2465 
Q 1813 2653 1697 2750 
Q 1631 2806 1522 2806 
Q 1359 2806 1256 2647 
Q 1072 2369 1072 1884 
L 1072 1775 
L 1922 1775 
z
" transform="scale(0.015625)"/>
      <path id="TimesNewRomanPS-BoldMT-50" d="M 1728 1919 
L 1728 744 
Q 1728 400 1770 311 
Q 1813 222 1920 169 
Q 2028 116 2316 116 
L 2316 0 
L 163 0 
L 163 116 
Q 456 116 561 170 
Q 666 225 708 312 
Q 750 400 750 744 
L 750 3494 
Q 750 3838 708 3927 
Q 666 4016 559 4069 
Q 453 4122 163 4122 
L 163 4238 
L 2009 4238 
Q 2922 4238 3319 3913 
Q 3716 3588 3716 3100 
Q 3716 2688 3459 2394 
Q 3203 2100 2753 1994 
Q 2450 1919 1728 1919 
z
M 1728 3994 
L 1728 2163 
Q 1831 2156 1884 2156 
Q 2266 2156 2472 2382 
Q 2678 2609 2678 3084 
Q 2678 3556 2472 3775 
Q 2266 3994 1856 3994 
L 1728 3994 
z
" transform="scale(0.015625)"/>
      <path id="TimesNewRomanPS-BoldMT-72" d="M 1428 2922 
L 1428 2259 
Q 1719 2713 1937 2861 
Q 2156 3009 2359 3009 
Q 2534 3009 2639 2901 
Q 2744 2794 2744 2597 
Q 2744 2388 2642 2272 
Q 2541 2156 2397 2156 
Q 2231 2156 2109 2262 
Q 1988 2369 1966 2381 
Q 1934 2400 1894 2400 
Q 1803 2400 1722 2331 
Q 1594 2225 1528 2028 
Q 1428 1725 1428 1359 
L 1428 688 
L 1431 513 
Q 1431 334 1453 284 
Q 1491 200 1564 161 
Q 1638 122 1813 113 
L 1813 0 
L 234 0 
L 234 113 
Q 425 128 492 217 
Q 559 306 559 688 
L 559 2303 
Q 559 2553 534 2622 
Q 503 2709 443 2750 
Q 384 2791 234 2806 
L 234 2922 
L 1428 2922 
z
" transform="scale(0.015625)"/>
      <path id="TimesNewRomanPS-BoldMT-6f" d="M 1594 3009 
Q 1975 3009 2303 2812 
Q 2631 2616 2801 2253 
Q 2972 1891 2972 1459 
Q 2972 838 2656 419 
Q 2275 -88 1603 -88 
Q 944 -88 587 375 
Q 231 838 231 1447 
Q 231 2075 595 2542 
Q 959 3009 1594 3009 
z
M 1606 2788 
Q 1447 2788 1333 2667 
Q 1219 2547 1183 2192 
Q 1147 1838 1147 1206 
Q 1147 872 1191 581 
Q 1225 359 1337 243 
Q 1450 128 1594 128 
Q 1734 128 1828 206 
Q 1950 313 1991 503 
Q 2053 800 2053 1703 
Q 2053 2234 1993 2432 
Q 1934 2631 1819 2722 
Q 1738 2788 1606 2788 
z
" transform="scale(0.015625)"/>
      <path id="TimesNewRomanPS-BoldMT-73" d="M 2063 3003 
L 2109 2006 
L 2003 2006 
Q 1813 2450 1608 2612 
Q 1403 2775 1200 2775 
Q 1072 2775 981 2689 
Q 891 2603 891 2491 
Q 891 2406 953 2328 
Q 1053 2200 1512 1889 
Q 1972 1578 2117 1361 
Q 2263 1144 2263 875 
Q 2263 631 2141 397 
Q 2019 163 1797 37 
Q 1575 -88 1306 -88 
Q 1097 -88 747 44 
Q 653 78 619 78 
Q 516 78 447 -78 
L 344 -78 
L 294 972 
L 400 972 
Q 541 559 786 353 
Q 1031 147 1250 147 
Q 1400 147 1495 239 
Q 1591 331 1591 463 
Q 1591 613 1497 722 
Q 1403 831 1078 1053 
Q 600 1384 459 1559 
Q 253 1816 253 2125 
Q 253 2463 486 2736 
Q 719 3009 1159 3009 
Q 1397 3009 1619 2894 
Q 1703 2847 1756 2847 
Q 1813 2847 1847 2870 
Q 1881 2894 1956 3003 
L 2063 3003 
z
" transform="scale(0.015625)"/>
      <path id="TimesNewRomanPS-BoldMT-6e" d="M 1409 2922 
L 1409 2544 
Q 1634 2788 1840 2898 
Q 2047 3009 2284 3009 
Q 2569 3009 2756 2851 
Q 2944 2694 3006 2459 
Q 3056 2281 3056 1775 
L 3056 638 
Q 3056 300 3117 217 
Q 3178 134 3372 113 
L 3372 0 
L 1894 0 
L 1894 113 
Q 2059 134 2131 250 
Q 2181 328 2181 638 
L 2181 1938 
Q 2181 2297 2153 2390 
Q 2125 2484 2058 2536 
Q 1991 2588 1909 2588 
Q 1641 2588 1409 2203 
L 1409 638 
Q 1409 309 1470 221 
Q 1531 134 1697 113 
L 1697 0 
L 219 0 
L 219 113 
Q 403 131 481 231 
Q 534 300 534 638 
L 534 2288 
Q 534 2619 473 2700 
Q 413 2781 219 2806 
L 219 2922 
L 1409 2922 
z
" transform="scale(0.015625)"/>
      <path id="TimesNewRomanPS-BoldMT-67" d="M 2091 2888 
L 3075 2888 
L 3075 2544 
L 2516 2544 
Q 2669 2391 2728 2266 
Q 2803 2097 2803 1913 
Q 2803 1600 2629 1370 
Q 2456 1141 2157 1011 
Q 1859 881 1628 881 
Q 1609 881 1253 897 
Q 1113 897 1017 805 
Q 922 713 922 584 
Q 922 472 1008 400 
Q 1094 328 1288 328 
L 1828 334 
Q 2484 334 2731 191 
Q 3084 -9 3084 -425 
Q 3084 -691 2921 -908 
Q 2759 -1125 2494 -1228 
Q 2091 -1381 1566 -1381 
Q 1172 -1381 847 -1304 
Q 522 -1228 381 -1092 
Q 241 -956 241 -806 
Q 241 -663 348 -548 
Q 456 -434 750 -356 
Q 344 -156 344 200 
Q 344 416 509 619 
Q 675 822 1034 972 
Q 616 1125 428 1375 
Q 241 1625 241 1953 
Q 241 2381 591 2695 
Q 941 3009 1491 3009 
Q 1781 3009 2091 2888 
z
M 1550 2816 
Q 1369 2816 1244 2633 
Q 1119 2450 1119 1875 
Q 1119 1409 1242 1236 
Q 1366 1063 1534 1063 
Q 1722 1063 1847 1234 
Q 1972 1406 1972 1903 
Q 1972 2463 1831 2666 
Q 1731 2816 1550 2816 
z
M 1366 -431 
Q 1047 -431 944 -484 
Q 766 -581 766 -747 
Q 766 -906 950 -1036 
Q 1134 -1166 1644 -1166 
Q 2078 -1166 2326 -1050 
Q 2575 -934 2575 -725 
Q 2575 -647 2528 -594 
Q 2444 -500 2273 -465 
Q 2103 -431 1366 -431 
z
" transform="scale(0.015625)"/>
      <path id="TimesNewRomanPS-BoldMT-43" d="M 4272 4334 
L 4272 2866 
L 4150 2866 
Q 4013 3441 3638 3747 
Q 3263 4053 2788 4053 
Q 2391 4053 2059 3825 
Q 1728 3597 1575 3228 
Q 1378 2756 1378 2178 
Q 1378 1609 1522 1142 
Q 1666 675 1972 436 
Q 2278 197 2766 197 
Q 3166 197 3498 372 
Q 3831 547 4200 975 
L 4200 609 
Q 3844 238 3458 70 
Q 3072 -97 2556 -97 
Q 1878 -97 1351 175 
Q 825 447 539 956 
Q 253 1466 253 2041 
Q 253 2647 570 3190 
Q 888 3734 1427 4034 
Q 1966 4334 2572 4334 
Q 3019 4334 3516 4141 
Q 3803 4028 3881 4028 
Q 3981 4028 4054 4101 
Q 4128 4175 4150 4334 
L 4272 4334 
z
" transform="scale(0.015625)"/>
      <path id="TimesNewRomanPS-BoldMT-70" d="M 1347 297 
L 1347 -791 
Q 1347 -1016 1383 -1097 
Q 1419 -1178 1494 -1215 
Q 1569 -1253 1788 -1253 
L 1788 -1369 
L 122 -1369 
L 122 -1253 
Q 316 -1247 409 -1144 
Q 472 -1072 472 -772 
L 472 2313 
Q 472 2622 400 2708 
Q 328 2794 122 2806 
L 122 2922 
L 1347 2922 
L 1347 2538 
Q 1500 2763 1659 2863 
Q 1888 3009 2156 3009 
Q 2478 3009 2742 2806 
Q 3006 2603 3143 2245 
Q 3281 1888 3281 1475 
Q 3281 1031 3139 664 
Q 2997 297 2726 104 
Q 2456 -88 2125 -88 
Q 1884 -88 1675 19 
Q 1519 100 1347 297 
z
M 1347 613 
Q 1616 231 1922 231 
Q 2091 231 2200 409 
Q 2363 672 2363 1409 
Q 2363 2166 2184 2444 
Q 2066 2628 1866 2628 
Q 1550 2628 1347 2172 
L 1347 613 
z
" transform="scale(0.015625)"/>
      <path id="TimesNewRomanPS-BoldMT-74" d="M 1375 3991 
L 1375 2922 
L 2069 2922 
L 2069 2613 
L 1375 2613 
L 1375 809 
Q 1375 556 1398 482 
Q 1422 409 1481 364 
Q 1541 319 1591 319 
Q 1794 319 1975 628 
L 2069 559 
Q 1816 -41 1247 -41 
Q 969 -41 776 114 
Q 584 269 531 459 
Q 500 566 500 1034 
L 500 2613 
L 119 2613 
L 119 2722 
Q 513 3000 789 3306 
Q 1066 3613 1272 3991 
L 1375 3991 
z
" transform="scale(0.015625)"/>
     </defs>
     <use xlink:href="#TimesNewRomanPS-BoldMT-32"/>
     <use xlink:href="#TimesNewRomanPS-BoldMT-2e" transform="translate(50 0)"/>
     <use xlink:href="#TimesNewRomanPS-BoldMT-35" transform="translate(75 0)"/>
     <use xlink:href="#TimesNewRomanPS-BoldMT-44" transform="translate(125 0)"/>
     <use xlink:href="#TimesNewRomanPS-BoldMT-20" transform="translate(197.216797 0)"/>
     <use xlink:href="#TimesNewRomanPS-BoldMT-53" transform="translate(222.216797 0)"/>
     <use xlink:href="#TimesNewRomanPS-BoldMT-6c" transform="translate(277.832031 0)"/>
     <use xlink:href="#TimesNewRomanPS-BoldMT-69" transform="translate(305.615234 0)"/>
     <use xlink:href="#TimesNewRomanPS-BoldMT-63" transform="translate(333.398438 0)"/>
     <use xlink:href="#TimesNewRomanPS-BoldMT-65" transform="translate(377.783203 0)"/>
     <use xlink:href="#TimesNewRomanPS-BoldMT-20" transform="translate(422.167969 0)"/>
     <use xlink:href="#TimesNewRomanPS-BoldMT-50" transform="translate(447.167969 0)"/>
     <use xlink:href="#TimesNewRomanPS-BoldMT-72" transform="translate(508.251953 0)"/>
     <use xlink:href="#TimesNewRomanPS-BoldMT-6f" transform="translate(550.886719 0)"/>
     <use xlink:href="#TimesNewRomanPS-BoldMT-63" transform="translate(600.886719 0)"/>
     <use xlink:href="#TimesNewRomanPS-BoldMT-65" transform="translate(645.271484 0)"/>
     <use xlink:href="#TimesNewRomanPS-BoldMT-73" transform="translate(689.65625 0)"/>
     <use xlink:href="#TimesNewRomanPS-BoldMT-73" transform="translate(728.572266 0)"/>
     <use xlink:href="#TimesNewRomanPS-BoldMT-69" transform="translate(767.488281 0)"/>
     <use xlink:href="#TimesNewRomanPS-BoldMT-6e" transform="translate(795.271484 0)"/>
     <use xlink:href="#TimesNewRomanPS-BoldMT-67" transform="translate(850.886719 0)"/>
     <use xlink:href="#TimesNewRomanPS-BoldMT-20" transform="translate(900.886719 0)"/>
     <use xlink:href="#TimesNewRomanPS-BoldMT-43" transform="translate(925.886719 0)"/>
     <use xlink:href="#TimesNewRomanPS-BoldMT-6f" transform="translate(998.103516 0)"/>
     <use xlink:href="#TimesNewRomanPS-BoldMT-6e" transform="translate(1048.103516 0)"/>
     <use xlink:href="#TimesNewRomanPS-BoldMT-63" transform="translate(1103.71875 0)"/>
     <use xlink:href="#TimesNewRomanPS-BoldMT-65" transform="translate(1148.103516 0)"/>
     <use xlink:href="#TimesNewRomanPS-BoldMT-70" transform="translate(1192.488281 0)"/>
     <use xlink:href="#TimesNewRomanPS-BoldMT-74" transform="translate(1248.103516 0)"/>
    </g>
   </g>
   <g id="text_2">
    <!-- Adjacent -->
    <g transform="translate(111.197109 254.222719) scale(0.09 -0.09)">
     <defs>
      <path id="TimesNewRomanPSMT-41" d="M 2928 1419 
L 1288 1419 
L 1000 750 
Q 894 503 894 381 
Q 894 284 986 211 
Q 1078 138 1384 116 
L 1384 0 
L 50 0 
L 50 116 
Q 316 163 394 238 
Q 553 388 747 847 
L 2238 4334 
L 2347 4334 
L 3822 809 
Q 4000 384 4145 257 
Q 4291 131 4550 116 
L 4550 0 
L 2878 0 
L 2878 116 
Q 3131 128 3220 200 
Q 3309 272 3309 375 
Q 3309 513 3184 809 
L 2928 1419 
z
M 2841 1650 
L 2122 3363 
L 1384 1650 
L 2841 1650 
z
" transform="scale(0.015625)"/>
      <path id="TimesNewRomanPSMT-64" d="M 2222 322 
Q 2013 103 1813 7 
Q 1613 -88 1381 -88 
Q 913 -88 563 304 
Q 213 697 213 1313 
Q 213 1928 600 2439 
Q 988 2950 1597 2950 
Q 1975 2950 2222 2709 
L 2222 3238 
Q 2222 3728 2198 3840 
Q 2175 3953 2125 3993 
Q 2075 4034 2000 4034 
Q 1919 4034 1784 3984 
L 1744 4094 
L 2597 4444 
L 2738 4444 
L 2738 1134 
Q 2738 631 2761 520 
Q 2784 409 2836 365 
Q 2888 322 2956 322 
Q 3041 322 3181 375 
L 3216 266 
L 2366 -88 
L 2222 -88 
L 2222 322 
z
M 2222 541 
L 2222 2016 
Q 2203 2228 2109 2403 
Q 2016 2578 1861 2667 
Q 1706 2756 1559 2756 
Q 1284 2756 1069 2509 
Q 784 2184 784 1559 
Q 784 928 1059 592 
Q 1334 256 1672 256 
Q 1956 256 2222 541 
z
" transform="scale(0.015625)"/>
      <path id="TimesNewRomanPSMT-6a" d="M 925 4447 
Q 1059 4447 1153 4353 
Q 1247 4259 1247 4125 
Q 1247 3994 1153 3900 
Q 1059 3806 925 3806 
Q 794 3806 700 3900 
Q 606 3994 606 4125 
Q 606 4259 700 4353 
Q 794 4447 925 4447 
z
M 1194 2947 
L 1194 66 
Q 1194 -669 881 -1025 
Q 569 -1381 69 -1381 
Q -216 -1381 -353 -1278 
Q -491 -1175 -491 -1066 
Q -491 -956 -414 -878 
Q -338 -800 -234 -800 
Q -153 -800 -69 -841 
Q -16 -863 136 -998 
Q 288 -1134 391 -1134 
Q 466 -1134 537 -1076 
Q 609 -1019 643 -883 
Q 678 -747 678 -294 
L 678 1744 
Q 678 2216 650 2350 
Q 628 2453 581 2492 
Q 534 2531 453 2531 
Q 366 2531 241 2484 
L 197 2597 
L 1059 2947 
L 1194 2947 
z
" transform="scale(0.015625)"/>
      <path id="TimesNewRomanPSMT-61" d="M 1822 413 
Q 1381 72 1269 19 
Q 1100 -59 909 -59 
Q 613 -59 420 144 
Q 228 347 228 678 
Q 228 888 322 1041 
Q 450 1253 767 1440 
Q 1084 1628 1822 1897 
L 1822 2009 
Q 1822 2438 1686 2597 
Q 1550 2756 1291 2756 
Q 1094 2756 978 2650 
Q 859 2544 859 2406 
L 866 2225 
Q 866 2081 792 2003 
Q 719 1925 600 1925 
Q 484 1925 411 2006 
Q 338 2088 338 2228 
Q 338 2497 613 2722 
Q 888 2947 1384 2947 
Q 1766 2947 2009 2819 
Q 2194 2722 2281 2516 
Q 2338 2381 2338 1966 
L 2338 994 
Q 2338 584 2353 492 
Q 2369 400 2405 369 
Q 2441 338 2488 338 
Q 2538 338 2575 359 
Q 2641 400 2828 588 
L 2828 413 
Q 2478 -56 2159 -56 
Q 2006 -56 1915 50 
Q 1825 156 1822 413 
z
M 1822 616 
L 1822 1706 
Q 1350 1519 1213 1441 
Q 966 1303 859 1153 
Q 753 1003 753 825 
Q 753 600 887 451 
Q 1022 303 1197 303 
Q 1434 303 1822 616 
z
" transform="scale(0.015625)"/>
      <path id="TimesNewRomanPSMT-63" d="M 2631 1088 
Q 2516 522 2178 217 
Q 1841 -88 1431 -88 
Q 944 -88 581 321 
Q 219 731 219 1428 
Q 219 2103 620 2525 
Q 1022 2947 1584 2947 
Q 2006 2947 2278 2723 
Q 2550 2500 2550 2259 
Q 2550 2141 2473 2067 
Q 2397 1994 2259 1994 
Q 2075 1994 1981 2113 
Q 1928 2178 1911 2362 
Q 1894 2547 1784 2644 
Q 1675 2738 1481 2738 
Q 1169 2738 978 2506 
Q 725 2200 725 1697 
Q 725 1184 976 792 
Q 1228 400 1656 400 
Q 1963 400 2206 609 
Q 2378 753 2541 1131 
L 2631 1088 
z
" transform="scale(0.015625)"/>
      <path id="TimesNewRomanPSMT-65" d="M 681 1784 
Q 678 1147 991 784 
Q 1303 422 1725 422 
Q 2006 422 2214 576 
Q 2422 731 2563 1106 
L 2659 1044 
Q 2594 616 2278 264 
Q 1963 -88 1488 -88 
Q 972 -88 605 314 
Q 238 716 238 1394 
Q 238 2128 614 2539 
Q 991 2950 1559 2950 
Q 2041 2950 2350 2633 
Q 2659 2316 2659 1784 
L 681 1784 
z
M 681 1966 
L 2006 1966 
Q 1991 2241 1941 2353 
Q 1863 2528 1708 2628 
Q 1553 2728 1384 2728 
Q 1125 2728 920 2526 
Q 716 2325 681 1966 
z
" transform="scale(0.015625)"/>
      <path id="TimesNewRomanPSMT-6e" d="M 1034 2341 
Q 1538 2947 1994 2947 
Q 2228 2947 2397 2830 
Q 2566 2713 2666 2444 
Q 2734 2256 2734 1869 
L 2734 647 
Q 2734 375 2778 278 
Q 2813 200 2889 156 
Q 2966 113 3172 113 
L 3172 0 
L 1756 0 
L 1756 113 
L 1816 113 
Q 2016 113 2095 173 
Q 2175 234 2206 353 
Q 2219 400 2219 647 
L 2219 1819 
Q 2219 2209 2117 2386 
Q 2016 2563 1775 2563 
Q 1403 2563 1034 2156 
L 1034 647 
Q 1034 356 1069 288 
Q 1113 197 1189 155 
Q 1266 113 1500 113 
L 1500 0 
L 84 0 
L 84 113 
L 147 113 
Q 366 113 442 223 
Q 519 334 519 647 
L 519 1709 
Q 519 2225 495 2337 
Q 472 2450 423 2490 
Q 375 2531 294 2531 
Q 206 2531 84 2484 
L 38 2597 
L 900 2947 
L 1034 2947 
L 1034 2341 
z
" transform="scale(0.015625)"/>
      <path id="TimesNewRomanPSMT-74" d="M 1031 3803 
L 1031 2863 
L 1700 2863 
L 1700 2644 
L 1031 2644 
L 1031 788 
Q 1031 509 1111 412 
Q 1191 316 1316 316 
Q 1419 316 1516 380 
Q 1613 444 1666 569 
L 1788 569 
Q 1678 263 1478 108 
Q 1278 -47 1066 -47 
Q 922 -47 784 33 
Q 647 113 581 261 
Q 516 409 516 719 
L 516 2644 
L 63 2644 
L 63 2747 
Q 234 2816 414 2980 
Q 594 3144 734 3369 
Q 806 3488 934 3803 
L 1031 3803 
z
" transform="scale(0.015625)"/>
     </defs>
     <use xlink:href="#TimesNewRomanPSMT-41"/>
     <use xlink:href="#TimesNewRomanPSMT-64" transform="translate(72.216797 0)"/>
     <use xlink:href="#TimesNewRomanPSMT-6a" transform="translate(122.216797 0)"/>
     <use xlink:href="#TimesNewRomanPSMT-61" transform="translate(150 0)"/>
     <use xlink:href="#TimesNewRomanPSMT-63" transform="translate(194.384766 0)"/>
     <use xlink:href="#TimesNewRomanPSMT-65" transform="translate(238.769531 0)"/>
     <use xlink:href="#TimesNewRomanPSMT-6e" transform="translate(283.154297 0)"/>
     <use xlink:href="#TimesNewRomanPSMT-74" transform="translate(333.154297 0)"/>
    </g>
    <!-- Slices -->
    <g transform="translate(116.690625 263.664) scale(0.09 -0.09)">
     <defs>
      <path id="TimesNewRomanPSMT-53" d="M 2934 4334 
L 2934 2869 
L 2819 2869 
Q 2763 3291 2617 3541 
Q 2472 3791 2203 3937 
Q 1934 4084 1647 4084 
Q 1322 4084 1109 3886 
Q 897 3688 897 3434 
Q 897 3241 1031 3081 
Q 1225 2847 1953 2456 
Q 2547 2138 2764 1967 
Q 2981 1797 3098 1565 
Q 3216 1334 3216 1081 
Q 3216 600 2842 251 
Q 2469 -97 1881 -97 
Q 1697 -97 1534 -69 
Q 1438 -53 1133 45 
Q 828 144 747 144 
Q 669 144 623 97 
Q 578 50 556 -97 
L 441 -97 
L 441 1356 
L 556 1356 
Q 638 900 775 673 
Q 913 447 1195 297 
Q 1478 147 1816 147 
Q 2206 147 2432 353 
Q 2659 559 2659 841 
Q 2659 997 2573 1156 
Q 2488 1316 2306 1453 
Q 2184 1547 1640 1851 
Q 1097 2156 867 2337 
Q 638 2519 519 2737 
Q 400 2956 400 3219 
Q 400 3675 750 4004 
Q 1100 4334 1641 4334 
Q 1978 4334 2356 4169 
Q 2531 4091 2603 4091 
Q 2684 4091 2736 4139 
Q 2788 4188 2819 4334 
L 2934 4334 
z
" transform="scale(0.015625)"/>
      <path id="TimesNewRomanPSMT-6c" d="M 1184 4444 
L 1184 647 
Q 1184 378 1223 290 
Q 1263 203 1344 158 
Q 1425 113 1647 113 
L 1647 0 
L 244 0 
L 244 113 
Q 441 113 512 153 
Q 584 194 625 287 
Q 666 381 666 647 
L 666 3247 
Q 666 3731 644 3842 
Q 622 3953 573 3993 
Q 525 4034 450 4034 
Q 369 4034 244 3984 
L 191 4094 
L 1044 4444 
L 1184 4444 
z
" transform="scale(0.015625)"/>
      <path id="TimesNewRomanPSMT-69" d="M 928 4444 
Q 1059 4444 1151 4351 
Q 1244 4259 1244 4128 
Q 1244 3997 1151 3903 
Q 1059 3809 928 3809 
Q 797 3809 703 3903 
Q 609 3997 609 4128 
Q 609 4259 701 4351 
Q 794 4444 928 4444 
z
M 1188 2947 
L 1188 647 
Q 1188 378 1227 289 
Q 1266 200 1342 156 
Q 1419 113 1622 113 
L 1622 0 
L 231 0 
L 231 113 
Q 441 113 512 153 
Q 584 194 626 287 
Q 669 381 669 647 
L 669 1750 
Q 669 2216 641 2353 
Q 619 2453 572 2492 
Q 525 2531 444 2531 
Q 356 2531 231 2484 
L 188 2597 
L 1050 2947 
L 1188 2947 
z
" transform="scale(0.015625)"/>
      <path id="TimesNewRomanPSMT-73" d="M 2050 2947 
L 2050 1972 
L 1947 1972 
Q 1828 2431 1642 2597 
Q 1456 2763 1169 2763 
Q 950 2763 815 2647 
Q 681 2531 681 2391 
Q 681 2216 781 2091 
Q 878 1963 1175 1819 
L 1631 1597 
Q 2266 1288 2266 781 
Q 2266 391 1970 151 
Q 1675 -88 1309 -88 
Q 1047 -88 709 6 
Q 606 38 541 38 
Q 469 38 428 -44 
L 325 -44 
L 325 978 
L 428 978 
Q 516 541 762 319 
Q 1009 97 1316 97 
Q 1531 97 1667 223 
Q 1803 350 1803 528 
Q 1803 744 1651 891 
Q 1500 1038 1047 1263 
Q 594 1488 453 1669 
Q 313 1847 313 2119 
Q 313 2472 555 2709 
Q 797 2947 1181 2947 
Q 1350 2947 1591 2875 
Q 1750 2828 1803 2828 
Q 1853 2828 1881 2850 
Q 1909 2872 1947 2947 
L 2050 2947 
z
" transform="scale(0.015625)"/>
     </defs>
     <use xlink:href="#TimesNewRomanPSMT-53"/>
     <use xlink:href="#TimesNewRomanPSMT-6c" transform="translate(55.615234 0)"/>
     <use xlink:href="#TimesNewRomanPSMT-69" transform="translate(83.398438 0)"/>
     <use xlink:href="#TimesNewRomanPSMT-63" transform="translate(111.181641 0)"/>
     <use xlink:href="#TimesNewRomanPSMT-65" transform="translate(155.566406 0)"/>
     <use xlink:href="#TimesNewRomanPSMT-73" transform="translate(199.951172 0)"/>
    </g>
   </g>
   <g id="text_3">
    <!-- i-1, i, i+1 -->
    <g transform="translate(112.075 53.136) scale(0.08 -0.08)">
     <defs>
      <path id="TimesNewRomanPS-ItalicMT-69" d="M 1431 4069 
Q 1563 4069 1653 3978 
Q 1744 3888 1744 3756 
Q 1744 3628 1651 3536 
Q 1559 3444 1431 3444 
Q 1303 3444 1211 3536 
Q 1119 3628 1119 3756 
Q 1119 3888 1209 3978 
Q 1300 4069 1431 4069 
z
M 1472 2828 
L 853 638 
Q 791 416 791 372 
Q 791 322 820 290 
Q 850 259 891 259 
Q 938 259 1003 309 
Q 1181 450 1363 709 
L 1472 638 
Q 1259 313 972 91 
Q 759 -75 566 -75 
Q 438 -75 356 1 
Q 275 78 275 194 
Q 275 309 353 578 
L 759 1978 
Q 859 2322 859 2409 
Q 859 2478 811 2522 
Q 763 2566 678 2566 
Q 609 2566 394 2531 
L 394 2653 
L 1472 2828 
z
" transform="scale(0.015625)"/>
      <path id="TimesNewRomanPS-ItalicMT-2d" d="M 1916 1597 
L 1788 1181 
L 169 1181 
L 297 1597 
L 1916 1597 
z
" transform="scale(0.015625)"/>
      <path id="TimesNewRomanPS-ItalicMT-31" d="M 2672 4325 
L 1666 822 
Q 1578 513 1578 375 
Q 1578 259 1658 198 
Q 1738 138 2031 116 
L 2000 0 
L 391 0 
L 434 116 
Q 691 122 772 156 
Q 903 213 969 306 
Q 1072 450 1178 822 
L 1903 3338 
Q 1969 3566 1975 3600 
Q 1984 3663 1984 3722 
Q 1984 3831 1925 3893 
Q 1866 3956 1763 3956 
Q 1681 3956 1509 3919 
L 1469 4031 
L 2522 4325 
L 2672 4325 
z
" transform="scale(0.015625)"/>
      <path id="TimesNewRomanPS-ItalicMT-2c" d="M -66 -703 
Q 169 -597 316 -434 
Q 428 -309 428 -194 
Q 428 -138 409 -91 
Q 397 -66 322 9 
Q 247 84 238 113 
Q 216 166 216 234 
Q 216 369 308 466 
Q 400 563 525 563 
Q 653 563 751 459 
Q 850 356 850 200 
Q 850 -78 631 -362 
Q 413 -647 -3 -803 
L -66 -703 
z
" transform="scale(0.015625)"/>
      <path id="TimesNewRomanPS-ItalicMT-20" transform="scale(0.015625)"/>
      <path id="TimesNewRomanPS-ItalicMT-2b" d="M 2147 441 
L 2147 2000 
L 594 2000 
L 594 2256 
L 2147 2256 
L 2147 3809 
L 2403 3809 
L 2403 2256 
L 3963 2256 
L 3963 2000 
L 2403 2000 
L 2403 441 
L 2147 441 
z
" transform="scale(0.015625)"/>
     </defs>
     <use xlink:href="#TimesNewRomanPS-ItalicMT-69"/>
     <use xlink:href="#TimesNewRomanPS-ItalicMT-2d" transform="translate(27.783203 0)"/>
     <use xlink:href="#TimesNewRomanPS-ItalicMT-31" transform="translate(61.083984 0)"/>
     <use xlink:href="#TimesNewRomanPS-ItalicMT-2c" transform="translate(111.083984 0)"/>
     <use xlink:href="#TimesNewRomanPS-ItalicMT-20" transform="translate(136.083984 0)"/>
     <use xlink:href="#TimesNewRomanPS-ItalicMT-69" transform="translate(161.083984 0)"/>
     <use xlink:href="#TimesNewRomanPS-ItalicMT-2c" transform="translate(188.867188 0)"/>
     <use xlink:href="#TimesNewRomanPS-ItalicMT-20" transform="translate(213.867188 0)"/>
     <use xlink:href="#TimesNewRomanPS-ItalicMT-69" transform="translate(238.867188 0)"/>
     <use xlink:href="#TimesNewRomanPS-ItalicMT-2b" transform="translate(266.650391 0)"/>
     <use xlink:href="#TimesNewRomanPS-ItalicMT-31" transform="translate(334.130859 0)"/>
    </g>
   </g>
   <g id="text_4">
    <!-- 2.5D Input -->
    <g style="fill: #212121" transform="translate(324.661641 151.137703) scale(0.09 -0.09)">
     <defs>
      <path id="TimesNewRomanPSMT-32" d="M 2934 816 
L 2638 0 
L 138 0 
L 138 116 
Q 1241 1122 1691 1759 
Q 2141 2397 2141 2925 
Q 2141 3328 1894 3587 
Q 1647 3847 1303 3847 
Q 991 3847 742 3664 
Q 494 3481 375 3128 
L 259 3128 
Q 338 3706 661 4015 
Q 984 4325 1469 4325 
Q 1984 4325 2329 3994 
Q 2675 3663 2675 3213 
Q 2675 2891 2525 2569 
Q 2294 2063 1775 1497 
Q 997 647 803 472 
L 1909 472 
Q 2247 472 2383 497 
Q 2519 522 2628 598 
Q 2738 675 2819 816 
L 2934 816 
z
" transform="scale(0.015625)"/>
      <path id="TimesNewRomanPSMT-2e" d="M 800 606 
Q 947 606 1047 504 
Q 1147 403 1147 259 
Q 1147 116 1045 14 
Q 944 -88 800 -88 
Q 656 -88 554 14 
Q 453 116 453 259 
Q 453 406 554 506 
Q 656 606 800 606 
z
" transform="scale(0.015625)"/>
      <path id="TimesNewRomanPSMT-35" d="M 2778 4238 
L 2534 3706 
L 1259 3706 
L 981 3138 
Q 1809 3016 2294 2522 
Q 2709 2097 2709 1522 
Q 2709 1188 2573 903 
Q 2438 619 2231 419 
Q 2025 219 1772 97 
Q 1413 -75 1034 -75 
Q 653 -75 479 54 
Q 306 184 306 341 
Q 306 428 378 495 
Q 450 563 559 563 
Q 641 563 702 538 
Q 763 513 909 409 
Q 1144 247 1384 247 
Q 1750 247 2026 523 
Q 2303 800 2303 1197 
Q 2303 1581 2056 1914 
Q 1809 2247 1375 2428 
Q 1034 2569 447 2591 
L 1259 4238 
L 2778 4238 
z
" transform="scale(0.015625)"/>
      <path id="TimesNewRomanPSMT-44" d="M 109 0 
L 109 116 
L 269 116 
Q 538 116 650 288 
Q 719 391 719 750 
L 719 3488 
Q 719 3884 631 3984 
Q 509 4122 269 4122 
L 109 4122 
L 109 4238 
L 1834 4238 
Q 2784 4238 3279 4022 
Q 3775 3806 4076 3303 
Q 4378 2800 4378 2141 
Q 4378 1256 3841 663 
Q 3238 0 2003 0 
L 109 0 
z
M 1319 306 
Q 1716 219 1984 219 
Q 2709 219 3187 728 
Q 3666 1238 3666 2109 
Q 3666 2988 3187 3494 
Q 2709 4000 1959 4000 
Q 1678 4000 1319 3909 
L 1319 306 
z
" transform="scale(0.015625)"/>
      <path id="TimesNewRomanPSMT-20" transform="scale(0.015625)"/>
      <path id="TimesNewRomanPSMT-49" d="M 1975 116 
L 1975 0 
L 159 0 
L 159 116 
L 309 116 
Q 572 116 691 269 
Q 766 369 766 750 
L 766 3488 
Q 766 3809 725 3913 
Q 694 3991 597 4047 
Q 459 4122 309 4122 
L 159 4122 
L 159 4238 
L 1975 4238 
L 1975 4122 
L 1822 4122 
Q 1563 4122 1444 3969 
Q 1366 3869 1366 3488 
L 1366 750 
Q 1366 428 1406 325 
Q 1438 247 1538 191 
Q 1672 116 1822 116 
L 1975 116 
z
" transform="scale(0.015625)"/>
      <path id="TimesNewRomanPSMT-70" d="M -6 2578 
L 875 2934 
L 994 2934 
L 994 2266 
Q 1216 2644 1439 2795 
Q 1663 2947 1909 2947 
Q 2341 2947 2628 2609 
Q 2981 2197 2981 1534 
Q 2981 794 2556 309 
Q 2206 -88 1675 -88 
Q 1444 -88 1275 -22 
Q 1150 25 994 166 
L 994 -706 
Q 994 -1000 1030 -1079 
Q 1066 -1159 1155 -1206 
Q 1244 -1253 1478 -1253 
L 1478 -1369 
L -22 -1369 
L -22 -1253 
L 56 -1253 
Q 228 -1256 350 -1188 
Q 409 -1153 442 -1076 
Q 475 -1000 475 -688 
L 475 2019 
Q 475 2297 450 2372 
Q 425 2447 370 2484 
Q 316 2522 222 2522 
Q 147 2522 31 2478 
L -6 2578 
z
M 994 2081 
L 994 1013 
Q 994 666 1022 556 
Q 1066 375 1236 237 
Q 1406 100 1666 100 
Q 1978 100 2172 344 
Q 2425 663 2425 1241 
Q 2425 1897 2138 2250 
Q 1938 2494 1663 2494 
Q 1513 2494 1366 2419 
Q 1253 2363 994 2081 
z
" transform="scale(0.015625)"/>
      <path id="TimesNewRomanPSMT-75" d="M 2709 2863 
L 2709 1128 
Q 2709 631 2732 520 
Q 2756 409 2807 365 
Q 2859 322 2928 322 
Q 3025 322 3147 375 
L 3191 266 
L 2334 -88 
L 2194 -88 
L 2194 519 
Q 1825 119 1631 15 
Q 1438 -88 1222 -88 
Q 981 -88 804 51 
Q 628 191 559 409 
Q 491 628 491 1028 
L 491 2306 
Q 491 2509 447 2587 
Q 403 2666 317 2708 
Q 231 2750 6 2747 
L 6 2863 
L 1009 2863 
L 1009 947 
Q 1009 547 1148 422 
Q 1288 297 1484 297 
Q 1619 297 1789 381 
Q 1959 466 2194 703 
L 2194 2325 
Q 2194 2569 2105 2655 
Q 2016 2741 1734 2747 
L 1734 2863 
L 2709 2863 
z
" transform="scale(0.015625)"/>
     </defs>
     <use xlink:href="#TimesNewRomanPSMT-32"/>
     <use xlink:href="#TimesNewRomanPSMT-2e" transform="translate(50 0)"/>
     <use xlink:href="#TimesNewRomanPSMT-35" transform="translate(75 0)"/>
     <use xlink:href="#TimesNewRomanPSMT-44" transform="translate(125 0)"/>
     <use xlink:href="#TimesNewRomanPSMT-20" transform="translate(197.216797 0)"/>
     <use xlink:href="#TimesNewRomanPSMT-49" transform="translate(222.216797 0)"/>
     <use xlink:href="#TimesNewRomanPSMT-6e" transform="translate(255.517578 0)"/>
     <use xlink:href="#TimesNewRomanPSMT-70" transform="translate(305.517578 0)"/>
     <use xlink:href="#TimesNewRomanPSMT-75" transform="translate(355.517578 0)"/>
     <use xlink:href="#TimesNewRomanPSMT-74" transform="translate(405.517578 0)"/>
    </g>
    <!-- [3×4, H, W] -->
    <g style="fill: #212121" transform="translate(322.207031 160.562109) scale(0.09 -0.09)">
     <defs>
      <path id="TimesNewRomanPSMT-5b" d="M 1900 -1269 
L 525 -1269 
L 525 4334 
L 1900 4334 
L 1900 4088 
L 994 4088 
L 994 -1025 
L 1900 -1025 
L 1900 -1269 
z
" transform="scale(0.015625)"/>
      <path id="TimesNewRomanPSMT-33" d="M 325 3431 
Q 506 3859 782 4092 
Q 1059 4325 1472 4325 
Q 1981 4325 2253 3994 
Q 2459 3747 2459 3466 
Q 2459 3003 1878 2509 
Q 2269 2356 2469 2072 
Q 2669 1788 2669 1403 
Q 2669 853 2319 450 
Q 1863 -75 997 -75 
Q 569 -75 414 31 
Q 259 138 259 259 
Q 259 350 332 419 
Q 406 488 509 488 
Q 588 488 669 463 
Q 722 447 909 348 
Q 1097 250 1169 231 
Q 1284 197 1416 197 
Q 1734 197 1970 444 
Q 2206 691 2206 1028 
Q 2206 1275 2097 1509 
Q 2016 1684 1919 1775 
Q 1784 1900 1550 2001 
Q 1316 2103 1072 2103 
L 972 2103 
L 972 2197 
Q 1219 2228 1467 2375 
Q 1716 2522 1828 2728 
Q 1941 2934 1941 3181 
Q 1941 3503 1739 3701 
Q 1538 3900 1238 3900 
Q 753 3900 428 3381 
L 325 3431 
z
" transform="scale(0.015625)"/>
      <path id="TimesNewRomanPSMT-d7" d="M 516 1025 
L 1619 2128 
L 519 3228 
L 700 3409 
L 1800 2309 
L 2900 3409 
L 3075 3231 
L 1975 2131 
L 3081 1025 
L 2903 844 
L 1797 1950 
L 694 847 
L 516 1025 
z
" transform="scale(0.015625)"/>
      <path id="TimesNewRomanPSMT-34" d="M 2978 1563 
L 2978 1119 
L 2409 1119 
L 2409 0 
L 1894 0 
L 1894 1119 
L 100 1119 
L 100 1519 
L 2066 4325 
L 2409 4325 
L 2409 1563 
L 2978 1563 
z
M 1894 1563 
L 1894 3666 
L 406 1563 
L 1894 1563 
z
" transform="scale(0.015625)"/>
      <path id="TimesNewRomanPSMT-2c" d="M 344 -1066 
L 344 -928 
Q 666 -822 842 -598 
Q 1019 -375 1019 -125 
Q 1019 -66 991 -25 
Q 969 3 947 3 
Q 913 3 797 -59 
Q 741 -88 678 -88 
Q 525 -88 434 3 
Q 344 94 344 253 
Q 344 406 461 515 
Q 578 625 747 625 
Q 953 625 1114 445 
Q 1275 266 1275 -31 
Q 1275 -353 1051 -629 
Q 828 -906 344 -1066 
z
" transform="scale(0.015625)"/>
      <path id="TimesNewRomanPSMT-48" d="M 1316 2272 
L 3284 2272 
L 3284 3484 
Q 3284 3809 3244 3913 
Q 3213 3991 3113 4047 
Q 2978 4122 2828 4122 
L 2678 4122 
L 2678 4238 
L 4491 4238 
L 4491 4122 
L 4341 4122 
Q 4191 4122 4056 4050 
Q 3956 4000 3920 3898 
Q 3884 3797 3884 3484 
L 3884 750 
Q 3884 428 3925 325 
Q 3956 247 4053 191 
Q 4191 116 4341 116 
L 4491 116 
L 4491 0 
L 2678 0 
L 2678 116 
L 2828 116 
Q 3088 116 3206 269 
Q 3284 369 3284 750 
L 3284 2041 
L 1316 2041 
L 1316 750 
Q 1316 428 1356 325 
Q 1388 247 1488 191 
Q 1622 116 1772 116 
L 1925 116 
L 1925 0 
L 109 0 
L 109 116 
L 259 116 
Q 522 116 641 269 
Q 716 369 716 750 
L 716 3484 
Q 716 3809 675 3913 
Q 644 3991 547 4047 
Q 409 4122 259 4122 
L 109 4122 
L 109 4238 
L 1925 4238 
L 1925 4122 
L 1772 4122 
Q 1622 4122 1488 4050 
Q 1391 4000 1353 3898 
Q 1316 3797 1316 3484 
L 1316 2272 
z
" transform="scale(0.015625)"/>
      <path id="TimesNewRomanPSMT-57" d="M 5991 4238 
L 5991 4122 
Q 5825 4122 5722 4062 
Q 5619 4003 5525 3841 
Q 5463 3731 5328 3319 
L 4147 -97 
L 4022 -97 
L 3056 2613 
L 2097 -97 
L 1984 -97 
L 725 3422 
Q 584 3816 547 3888 
Q 484 4006 376 4064 
Q 269 4122 84 4122 
L 84 4238 
L 1653 4238 
L 1653 4122 
L 1578 4122 
Q 1413 4122 1325 4047 
Q 1238 3972 1238 3866 
Q 1238 3756 1375 3363 
L 2209 984 
L 2913 3006 
L 2788 3363 
L 2688 3647 
Q 2622 3803 2541 3922 
Q 2500 3981 2441 4022 
Q 2363 4078 2284 4103 
Q 2225 4122 2097 4122 
L 2097 4238 
L 3747 4238 
L 3747 4122 
L 3634 4122 
Q 3459 4122 3378 4047 
Q 3297 3972 3297 3844 
Q 3297 3684 3438 3288 
L 4250 984 
L 5056 3319 
Q 5194 3706 5194 3856 
Q 5194 3928 5148 3990 
Q 5103 4053 5034 4078 
Q 4916 4122 4725 4122 
L 4725 4238 
L 5991 4238 
z
" transform="scale(0.015625)"/>
      <path id="TimesNewRomanPSMT-5d" d="M 234 4334 
L 1609 4334 
L 1609 -1272 
L 234 -1272 
L 234 -1025 
L 1141 -1025 
L 1141 4088 
L 234 4088 
L 234 4334 
z
" transform="scale(0.015625)"/>
     </defs>
     <use xlink:href="#TimesNewRomanPSMT-5b"/>
     <use xlink:href="#TimesNewRomanPSMT-33" transform="translate(33.300781 0)"/>
     <use xlink:href="#TimesNewRomanPSMT-d7" transform="translate(83.300781 0)"/>
     <use xlink:href="#TimesNewRomanPSMT-34" transform="translate(139.697266 0)"/>
     <use xlink:href="#TimesNewRomanPSMT-2c" transform="translate(189.697266 0)"/>
     <use xlink:href="#TimesNewRomanPSMT-20" transform="translate(214.697266 0)"/>
     <use xlink:href="#TimesNewRomanPSMT-48" transform="translate(239.697266 0)"/>
     <use xlink:href="#TimesNewRomanPSMT-2c" transform="translate(311.914062 0)"/>
     <use xlink:href="#TimesNewRomanPSMT-20" transform="translate(336.914062 0)"/>
     <use xlink:href="#TimesNewRomanPSMT-57" transform="translate(360.164062 0)"/>
     <use xlink:href="#TimesNewRomanPSMT-5d" transform="translate(454.548828 0)"/>
    </g>
    <!-- 12 channels -->
    <g style="fill: #212121" transform="translate(322.790625 169.986516) scale(0.09 -0.09)">
     <defs>
      <path id="TimesNewRomanPSMT-31" d="M 750 3822 
L 1781 4325 
L 1884 4325 
L 1884 747 
Q 1884 391 1914 303 
Q 1944 216 2037 169 
Q 2131 122 2419 116 
L 2419 0 
L 825 0 
L 825 116 
Q 1125 122 1212 167 
Q 1300 213 1334 289 
Q 1369 366 1369 747 
L 1369 3034 
Q 1369 3497 1338 3628 
Q 1316 3728 1258 3775 
Q 1200 3822 1119 3822 
Q 1003 3822 797 3725 
L 750 3822 
z
" transform="scale(0.015625)"/>
      <path id="TimesNewRomanPSMT-68" d="M 1041 4444 
L 1041 2350 
Q 1388 2731 1591 2839 
Q 1794 2947 1997 2947 
Q 2241 2947 2416 2812 
Q 2591 2678 2675 2391 
Q 2734 2191 2734 1659 
L 2734 647 
Q 2734 375 2778 275 
Q 2809 200 2884 156 
Q 2959 113 3159 113 
L 3159 0 
L 1753 0 
L 1753 113 
L 1819 113 
Q 2019 113 2097 173 
Q 2175 234 2206 353 
Q 2216 403 2216 647 
L 2216 1659 
Q 2216 2128 2167 2275 
Q 2119 2422 2012 2495 
Q 1906 2569 1756 2569 
Q 1603 2569 1437 2487 
Q 1272 2406 1041 2159 
L 1041 647 
Q 1041 353 1073 281 
Q 1106 209 1195 161 
Q 1284 113 1503 113 
L 1503 0 
L 84 0 
L 84 113 
Q 275 113 384 172 
Q 447 203 484 290 
Q 522 378 522 647 
L 522 3238 
Q 522 3728 498 3840 
Q 475 3953 426 3993 
Q 378 4034 297 4034 
Q 231 4034 84 3984 
L 41 4094 
L 897 4444 
L 1041 4444 
z
" transform="scale(0.015625)"/>
     </defs>
     <use xlink:href="#TimesNewRomanPSMT-31"/>
     <use xlink:href="#TimesNewRomanPSMT-32" transform="translate(50 0)"/>
     <use xlink:href="#TimesNewRomanPSMT-20" transform="translate(100 0)"/>
     <use xlink:href="#TimesNewRomanPSMT-63" transform="translate(125 0)"/>
     <use xlink:href="#TimesNewRomanPSMT-68" transform="translate(169.384766 0)"/>
     <use xlink:href="#TimesNewRomanPSMT-61" transform="translate(219.384766 0)"/>
     <use xlink:href="#TimesNewRomanPSMT-6e" transform="translate(263.769531 0)"/>
     <use xlink:href="#TimesNewRomanPSMT-6e" transform="translate(313.769531 0)"/>
     <use xlink:href="#TimesNewRomanPSMT-65" transform="translate(363.769531 0)"/>
     <use xlink:href="#TimesNewRomanPSMT-6c" transform="translate(408.154297 0)"/>
     <use xlink:href="#TimesNewRomanPSMT-73" transform="translate(435.9375 0)"/>
    </g>
   </g>
   <g id="text_5">
    <!-- Generator -->
    <g style="fill: #212121" transform="translate(511.930547 155.841469) scale(0.09 -0.09)">
     <defs>
      <path id="TimesNewRomanPSMT-47" d="M 3928 4334 
L 4038 2997 
L 3928 2997 
Q 3763 3497 3500 3750 
Q 3122 4116 2528 4116 
Q 1719 4116 1297 3475 
Q 944 2934 944 2188 
Q 944 1581 1178 1081 
Q 1413 581 1792 348 
Q 2172 116 2572 116 
Q 2806 116 3025 175 
Q 3244 234 3447 350 
L 3447 1575 
Q 3447 1894 3398 1992 
Q 3350 2091 3248 2142 
Q 3147 2194 2891 2194 
L 2891 2313 
L 4531 2313 
L 4531 2194 
L 4453 2194 
Q 4209 2194 4119 2031 
Q 4056 1916 4056 1575 
L 4056 278 
Q 3697 84 3347 -6 
Q 2997 -97 2569 -97 
Q 1341 -97 703 691 
Q 225 1281 225 2053 
Q 225 2613 494 3125 
Q 813 3734 1369 4063 
Q 1834 4334 2469 4334 
Q 2700 4334 2889 4296 
Q 3078 4259 3425 4131 
Q 3600 4066 3659 4066 
Q 3719 4066 3761 4120 
Q 3803 4175 3813 4334 
L 3928 4334 
z
" transform="scale(0.015625)"/>
      <path id="TimesNewRomanPSMT-72" d="M 1038 2947 
L 1038 2303 
Q 1397 2947 1775 2947 
Q 1947 2947 2059 2842 
Q 2172 2738 2172 2600 
Q 2172 2478 2090 2393 
Q 2009 2309 1897 2309 
Q 1788 2309 1652 2417 
Q 1516 2525 1450 2525 
Q 1394 2525 1328 2463 
Q 1188 2334 1038 2041 
L 1038 669 
Q 1038 431 1097 309 
Q 1138 225 1241 169 
Q 1344 113 1538 113 
L 1538 0 
L 72 0 
L 72 113 
Q 291 113 397 181 
Q 475 231 506 341 
Q 522 394 522 644 
L 522 1753 
Q 522 2253 501 2348 
Q 481 2444 426 2487 
Q 372 2531 291 2531 
Q 194 2531 72 2484 
L 41 2597 
L 906 2947 
L 1038 2947 
z
" transform="scale(0.015625)"/>
      <path id="TimesNewRomanPSMT-6f" d="M 1600 2947 
Q 2250 2947 2644 2453 
Q 2978 2031 2978 1484 
Q 2978 1100 2793 706 
Q 2609 313 2286 112 
Q 1963 -88 1566 -88 
Q 919 -88 538 428 
Q 216 863 216 1403 
Q 216 1797 411 2186 
Q 606 2575 925 2761 
Q 1244 2947 1600 2947 
z
M 1503 2744 
Q 1338 2744 1170 2645 
Q 1003 2547 900 2300 
Q 797 2053 797 1666 
Q 797 1041 1045 587 
Q 1294 134 1700 134 
Q 2003 134 2200 384 
Q 2397 634 2397 1244 
Q 2397 2006 2069 2444 
Q 1847 2744 1503 2744 
z
" transform="scale(0.015625)"/>
     </defs>
     <use xlink:href="#TimesNewRomanPSMT-47"/>
     <use xlink:href="#TimesNewRomanPSMT-65" transform="translate(72.216797 0)"/>
     <use xlink:href="#TimesNewRomanPSMT-6e" transform="translate(116.601562 0)"/>
     <use xlink:href="#TimesNewRomanPSMT-65" transform="translate(166.601562 0)"/>
     <use xlink:href="#TimesNewRomanPSMT-72" transform="translate(210.986328 0)"/>
     <use xlink:href="#TimesNewRomanPSMT-61" transform="translate(244.287109 0)"/>
     <use xlink:href="#TimesNewRomanPSMT-74" transform="translate(288.671875 0)"/>
     <use xlink:href="#TimesNewRomanPSMT-6f" transform="translate(316.455078 0)"/>
     <use xlink:href="#TimesNewRomanPSMT-72" transform="translate(366.455078 0)"/>
    </g>
    <!-- G_A→B -->
    <g style="fill: #212121" transform="translate(513.668672 165.265875) scale(0.09 -0.09)">
     <defs>
      <path id="TimesNewRomanPSMT-5f" d="M 3256 -1381 
L -53 -1381 
L -53 -1119 
L 3256 -1119 
L 3256 -1381 
z
" transform="scale(0.015625)"/>
      <path id="TimesNewRomanPSMT-2192" d="M 4859 2738 
Q 5275 2284 5578 2048 
Q 5881 1813 6150 1697 
L 6150 1556 
Q 5841 1406 5550 1173 
Q 5259 941 4856 491 
L 4616 491 
Q 4909 1119 5231 1456 
L 247 1456 
L 247 1772 
L 5231 1772 
Q 4994 2075 4900 2222 
Q 4806 2369 4622 2738 
L 4859 2738 
z
" transform="scale(0.015625)"/>
      <path id="TimesNewRomanPSMT-42" d="M 2956 2163 
Q 3397 2069 3616 1863 
Q 3919 1575 3919 1159 
Q 3919 844 3719 555 
Q 3519 266 3170 133 
Q 2822 0 2106 0 
L 106 0 
L 106 116 
L 266 116 
Q 531 116 647 284 
Q 719 394 719 750 
L 719 3488 
Q 719 3881 628 3984 
Q 506 4122 266 4122 
L 106 4122 
L 106 4238 
L 1938 4238 
Q 2450 4238 2759 4163 
Q 3228 4050 3475 3764 
Q 3722 3478 3722 3106 
Q 3722 2788 3528 2536 
Q 3334 2284 2956 2163 
z
M 1319 2331 
Q 1434 2309 1582 2298 
Q 1731 2288 1909 2288 
Q 2366 2288 2595 2386 
Q 2825 2484 2947 2687 
Q 3069 2891 3069 3131 
Q 3069 3503 2766 3765 
Q 2463 4028 1881 4028 
Q 1569 4028 1319 3959 
L 1319 2331 
z
M 1319 306 
Q 1681 222 2034 222 
Q 2600 222 2897 476 
Q 3194 731 3194 1106 
Q 3194 1353 3059 1581 
Q 2925 1809 2622 1940 
Q 2319 2072 1872 2072 
Q 1678 2072 1540 2065 
Q 1403 2059 1319 2044 
L 1319 306 
z
" transform="scale(0.015625)"/>
     </defs>
     <use xlink:href="#TimesNewRomanPSMT-47"/>
     <use xlink:href="#TimesNewRomanPSMT-5f" transform="translate(72.216797 0)"/>
     <use xlink:href="#TimesNewRomanPSMT-41" transform="translate(122.216797 0)"/>
     <use xlink:href="#TimesNewRomanPSMT-2192" transform="translate(194.433594 0)"/>
     <use xlink:href="#TimesNewRomanPSMT-42" transform="translate(294.433594 0)"/>
    </g>
   </g>
   <g id="text_6">
    <!-- Output -->
    <g transform="translate(676.70475 133.26825) scale(0.08 -0.08)">
     <defs>
      <path id="TimesNewRomanPSMT-4f" d="M 2341 4334 
Q 3166 4334 3770 3707 
Q 4375 3081 4375 2144 
Q 4375 1178 3765 540 
Q 3156 -97 2291 -97 
Q 1416 -97 820 525 
Q 225 1147 225 2134 
Q 225 3144 913 3781 
Q 1509 4334 2341 4334 
z
M 2281 4106 
Q 1713 4106 1369 3684 
Q 941 3159 941 2147 
Q 941 1109 1384 550 
Q 1725 125 2284 125 
Q 2881 125 3270 590 
Q 3659 1056 3659 2059 
Q 3659 3147 3231 3681 
Q 2888 4106 2281 4106 
z
" transform="scale(0.015625)"/>
     </defs>
     <use xlink:href="#TimesNewRomanPSMT-4f"/>
     <use xlink:href="#TimesNewRomanPSMT-75" transform="translate(72.216797 0)"/>
     <use xlink:href="#TimesNewRomanPSMT-74" transform="translate(122.216797 0)"/>
     <use xlink:href="#TimesNewRomanPSMT-70" transform="translate(150 0)"/>
     <use xlink:href="#TimesNewRomanPSMT-75" transform="translate(200 0)"/>
     <use xlink:href="#TimesNewRomanPSMT-74" transform="translate(250 0)"/>
    </g>
    <!-- [4, H, W] -->
    <g transform="translate(672.557875 141.6455) scale(0.08 -0.08)">
     <use xlink:href="#TimesNewRomanPSMT-5b"/>
     <use xlink:href="#TimesNewRomanPSMT-34" transform="translate(33.300781 0)"/>
     <use xlink:href="#TimesNewRomanPSMT-2c" transform="translate(83.300781 0)"/>
     <use xlink:href="#TimesNewRomanPSMT-20" transform="translate(108.300781 0)"/>
     <use xlink:href="#TimesNewRomanPSMT-48" transform="translate(133.300781 0)"/>
     <use xlink:href="#TimesNewRomanPSMT-2c" transform="translate(205.517578 0)"/>
     <use xlink:href="#TimesNewRomanPSMT-20" transform="translate(230.517578 0)"/>
     <use xlink:href="#TimesNewRomanPSMT-57" transform="translate(253.767578 0)"/>
     <use xlink:href="#TimesNewRomanPSMT-5d" transform="translate(348.152344 0)"/>
    </g>
    <!-- Center -->
    <g transform="translate(677.1535 150.02275) scale(0.08 -0.08)">
     <defs>
      <path id="TimesNewRomanPSMT-43" d="M 3853 4334 
L 3950 2894 
L 3853 2894 
Q 3659 3541 3300 3825 
Q 2941 4109 2438 4109 
Q 2016 4109 1675 3895 
Q 1334 3681 1139 3212 
Q 944 2744 944 2047 
Q 944 1472 1128 1050 
Q 1313 628 1683 403 
Q 2053 178 2528 178 
Q 2941 178 3256 354 
Q 3572 531 3950 1056 
L 4047 994 
Q 3728 428 3303 165 
Q 2878 -97 2294 -97 
Q 1241 -97 663 684 
Q 231 1266 231 2053 
Q 231 2688 515 3219 
Q 800 3750 1298 4042 
Q 1797 4334 2388 4334 
Q 2847 4334 3294 4109 
Q 3425 4041 3481 4041 
Q 3566 4041 3628 4100 
Q 3709 4184 3744 4334 
L 3853 4334 
z
" transform="scale(0.015625)"/>
     </defs>
     <use xlink:href="#TimesNewRomanPSMT-43"/>
     <use xlink:href="#TimesNewRomanPSMT-65" transform="translate(66.699219 0)"/>
     <use xlink:href="#TimesNewRomanPSMT-6e" transform="translate(111.083984 0)"/>
     <use xlink:href="#TimesNewRomanPSMT-74" transform="translate(161.083984 0)"/>
     <use xlink:href="#TimesNewRomanPSMT-65" transform="translate(188.867188 0)"/>
     <use xlink:href="#TimesNewRomanPSMT-72" transform="translate(233.251953 0)"/>
    </g>
    <!-- Slice -->
    <g transform="translate(679.817875 158.4) scale(0.08 -0.08)">
     <use xlink:href="#TimesNewRomanPSMT-53"/>
     <use xlink:href="#TimesNewRomanPSMT-6c" transform="translate(55.615234 0)"/>
     <use xlink:href="#TimesNewRomanPSMT-69" transform="translate(83.398438 0)"/>
     <use xlink:href="#TimesNewRomanPSMT-63" transform="translate(111.181641 0)"/>
     <use xlink:href="#TimesNewRomanPSMT-65" transform="translate(155.566406 0)"/>
    </g>
   </g>
   <g id="text_7">
    <!-- 4 modalities: T1, T1CE, T2, FLAIR -->
    <g transform="translate(287.491875 263.664) scale(0.08 -0.08)">
     <defs>
      <path id="TimesNewRomanPS-ItalicMT-34" d="M 3116 4238 
L 2306 1450 
L 2813 1450 
L 2700 1063 
L 2188 1063 
L 1859 -75 
L 1400 -75 
L 1731 1063 
L 200 1063 
L 331 1500 
L 2878 4238 
L 3116 4238 
z
M 2422 3431 
L 600 1450 
L 1853 1450 
L 2422 3431 
z
" transform="scale(0.015625)"/>
      <path id="TimesNewRomanPS-ItalicMT-6d" d="M 1388 2828 
L 981 1419 
Q 1253 1916 1444 2166 
Q 1741 2553 2022 2728 
Q 2188 2828 2369 2828 
Q 2525 2828 2628 2728 
Q 2731 2628 2731 2472 
Q 2731 2319 2659 2072 
L 2438 1278 
Q 2947 2231 3403 2616 
Q 3656 2828 3903 2828 
Q 4047 2828 4139 2729 
Q 4231 2631 4231 2425 
Q 4231 2244 4175 2041 
L 3831 825 
Q 3719 428 3719 384 
Q 3719 341 3747 309 
Q 3766 288 3797 288 
Q 3828 288 3906 347 
Q 4084 484 4241 709 
L 4344 644 
Q 4266 519 4067 300 
Q 3869 81 3728 3 
Q 3588 -75 3469 -75 
Q 3359 -75 3286 0 
Q 3213 75 3213 184 
Q 3213 334 3341 788 
L 3625 1791 
Q 3722 2138 3728 2175 
Q 3738 2234 3738 2291 
Q 3738 2369 3703 2413 
Q 3666 2456 3619 2456 
Q 3488 2456 3341 2322 
Q 2909 1925 2534 1209 
Q 2288 738 2072 0 
L 1600 0 
L 2134 1891 
Q 2222 2197 2222 2300 
Q 2222 2384 2187 2425 
Q 2153 2466 2103 2466 
Q 2000 2466 1884 2391 
Q 1697 2269 1401 1869 
Q 1106 1469 944 1103 
Q 866 931 572 0 
L 109 0 
L 688 2025 
L 763 2288 
Q 784 2347 784 2375 
Q 784 2444 721 2498 
Q 659 2553 563 2553 
Q 522 2553 338 2516 
L 309 2631 
L 1388 2828 
z
" transform="scale(0.015625)"/>
      <path id="TimesNewRomanPS-ItalicMT-6f" d="M 2959 1850 
Q 2959 1381 2711 922 
Q 2463 463 2019 194 
Q 1575 -75 1156 -75 
Q 728 -75 458 198 
Q 188 472 188 906 
Q 188 1366 452 1828 
Q 716 2291 1158 2559 
Q 1600 2828 2013 2828 
Q 2425 2828 2692 2556 
Q 2959 2284 2959 1850 
z
M 2441 2066 
Q 2441 2356 2298 2511 
Q 2156 2666 1931 2666 
Q 1472 2666 1086 2008 
Q 700 1350 700 700 
Q 700 403 850 242 
Q 1000 81 1228 81 
Q 1669 81 2055 736 
Q 2441 1391 2441 2066 
z
" transform="scale(0.015625)"/>
      <path id="TimesNewRomanPS-ItalicMT-64" d="M 3463 4444 
L 2388 756 
Q 2300 456 2300 363 
Q 2300 331 2326 303 
Q 2353 275 2381 275 
Q 2422 275 2478 316 
Q 2584 391 2834 691 
L 2941 625 
Q 2716 313 2486 119 
Q 2256 -75 2056 -75 
Q 1950 -75 1881 0 
Q 1813 75 1813 213 
Q 1813 391 1906 691 
L 2028 1078 
Q 1575 378 1203 109 
Q 947 -75 713 -75 
Q 475 -75 298 136 
Q 122 347 122 709 
Q 122 1175 419 1703 
Q 716 2231 1203 2563 
Q 1588 2828 1909 2828 
Q 2078 2828 2200 2759 
Q 2322 2691 2441 2531 
L 2747 3619 
Q 2781 3734 2803 3803 
Q 2841 3928 2841 4009 
Q 2841 4075 2794 4119 
Q 2728 4172 2625 4172 
Q 2553 4172 2388 4150 
L 2388 4266 
L 3463 4444 
z
M 2303 2225 
Q 2303 2425 2187 2547 
Q 2072 2669 1894 2669 
Q 1500 2669 1073 2019 
Q 647 1369 647 775 
Q 647 541 750 417 
Q 853 294 997 294 
Q 1322 294 1812 997 
Q 2303 1700 2303 2225 
z
" transform="scale(0.015625)"/>
      <path id="TimesNewRomanPS-ItalicMT-61" d="M 3003 2828 
L 2394 709 
L 2325 425 
Q 2316 384 2316 356 
Q 2316 306 2347 269 
Q 2372 241 2409 241 
Q 2450 241 2516 291 
Q 2638 381 2841 666 
L 2947 591 
Q 2731 266 2503 95 
Q 2275 -75 2081 -75 
Q 1947 -75 1880 -8 
Q 1813 59 1813 188 
Q 1813 341 1881 591 
L 1947 825 
Q 1538 291 1194 78 
Q 947 -75 709 -75 
Q 481 -75 315 114 
Q 150 303 150 634 
Q 150 1131 448 1682 
Q 747 2234 1206 2566 
Q 1566 2828 1884 2828 
Q 2075 2828 2201 2728 
Q 2328 2628 2394 2397 
L 2506 2753 
L 3003 2828 
z
M 1891 2666 
Q 1691 2666 1466 2478 
Q 1147 2213 898 1691 
Q 650 1169 650 747 
Q 650 534 756 411 
Q 863 288 1000 288 
Q 1341 288 1741 791 
Q 2275 1459 2275 2163 
Q 2275 2428 2172 2547 
Q 2069 2666 1891 2666 
z
" transform="scale(0.015625)"/>
      <path id="TimesNewRomanPS-ItalicMT-6c" d="M 1903 4444 
L 834 725 
Q 756 447 756 384 
Q 756 338 786 306 
Q 816 275 859 275 
Q 919 275 988 328 
Q 1150 456 1328 725 
L 1422 628 
Q 1125 209 875 44 
Q 691 -75 525 -75 
Q 406 -75 326 6 
Q 247 88 247 194 
Q 247 306 347 656 
L 1194 3588 
Q 1297 3947 1297 4000 
Q 1297 4075 1237 4123 
Q 1178 4172 1053 4172 
Q 981 4172 834 4150 
L 834 4266 
L 1903 4444 
z
" transform="scale(0.015625)"/>
      <path id="TimesNewRomanPS-ItalicMT-74" d="M 1663 3603 
L 1419 2753 
L 1909 2753 
L 1856 2556 
L 1369 2556 
L 831 713 
Q 744 416 744 328 
Q 744 275 769 247 
Q 794 219 828 219 
Q 906 219 1034 328 
Q 1109 391 1369 713 
L 1472 634 
Q 1184 216 928 44 
Q 753 -75 575 -75 
Q 438 -75 350 11 
Q 263 97 263 231 
Q 263 400 363 747 
L 884 2556 
L 413 2556 
L 444 2678 
Q 788 2772 1016 2958 
Q 1244 3144 1525 3603 
L 1663 3603 
z
" transform="scale(0.015625)"/>
      <path id="TimesNewRomanPS-ItalicMT-65" d="M 763 1178 
Q 741 1022 741 919 
Q 741 641 937 445 
Q 1134 250 1416 250 
Q 1641 250 1848 342 
Q 2056 434 2466 750 
L 2531 659 
Q 1791 -75 1119 -75 
Q 663 -75 431 212 
Q 200 500 200 847 
Q 200 1313 487 1800 
Q 775 2288 1209 2558 
Q 1644 2828 2103 2828 
Q 2434 2828 2593 2693 
Q 2753 2559 2753 2375 
Q 2753 2116 2547 1878 
Q 2275 1569 1747 1378 
Q 1397 1250 763 1178 
z
M 784 1331 
Q 1247 1384 1538 1513 
Q 1922 1684 2114 1923 
Q 2306 2163 2306 2378 
Q 2306 2509 2223 2590 
Q 2141 2672 1988 2672 
Q 1669 2672 1311 2333 
Q 953 1994 784 1331 
z
" transform="scale(0.015625)"/>
      <path id="TimesNewRomanPS-ItalicMT-73" d="M 2322 2828 
L 2131 1869 
L 2016 1869 
Q 2000 2288 1837 2478 
Q 1675 2669 1434 2669 
Q 1241 2669 1127 2562 
Q 1013 2456 1013 2306 
Q 1013 2203 1058 2109 
Q 1103 2016 1256 1847 
Q 1663 1403 1781 1178 
Q 1900 953 1900 753 
Q 1900 428 1629 176 
Q 1359 -75 947 -75 
Q 722 -75 428 31 
Q 325 69 269 69 
Q 128 69 56 -75 
L -59 -75 
L 131 938 
L 247 938 
Q 266 463 444 266 
Q 622 69 931 69 
Q 1169 69 1308 201 
Q 1447 334 1447 528 
Q 1447 653 1397 759 
Q 1309 947 1029 1278 
Q 750 1609 670 1775 
Q 591 1941 591 2106 
Q 591 2409 811 2618 
Q 1031 2828 1378 2828 
Q 1478 2828 1559 2813 
Q 1603 2803 1764 2742 
Q 1925 2681 1978 2681 
Q 2113 2681 2203 2828 
L 2322 2828 
z
" transform="scale(0.015625)"/>
      <path id="TimesNewRomanPS-ItalicMT-3a" d="M 1359 2831 
Q 1491 2831 1584 2739 
Q 1678 2647 1678 2516 
Q 1678 2384 1584 2290 
Q 1491 2197 1359 2197 
Q 1228 2197 1134 2290 
Q 1041 2384 1041 2516 
Q 1041 2647 1134 2739 
Q 1228 2831 1359 2831 
z
M 697 569 
Q 828 569 918 476 
Q 1009 384 1009 253 
Q 1009 125 917 33 
Q 825 -59 697 -59 
Q 566 -59 473 33 
Q 381 125 381 253 
Q 381 384 473 476 
Q 566 569 697 569 
z
" transform="scale(0.015625)"/>
      <path id="TimesNewRomanPS-ItalicMT-54" d="M 938 4238 
L 4156 4238 
L 3809 3113 
L 3691 3113 
Q 3750 3359 3750 3553 
Q 3750 3781 3609 3897 
Q 3503 3984 3063 3984 
L 2728 3984 
L 1891 1066 
Q 1731 516 1731 388 
Q 1731 269 1831 192 
Q 1931 116 2184 116 
L 2328 116 
L 2291 0 
L 447 0 
L 481 116 
L 563 116 
Q 806 116 938 194 
Q 1028 247 1101 386 
Q 1175 525 1306 975 
L 2184 3984 
L 1931 3984 
Q 1566 3984 1342 3890 
Q 1119 3797 981 3619 
Q 844 3441 756 3113 
L 641 3113 
L 938 4238 
z
" transform="scale(0.015625)"/>
      <path id="TimesNewRomanPS-ItalicMT-43" d="M 4503 4334 
L 4188 2963 
L 4075 2963 
L 4063 3306 
Q 4047 3494 3990 3641 
Q 3934 3788 3821 3895 
Q 3709 4003 3537 4064 
Q 3366 4125 3156 4125 
Q 2597 4125 2178 3819 
Q 1644 3428 1341 2716 
Q 1091 2128 1091 1525 
Q 1091 909 1450 542 
Q 1809 175 2384 175 
Q 2819 175 3158 369 
Q 3497 563 3788 966 
L 3934 966 
Q 3591 419 3172 161 
Q 2753 -97 2169 -97 
Q 1650 -97 1250 120 
Q 850 338 640 731 
Q 431 1125 431 1578 
Q 431 2272 803 2928 
Q 1175 3584 1823 3959 
Q 2472 4334 3131 4334 
Q 3441 4334 3825 4188 
Q 3994 4125 4069 4125 
Q 4144 4125 4200 4156 
Q 4256 4188 4388 4334 
L 4503 4334 
z
" transform="scale(0.015625)"/>
      <path id="TimesNewRomanPS-ItalicMT-45" d="M 2072 4009 
L 1588 2334 
L 1984 2334 
Q 2409 2334 2600 2464 
Q 2791 2594 2928 2944 
L 3044 2944 
L 2609 1406 
L 2484 1406 
Q 2541 1600 2541 1738 
Q 2541 1872 2486 1953 
Q 2431 2034 2336 2073 
Q 2241 2113 1934 2113 
L 1531 2113 
L 1122 709 
Q 1063 506 1063 400 
Q 1063 319 1141 256 
Q 1194 213 1406 213 
L 1781 213 
Q 2391 213 2758 428 
Q 3125 644 3416 1178 
L 3531 1178 
L 3131 0 
L -144 0 
L -103 116 
Q 141 122 225 159 
Q 350 216 406 303 
Q 491 431 606 841 
L 1350 3397 
Q 1438 3706 1438 3869 
Q 1438 3988 1355 4055 
Q 1272 4122 1031 4122 
L 966 4122 
L 1003 4238 
L 4047 4238 
L 3784 3216 
L 3669 3216 
Q 3691 3359 3691 3456 
Q 3691 3622 3609 3734 
Q 3503 3878 3300 3953 
Q 3150 4009 2609 4009 
L 2072 4009 
z
" transform="scale(0.015625)"/>
      <path id="TimesNewRomanPS-ItalicMT-32" d="M 2209 0 
L 100 0 
L 100 116 
Q 1713 1528 2231 2331 
Q 2472 2703 2472 3113 
Q 2472 3438 2272 3642 
Q 2072 3847 1753 3847 
Q 1313 3847 1028 3425 
L 919 3475 
Q 1078 3878 1384 4101 
Q 1691 4325 2047 4325 
Q 2450 4325 2725 4048 
Q 3000 3772 3000 3378 
Q 3000 3103 2903 2869 
Q 2753 2503 2350 2050 
Q 1738 1356 716 453 
L 1778 453 
Q 2034 453 2200 559 
Q 2366 666 2438 844 
L 2563 844 
L 2209 0 
z
" transform="scale(0.015625)"/>
      <path id="TimesNewRomanPS-ItalicMT-46" d="M 2081 4013 
L 1581 2334 
L 2138 2334 
Q 2513 2334 2698 2450 
Q 2884 2566 3081 2944 
L 3200 2944 
L 2759 1400 
L 2634 1400 
Q 2681 1588 2681 1709 
Q 2681 1900 2554 2004 
Q 2428 2109 2081 2109 
L 1519 2109 
L 1150 831 
Q 1050 491 1050 378 
Q 1050 263 1136 200 
Q 1222 138 1556 116 
L 1519 0 
L -156 0 
L -116 116 
Q 128 122 209 159 
Q 334 213 394 303 
Q 478 431 594 831 
L 1341 3384 
Q 1431 3694 1431 3869 
Q 1431 3950 1390 4008 
Q 1350 4066 1270 4094 
Q 1191 4122 953 4122 
L 991 4238 
L 4278 4238 
L 3966 3166 
L 3847 3166 
Q 3881 3359 3881 3484 
Q 3881 3691 3767 3811 
Q 3653 3931 3475 3981 
Q 3350 4013 2916 4013 
L 2081 4013 
z
" transform="scale(0.015625)"/>
      <path id="TimesNewRomanPS-ItalicMT-4c" d="M 2934 0 
L -206 0 
L -163 116 
Q 88 122 172 156 
Q 303 213 366 303 
Q 463 447 572 822 
L 1319 3400 
Q 1413 3719 1413 3869 
Q 1413 3988 1327 4053 
Q 1241 4119 1003 4119 
Q 950 4119 919 4122 
L 956 4238 
L 2684 4238 
L 2659 4122 
Q 2369 4122 2247 4065 
Q 2125 4009 2044 3881 
Q 1988 3797 1859 3356 
L 1125 822 
Q 1041 534 1041 422 
Q 1041 347 1125 278 
Q 1178 231 1366 231 
L 1775 231 
Q 2222 231 2484 344 
Q 2678 428 2841 597 
Q 2928 691 3150 1063 
L 3231 1203 
L 3347 1203 
L 2934 0 
z
" transform="scale(0.015625)"/>
      <path id="TimesNewRomanPS-ItalicMT-41" d="M 3297 4334 
L 2975 809 
Q 2950 563 2950 484 
Q 2950 359 2997 294 
Q 3056 203 3157 159 
Q 3259 116 3500 116 
L 3466 0 
L 1797 0 
L 1831 116 
L 1903 116 
Q 2106 116 2234 203 
Q 2325 263 2375 400 
Q 2409 497 2441 856 
L 2491 1394 
L 1278 1394 
L 847 809 
Q 700 613 662 527 
Q 625 441 625 366 
Q 625 266 706 194 
Q 788 122 975 116 
L 941 0 
L -313 0 
L -278 116 
Q -47 125 129 270 
Q 306 416 656 891 
L 3188 4334 
L 3297 4334 
z
M 2678 3294 
L 1450 1622 
L 2516 1622 
L 2678 3294 
z
" transform="scale(0.015625)"/>
      <path id="TimesNewRomanPS-ItalicMT-49" d="M 1578 116 
L 1544 0 
L -200 0 
L -156 116 
Q 106 122 191 159 
Q 328 213 394 306 
Q 497 453 606 831 
L 1344 3388 
Q 1438 3706 1438 3869 
Q 1438 3950 1397 4006 
Q 1356 4063 1273 4092 
Q 1191 4122 950 4122 
L 988 4238 
L 2625 4238 
L 2591 4122 
Q 2391 4125 2294 4078 
Q 2153 4016 2079 3900 
Q 2006 3784 1891 3388 
L 1156 831 
Q 1056 478 1056 381 
Q 1056 303 1095 248 
Q 1134 194 1220 164 
Q 1306 134 1578 116 
z
" transform="scale(0.015625)"/>
      <path id="TimesNewRomanPS-ItalicMT-52" d="M 2659 0 
L 1981 2059 
Q 1744 2056 1494 2106 
L 1128 825 
Q 1056 575 1056 403 
Q 1056 272 1147 197 
Q 1216 141 1522 116 
L 1494 0 
L -147 0 
L -113 116 
Q 119 125 200 163 
Q 328 216 388 306 
Q 488 453 597 825 
L 1338 3384 
Q 1413 3641 1413 3781 
Q 1413 3925 1295 4025 
Q 1178 4125 959 4122 
L 997 4238 
L 2378 4238 
Q 3072 4238 3378 3975 
Q 3684 3713 3684 3284 
Q 3684 2875 3370 2536 
Q 3056 2197 2509 2106 
L 2922 866 
Q 3072 409 3222 271 
Q 3372 134 3706 116 
L 3672 0 
L 2659 0 
z
M 1547 2284 
Q 1747 2256 1903 2256 
Q 2441 2256 2753 2554 
Q 3066 2853 3066 3297 
Q 3066 3644 2870 3828 
Q 2675 4013 2284 4013 
Q 2184 4013 2047 3988 
L 1547 2284 
z
" transform="scale(0.015625)"/>
     </defs>
     <use xlink:href="#TimesNewRomanPS-ItalicMT-34"/>
     <use xlink:href="#TimesNewRomanPS-ItalicMT-20" transform="translate(50 0)"/>
     <use xlink:href="#TimesNewRomanPS-ItalicMT-6d" transform="translate(75 0)"/>
     <use xlink:href="#TimesNewRomanPS-ItalicMT-6f" transform="translate(147.216797 0)"/>
     <use xlink:href="#TimesNewRomanPS-ItalicMT-64" transform="translate(197.216797 0)"/>
     <use xlink:href="#TimesNewRomanPS-ItalicMT-61" transform="translate(247.216797 0)"/>
     <use xlink:href="#TimesNewRomanPS-ItalicMT-6c" transform="translate(297.216797 0)"/>
     <use xlink:href="#TimesNewRomanPS-ItalicMT-69" transform="translate(325 0)"/>
     <use xlink:href="#TimesNewRomanPS-ItalicMT-74" transform="translate(352.783203 0)"/>
     <use xlink:href="#TimesNewRomanPS-ItalicMT-69" transform="translate(380.566406 0)"/>
     <use xlink:href="#TimesNewRomanPS-ItalicMT-65" transform="translate(408.349609 0)"/>
     <use xlink:href="#TimesNewRomanPS-ItalicMT-73" transform="translate(452.734375 0)"/>
     <use xlink:href="#TimesNewRomanPS-ItalicMT-3a" transform="translate(491.650391 0)"/>
     <use xlink:href="#TimesNewRomanPS-ItalicMT-20" transform="translate(524.951172 0)"/>
     <use xlink:href="#TimesNewRomanPS-ItalicMT-54" transform="translate(549.951172 0)"/>
     <use xlink:href="#TimesNewRomanPS-ItalicMT-31" transform="translate(605.566406 0)"/>
     <use xlink:href="#TimesNewRomanPS-ItalicMT-2c" transform="translate(655.566406 0)"/>
     <use xlink:href="#TimesNewRomanPS-ItalicMT-20" transform="translate(680.566406 0)"/>
     <use xlink:href="#TimesNewRomanPS-ItalicMT-54" transform="translate(705.566406 0)"/>
     <use xlink:href="#TimesNewRomanPS-ItalicMT-31" transform="translate(761.181641 0)"/>
     <use xlink:href="#TimesNewRomanPS-ItalicMT-43" transform="translate(811.181641 0)"/>
     <use xlink:href="#TimesNewRomanPS-ItalicMT-45" transform="translate(877.880859 0)"/>
     <use xlink:href="#TimesNewRomanPS-ItalicMT-2c" transform="translate(938.964844 0)"/>
     <use xlink:href="#TimesNewRomanPS-ItalicMT-20" transform="translate(963.964844 0)"/>
     <use xlink:href="#TimesNewRomanPS-ItalicMT-54" transform="translate(988.964844 0)"/>
     <use xlink:href="#TimesNewRomanPS-ItalicMT-32" transform="translate(1044.580078 0)"/>
     <use xlink:href="#TimesNewRomanPS-ItalicMT-2c" transform="translate(1094.580078 0)"/>
     <use xlink:href="#TimesNewRomanPS-ItalicMT-20" transform="translate(1119.580078 0)"/>
     <use xlink:href="#TimesNewRomanPS-ItalicMT-46" transform="translate(1144.580078 0)"/>
     <use xlink:href="#TimesNewRomanPS-ItalicMT-4c" transform="translate(1205.664062 0)"/>
     <use xlink:href="#TimesNewRomanPS-ItalicMT-41" transform="translate(1261.279297 0)"/>
     <use xlink:href="#TimesNewRomanPS-ItalicMT-49" transform="translate(1322.363281 0)"/>
     <use xlink:href="#TimesNewRomanPS-ItalicMT-52" transform="translate(1355.664062 0)"/>
    </g>
   </g>
  </g>
 </g>
 <defs>
  <clipPath id="p96dd76ea82">
   <rect x="3.6" y="3.6" width="650.16" height="340.56"/>
  </clipPath>
 </defs>
</svg>
